<svg width="398" height="229" viewBox="0 0 398 229" fill="none" xmlns="http://www.w3.org/2000/svg">
<g clip-path="url(#clip0_23_668)">
<path d="M6.94423 68.581C6.0476 68.8618 5.09281 68.9013 4.17603 68.6956C3.25925 68.4899 2.41286 68.0463 1.72212 67.4094C1.03138 66.7724 0.520698 65.9647 0.2415 65.0676C-0.0376967 64.1705 -0.0755431 63.2156 0.131776 62.2992C3.24242 49.358 15.0706 17.7104 58.1609 4.39941C76.826 -1.36643 94.7261 -1.46486 111.342 4.10468C125.011 8.66763 134.086 15.8081 138.426 19.2593C139.529 20.1318 140.24 21.4067 140.403 22.8035C140.566 24.2003 140.167 25.6046 139.295 26.7075C139.284 26.7211 139.273 26.7347 139.262 26.7483C138.366 27.8546 137.072 28.5645 135.657 28.725C134.243 28.8856 132.822 28.484 131.7 27.6067C123.836 21.4103 99.9707 2.58566 61.2915 14.534C23.5237 26.2008 13.2645 53.4902 10.6035 64.6552C10.4014 65.5774 9.95515 66.4284 9.31139 67.1191C8.66763 67.8097 7.85005 68.3146 6.94423 68.581Z" fill="#92DCE5"/>
<path d="M124.391 141.88C123.963 142.018 123.519 142.102 123.07 142.128C89.4062 143.941 67.9881 115.975 67.1087 114.809L66.9457 114.54C66.409 113.707 53.4494 93.9895 59.1546 78.33C61.7752 71.171 67.5708 66.146 76.4295 63.4094C84.6684 60.8644 91.4102 61.6171 97.1486 65.7148C101.854 69.0534 104.869 74.0321 107.792 78.8398C113.871 88.8225 117.596 93.9014 129.151 90.9711C134.224 89.6835 136.593 85.7171 137.675 82.6273C140.589 74.2196 138.006 62.7575 131.174 54.0858C122.348 42.8354 97.6467 24.1492 67.1699 33.5637C54.1553 37.584 43.5043 45.5066 36.3715 56.4156C30.4625 65.4691 27.0274 76.7134 26.9521 87.1994C26.8335 106.724 42.835 132.41 42.9867 132.643C43.3552 133.232 43.604 133.889 43.7188 134.574C43.8337 135.259 43.8125 135.961 43.6563 136.638C43.5001 137.315 43.2121 137.955 42.8086 138.521C42.4052 139.087 41.8942 139.568 41.3049 139.936C41.2885 139.946 41.2721 139.957 41.2556 139.967C40.0483 140.72 38.5931 140.968 37.2045 140.657C35.8159 140.346 34.6052 139.502 33.834 138.306C33.1117 137.131 16.0255 109.743 16.1632 87.1777C16.3548 62.7187 31.2181 33.5279 64.028 23.3926C79.1935 18.7079 95.1308 19.4953 110.129 25.6445C121.753 30.4397 132.512 38.3778 139.625 47.442C148.71 59.0118 151.91 74.1565 147.775 85.9767C145.017 93.8568 139.309 99.2941 131.723 101.238C111.952 106.267 104.207 93.6048 98.5579 84.3679C92.7574 74.8983 89.5489 70.4584 79.5237 73.5553C74.0189 75.2557 70.6276 77.9806 69.2013 81.8955C67.2604 87.2472 69.0999 94.1067 70.9847 98.9156C71.0042 98.9659 71.0238 99.016 71.0434 99.066C73.4599 105.178 77.2309 110.663 82.0729 115.108C89.8292 122.27 104.229 132.482 122.581 131.497C123.984 131.41 125.364 131.884 126.418 132.814C127.472 133.745 128.113 135.055 128.2 136.459C128.201 136.475 128.202 136.492 128.203 136.509C128.246 137.699 127.896 138.87 127.207 139.841C126.518 140.811 125.528 141.528 124.391 141.88Z" fill="#92DCE5"/>
<path d="M83.569 151.934C82.8673 152.152 82.1289 152.224 81.3983 152.148C80.6678 152.072 79.9603 151.848 79.3186 151.49C62.7153 142.083 51.0595 129.431 42.6663 111.697L42.6325 111.587C37.3427 99.7637 34.1584 81.6988 41.1825 66.4306C46.3681 55.1646 56.1018 47.2459 70.0642 42.9328C86.5785 37.8314 101.955 41.5873 114.576 53.7423C120.315 59.3523 124.982 65.9627 128.348 73.2486C128.885 74.5595 128.884 76.0289 128.345 77.3391C127.807 78.6492 126.775 79.6947 125.471 80.2495C124.168 80.8043 122.699 80.8237 121.381 80.3036C120.064 79.7835 119.004 78.7657 118.431 77.4703C115.581 71.3893 111.646 65.8791 106.819 61.2101C97.0914 51.9552 85.7833 49.2187 73.1697 53.1151C62.2695 56.4823 54.7637 62.4349 50.9215 70.81C45.3805 82.8646 48.2333 97.917 52.3729 107.181C59.7737 122.865 70.0391 133.99 84.6523 142.255C85.256 142.596 85.7866 143.052 86.2141 143.597C86.6415 144.143 86.9573 144.767 87.1434 145.435C87.3295 146.102 87.3823 146.8 87.2988 147.488C87.2153 148.176 86.9971 148.841 86.6567 149.444C86.6432 149.468 86.6295 149.492 86.6156 149.516C85.9349 150.672 84.8492 151.534 83.569 151.934Z" fill="#92DCE5"/>
<path d="M85.3174 98.9201C89.1104 98.9201 92.1853 95.8452 92.1853 92.0522C92.1853 88.2591 89.1104 85.1842 85.3174 85.1842C81.5243 85.1842 78.4495 88.2591 78.4495 92.0522C78.4495 95.8452 81.5243 98.9201 85.3174 98.9201Z" fill="#E6E6E6"/>
<path d="M209.152 175.916C209.01 175.916 208.868 175.905 208.728 175.884C208.364 175.83 208.015 175.704 207.7 175.514C207.385 175.324 207.111 175.074 206.893 174.777L203.121 169.662C202.903 169.366 202.745 169.03 202.656 168.674C202.568 168.317 202.551 167.946 202.606 167.583C202.661 167.219 202.787 166.87 202.976 166.555C203.166 166.241 203.416 165.966 203.712 165.748L235.965 141.961C236.261 141.743 236.597 141.585 236.954 141.496C237.31 141.408 237.681 141.391 238.045 141.446C238.408 141.501 238.757 141.627 239.072 141.816C239.387 142.006 239.661 142.256 239.879 142.552L243.651 147.667C244.092 148.264 244.277 149.012 244.167 149.746C244.056 150.48 243.658 151.14 243.061 151.581L210.808 175.369C210.329 175.724 209.748 175.916 209.152 175.916Z" fill="#92DCE5"/>
<path d="M232.058 156.763L227.122 150.07C226.715 149.519 226.544 148.828 226.646 148.151C226.749 147.473 227.116 146.864 227.667 146.457L246.555 129.909C247.106 129.502 247.797 129.331 248.474 129.433C249.152 129.536 249.761 129.903 250.168 130.455L259.195 141.239C259.602 141.79 259.773 142.481 259.67 143.158C259.568 143.836 259.2 144.445 258.649 144.851L235.671 157.309C235.119 157.716 234.429 157.887 233.751 157.785C233.074 157.682 232.465 157.315 232.058 156.763Z" fill="#2F2E41"/>
<path d="M262.406 228.335H256.051C255.309 228.334 254.597 228.039 254.073 227.514C253.548 226.99 253.253 226.278 253.252 225.536V172.564C253.253 171.822 253.548 171.111 254.073 170.586C254.597 170.061 255.309 169.766 256.051 169.765H262.406C263.148 169.766 263.86 170.061 264.385 170.586C264.909 171.111 265.204 171.822 265.205 172.564V225.536C265.204 226.278 264.909 226.99 264.385 227.514C263.86 228.039 263.148 228.334 262.406 228.335Z" fill="#92DCE5"/>
<path d="M274.977 228.335H268.621C267.879 228.334 267.168 228.039 266.643 227.514C266.118 226.99 265.823 226.278 265.822 225.536V172.564C265.823 171.822 266.118 171.111 266.643 170.586C267.168 170.061 267.879 169.766 268.621 169.765H274.977C275.719 169.766 276.431 170.061 276.955 170.586C277.48 171.111 277.775 171.822 277.776 172.564V225.536C277.775 226.278 277.48 226.99 276.955 227.514C276.431 228.039 275.719 228.334 274.977 228.335Z" fill="#92DCE5"/>
<path d="M334.57 227.517H195.036V228.482H334.57V227.517Z" fill="#3F3D56"/>
<path d="M262.769 107.336C275.497 107.336 285.816 97.0181 285.816 84.29C285.816 71.5619 275.497 61.2437 262.769 61.2437C250.041 61.2437 239.723 71.5619 239.723 84.29C239.723 97.0181 250.041 107.336 262.769 107.336Z" fill="#92DCE5"/>
<path d="M298.449 201.173L285.102 141.901V127.897C285.102 126.983 284.739 126.107 284.093 125.461C283.447 124.815 282.571 124.452 281.657 124.452H268.872V115.446C268.872 114.994 268.783 114.546 268.61 114.128C268.436 113.71 268.183 113.33 267.863 113.01C267.543 112.69 267.163 112.437 266.745 112.263C266.327 112.09 265.879 112.001 265.427 112.001H258.537C258.085 112.001 257.637 112.09 257.219 112.263C256.801 112.437 256.421 112.69 256.101 113.01C255.781 113.33 255.527 113.71 255.354 114.128C255.181 114.546 255.092 114.994 255.092 115.446V124.452H242.307C241.393 124.452 240.517 124.815 239.871 125.461C239.225 126.107 238.862 126.983 238.862 127.897V201.57C238.862 202.011 238.947 202.449 239.114 202.858C239.269 203.594 239.667 204.257 240.242 204.741C240.818 205.225 241.539 205.503 242.29 205.531L296.3 207.332C299.528 207.416 300.993 203.218 298.449 201.173Z" fill="#2F2E41"/>
<path d="M262.991 92.4777C261.567 92.4378 259.796 92.3882 258.431 91.3911C258.025 91.0822 257.691 90.6881 257.453 90.2366C257.215 89.7851 257.078 89.2869 257.053 88.7771C257.028 88.4145 257.088 88.0511 257.227 87.7153C257.366 87.3795 257.58 87.0804 257.854 86.8414C258.568 86.2393 259.609 86.0984 260.73 86.4277L259.567 77.9331L260.421 77.8162L261.787 87.8023L261.075 87.4756C260.248 87.0963 259.115 86.9037 258.41 87.4992C258.237 87.6549 258.102 87.8484 258.016 88.0647C257.93 88.2811 257.895 88.5143 257.914 88.7464C257.935 89.1259 258.037 89.4964 258.214 89.8327C258.391 90.1691 258.638 90.4634 258.939 90.6956C260.001 91.4714 261.414 91.5719 263.015 91.6165L262.991 92.4777Z" fill="#2F2E41"/>
<path d="M255.348 78.666H250.709V79.5273H255.348V78.666Z" fill="#2F2E41"/>
<path d="M269.989 78.666H265.35V79.5273H269.989V78.666Z" fill="#2F2E41"/>
<path d="M242.588 69.3936C238.494 66.9127 236.566 62.2063 236.562 57.5516C236.56 55.0706 237.099 52.6189 238.141 50.3674C239.183 48.1158 240.703 46.1185 242.596 44.5146C246.813 40.8679 252.428 39.0833 257.913 38.6298C264.551 38.0812 271.145 39.5238 277.483 41.3651C284.27 43.3367 290.921 45.8174 297.868 47.1977C304.61 48.5372 311.37 48.6692 318.007 46.7323C324.134 44.9446 330.352 41.7855 336.896 42.333C342.547 42.8058 346.84 46.5669 349.727 51.2136C355.459 60.439 355.912 72.8213 364.155 80.5035C367.72 83.825 372.363 85.3297 377.003 86.4543C381.453 87.5327 386.2 88.2237 390.284 90.4062C394.663 92.7464 397.314 97.1452 396.629 102.185C395.85 107.91 391.777 112.837 387.292 116.2C382.571 119.695 377.13 122.094 371.364 123.22C365.599 124.347 359.655 124.174 353.965 122.713C342.066 119.556 332.396 110.335 319.719 109.757C312.647 109.434 305.683 111.361 298.612 111.041C293.712 110.82 288.437 109.008 285.023 105.364C283.385 103.658 282.361 101.456 282.114 99.1038C282.037 98.2832 280.744 98.2751 280.822 99.1038C281.306 104.253 285.096 108.056 289.619 110.147C292 111.239 294.542 111.939 297.146 112.219C300.607 112.601 304.135 112.239 307.58 111.862C311.22 111.463 314.867 110.971 318.538 111.015C321.888 111.068 325.209 111.659 328.372 112.764C334.446 114.847 339.918 118.304 345.721 120.996C351.337 123.601 357.218 125.217 363.439 125.257C369.435 125.286 375.365 124.015 380.822 121.529C386.195 119.081 391.244 115.427 394.589 110.502C397.726 105.883 399.373 99.8252 396.55 94.6552C394.338 90.6031 390.118 88.5526 385.864 87.2902C381.148 85.8907 376.219 85.2515 371.602 83.5087C369.189 82.6416 366.97 81.3103 365.069 79.59C363.029 77.6109 361.349 75.2926 360.103 72.7385C357.46 67.5827 356.11 61.92 353.884 56.5945C351.822 51.6614 349.001 46.6894 344.456 43.6492C342.014 42.0336 339.176 41.1174 336.25 41.0002C333.013 40.8538 329.795 41.5969 326.719 42.5334C323.463 43.5244 320.286 44.7622 317.005 45.6743C313.55 46.6364 309.967 47.0643 306.382 46.943C299.009 46.7028 291.887 44.5125 284.907 42.3043C272.679 38.4358 259.08 34.2945 246.787 40.2575C241.997 42.581 237.939 46.4792 236.229 51.598C234.715 56.1272 234.924 61.4104 237.258 65.6301C238.364 67.6373 239.977 69.3195 241.935 70.5091C242.648 70.9411 243.298 69.8244 242.588 69.3936Z" fill="white"/>
<path d="M278.216 184.56H271.861C271.118 184.559 270.407 184.264 269.882 183.739C269.358 183.214 269.062 182.503 269.062 181.761V145.049C269.062 144.307 269.358 143.595 269.882 143.07C270.407 142.546 271.118 142.251 271.861 142.25H278.216C278.958 142.251 279.67 142.546 280.195 143.07C280.719 143.595 281.015 144.307 281.015 145.049V181.761C281.015 182.503 280.719 183.214 280.195 183.739C279.67 184.264 278.958 184.559 278.216 184.56Z" fill="#92DCE5"/>
<path d="M253.683 63.6914C253.825 64.7035 254.246 65.6558 254.9 66.4411C255.554 67.2263 256.415 67.8133 257.384 68.1357C258.354 68.4581 259.395 68.5031 260.389 68.2657C261.383 68.0283 262.29 67.518 263.01 66.7921L261.93 66.5071C262.533 68.0478 263.542 69.396 264.851 70.4076C266.16 71.4192 267.719 72.0562 269.362 72.2506C271.004 72.445 272.669 72.1895 274.178 71.5114C275.687 70.8333 276.983 69.758 277.928 68.4004C278.415 67.7246 277.295 67.079 276.813 67.7484C275.998 68.8891 274.893 69.7905 273.611 70.3588C272.33 70.9271 270.919 71.1415 269.527 70.9797C268.134 70.8179 266.811 70.2858 265.694 69.4388C264.577 68.5918 263.707 67.4609 263.176 66.1637C263.144 66.0565 263.084 65.9594 263.004 65.8817C262.923 65.8039 262.824 65.7481 262.716 65.7195C262.608 65.6909 262.494 65.6905 262.385 65.7184C262.277 65.7463 262.177 65.8015 262.096 65.8787C261.536 66.445 260.826 66.8404 260.05 67.0186C259.273 67.1969 258.462 67.1507 257.71 66.8854C256.959 66.6201 256.299 66.1467 255.806 65.5204C255.314 64.8941 255.01 64.1407 254.929 63.348C254.814 62.5282 253.569 62.877 253.683 63.6914Z" fill="#2F2E41"/>
<path d="M212.962 158.406L212.828 158.498L210.327 154.809C210.137 154.528 209.893 154.288 209.61 154.102C209.328 153.916 209.011 153.787 208.678 153.723C208.345 153.659 208.003 153.661 207.672 153.73C207.34 153.798 207.025 153.931 206.744 154.121L198.929 159.42C198.648 159.61 198.408 159.853 198.222 160.136C198.036 160.419 197.907 160.736 197.843 161.068C197.779 161.401 197.781 161.743 197.85 162.075C197.918 162.407 198.051 162.722 198.241 163.002L211.961 183.24C212.151 183.521 212.395 183.761 212.678 183.947C212.96 184.133 213.277 184.262 213.61 184.326C213.943 184.39 214.285 184.387 214.616 184.319C214.948 184.251 215.263 184.118 215.544 183.928L223.359 178.629C223.64 178.439 223.88 178.196 224.066 177.913C224.252 177.63 224.381 177.313 224.445 176.981C224.509 176.648 224.507 176.306 224.438 175.974C224.37 175.642 224.237 175.327 224.047 175.047L214.608 161.124L214.743 161.032L212.962 158.406Z" fill="#3F3D56"/>
<path d="M207.336 152.079L206.348 152.748C206.469 152.829 206.568 152.938 206.637 153.066C206.706 153.194 206.742 153.337 206.743 153.482C206.743 153.627 206.708 153.771 206.641 153.899C206.573 154.028 206.474 154.137 206.354 154.219L202.02 157.157C201.9 157.238 201.762 157.289 201.617 157.305C201.473 157.32 201.327 157.3 201.192 157.245C201.057 157.191 200.938 157.104 200.845 156.993C200.751 156.882 200.687 156.749 200.657 156.607L199.734 157.232C199.532 157.37 199.358 157.546 199.223 157.75C199.089 157.955 198.996 158.184 198.949 158.424C198.903 158.665 198.905 158.912 198.954 159.152C199.004 159.391 199.1 159.619 199.237 159.822L212.497 179.382C212.635 179.584 212.811 179.758 213.015 179.893C213.22 180.027 213.449 180.12 213.689 180.166C213.93 180.213 214.177 180.211 214.417 180.162C214.656 180.112 214.884 180.016 215.087 179.879L222.688 174.726C223.097 174.448 223.38 174.019 223.473 173.534C223.566 173.048 223.462 172.545 223.185 172.136L209.925 152.576C209.787 152.374 209.611 152.2 209.407 152.065C209.202 151.931 208.973 151.838 208.733 151.791C208.493 151.745 208.245 151.747 208.006 151.796C207.766 151.846 207.538 151.942 207.336 152.079Z" fill="white"/>
</g>
<defs>
<clipPath id="clip0_23_668">
<rect width="398" height="228.482" fill="white"/>
</clipPath>
</defs>
</svg>
