<svg width="398" height="298" viewBox="0 0 398 298" fill="none" xmlns="http://www.w3.org/2000/svg">
<g clip-path="url(#clip0_13_376)">
<path opacity="0.1" d="M207.039 297.783C276.929 297.783 333.586 294.717 333.586 290.934C333.586 287.152 276.929 284.085 207.039 284.085C137.149 284.085 80.4924 287.152 80.4924 290.934C80.4924 294.717 137.149 297.783 207.039 297.783Z" fill="#92DCE5"/>
<path d="M278.72 264.082L277.631 265.678L270.902 275.691L265.188 277.414L260.926 273.242L261.132 270.488L262.195 256.191C262.195 256.191 235.822 240.676 233.464 237.773C231.106 234.871 222.036 232.241 222.036 232.241C222.036 232.241 208.16 225.802 202.991 214.556C197.821 203.31 211.606 201.587 211.606 201.587L263.392 251.113L278.72 264.082Z" fill="#FFC1C7"/>
<path d="M285.068 269.886L268.653 285.213C268.653 285.213 259.221 287.027 250.786 285.758C245.395 284.945 246.433 281.988 247.851 279.953L247.877 279.917C248.726 278.753 249.968 277.936 251.374 277.617C258.354 275.934 260.762 270.88 260.762 270.88L265.841 275.233L274.638 264.981L281.143 268.036L285.068 269.886Z" fill="#575988"/>
<path opacity="0.1" d="M281.143 268.043L277.28 266.229L277.642 265.678L278.731 264.082L263.392 251.113L211.606 201.594C211.606 201.594 197.821 203.31 202.991 214.556C208.16 225.802 222.036 232.241 222.036 232.241C222.036 232.241 231.106 234.871 233.464 237.773C235.822 240.676 262.213 256.184 262.213 256.184L261.151 270.481L261.1 271.163L260.762 270.877C260.762 270.877 258.354 275.93 251.374 277.613C249.968 277.932 248.726 278.749 247.877 279.913L247.851 279.95C246.4 281.981 245.395 284.938 250.786 285.754C259.221 287.024 268.653 285.21 268.653 285.21L285.068 269.883L281.143 268.043Z" fill="black"/>
<path opacity="0.1" d="M4.29889 155.986C10.5967 182.904 23.9286 206.172 44.9949 217.458C88.7855 240.9 187.536 228.809 261.234 214.919C298.476 207.925 332.28 188.6 357.202 160.056L4.29889 155.986Z" fill="#92DCE5"/>
<path opacity="0.1" d="M390.781 29.2832H350.342C349.435 29.2539 348.574 28.8728 347.943 28.2205C347.311 27.5682 346.958 26.6958 346.958 25.7878C346.958 24.8798 347.311 24.0074 347.943 23.3551C348.574 22.7028 349.435 22.3217 350.342 22.2925H357.333C356.406 22.2925 355.518 21.9244 354.863 21.2693C354.207 20.6141 353.839 19.7255 353.839 18.799C353.839 17.8724 354.207 16.9838 354.863 16.3287C355.518 15.6735 356.406 15.3055 357.333 15.3055H352.341C351.434 15.2762 350.573 14.8951 349.941 14.2428C349.31 13.5905 348.957 12.7181 348.957 11.8101C348.957 10.9021 349.31 10.0297 349.941 9.3774C350.573 8.72509 351.434 8.34403 352.341 8.31478H373.447C368.764 6.13814 363.29 4.58909 356.981 3.77647C299.431 -3.61325 278.883 1.27333 271.635 6.3159C262.692 12.5193 252.716 17.083 242.054 19.2815C206.546 26.6059 140.14 35.4177 79.9519 16.4591C50.0375 7.02693 27.8067 22.96 14.4783 49.5731H397.8C397.3 41.8388 395.802 34.6994 393.052 28.4451C392.419 28.9868 391.614 29.284 390.781 29.2832Z" fill="#92DCE5"/>
<path opacity="0.1" d="M0.867043 99.7993C-0.686175 115.455 -0.159198 131.247 2.43423 146.764L357.474 159.748C367.359 148.38 375.658 135.725 382.143 122.128L0.867043 99.7993ZM141.29 133.294H134.299C134.768 133.279 135.234 133.358 135.672 133.527C136.109 133.696 136.508 133.951 136.844 134.277C137.181 134.603 137.449 134.994 137.632 135.425C137.815 135.857 137.909 136.321 137.909 136.79C137.909 137.258 137.815 137.722 137.632 138.154C137.449 138.585 137.181 138.976 136.844 139.302C136.508 139.628 136.109 139.883 135.672 140.052C135.234 140.221 134.768 140.3 134.299 140.285H93.8607C92.9531 140.256 92.0926 139.875 91.4609 139.222C90.8293 138.57 90.4762 137.698 90.4762 136.79C90.4762 135.882 90.8293 135.009 91.4609 134.357C92.0926 133.705 92.9531 133.323 93.8607 133.294H100.851C99.9248 133.294 99.0362 132.926 98.3811 132.271C97.7259 131.616 97.3578 130.727 97.3578 129.801C97.3578 128.874 97.7259 127.986 98.3811 127.33C99.0362 126.675 99.9248 126.307 100.851 126.307H95.8596C94.952 126.278 94.0915 125.897 93.4598 125.245C92.8282 124.592 92.475 123.72 92.475 122.812C92.475 121.904 92.8282 121.031 93.4598 120.379C94.0915 119.727 94.952 119.346 95.8596 119.317H136.298C137.206 119.346 138.066 119.727 138.698 120.379C139.329 121.031 139.683 121.904 139.683 122.812C139.683 123.72 139.329 124.592 138.698 125.245C138.066 125.897 137.206 126.278 136.298 126.307H141.29C142.216 126.307 143.105 126.675 143.76 127.33C144.415 127.986 144.783 128.874 144.783 129.801C144.783 130.727 144.415 131.616 143.76 132.271C143.105 132.926 142.216 133.294 141.29 133.294Z" fill="#92DCE5"/>
<path opacity="0.1" d="M397.819 49.8053L10.2012 59.2375C5.48516 71.3578 2.37618 85.0453 0.925079 99.2624H391.027C393.574 90.9192 395.457 82.3881 396.661 73.7485C397.822 65.401 398.287 57.3256 397.819 49.8053ZM79.6182 80.692H72.6275C73.096 80.6769 73.5627 80.7561 74 80.925C74.4372 81.0938 74.8361 81.3489 75.1728 81.6749C75.5096 82.001 75.7773 82.3914 75.9602 82.823C76.143 83.2546 76.2372 83.7186 76.2372 84.1873C76.2372 84.656 76.143 85.12 75.9602 85.5516C75.7773 85.9832 75.5096 86.3736 75.1728 86.6996C74.8361 87.0257 74.4372 87.2808 74 87.4496C73.5627 87.6185 73.096 87.6977 72.6275 87.6826H32.189C31.2815 87.6534 30.4209 87.2723 29.7893 86.62C29.1576 85.9677 28.8045 85.0953 28.8045 84.1873C28.8045 83.2793 29.1576 82.4069 29.7893 81.7546C30.4209 81.1023 31.2815 80.7212 32.189 80.692H39.1797C38.2531 80.692 37.3645 80.3239 36.7094 79.6687C36.0542 79.0136 35.6861 78.125 35.6861 77.1984C35.6861 76.2719 36.0542 75.3833 36.7094 74.7281C37.3645 74.073 38.2531 73.7049 39.1797 73.7049H34.1879C33.2804 73.6757 32.4198 73.2946 31.7881 72.6423C31.1565 71.99 30.8034 71.1176 30.8034 70.2096C30.8034 69.3016 31.1565 68.4292 31.7881 67.7769C32.4198 67.1246 33.2804 66.7435 34.1879 66.7143H74.6264C75.5339 66.7435 76.3945 67.1246 77.0261 67.7769C77.6577 68.4292 78.0109 69.3016 78.0109 70.2096C78.0109 71.1176 77.6577 71.99 77.0261 72.6423C76.3945 73.2946 75.5339 73.6757 74.6264 73.7049H79.6182C80.5447 73.7049 81.4333 74.073 82.0884 74.7281C82.7436 75.3833 83.1117 76.2719 83.1117 77.1984C83.1117 78.125 82.7436 79.0136 82.0884 79.6687C81.4333 80.3239 80.5447 80.692 79.6182 80.692Z" fill="#92DCE5"/>
<g opacity="0.1">
<path d="M289.244 179.073C289.244 179.073 299.474 153.86 318.578 144.508C326.616 140.637 333.181 134.261 337.286 126.34C339.206 122.565 340.776 118.622 341.977 114.561" stroke="#535461" stroke-width="2" stroke-miterlimit="10"/>
<path d="M353.981 108.597C351.989 111.1 341.683 114.764 341.683 114.764C341.683 114.764 342.924 103.899 344.915 101.395C345.369 100.747 345.952 100.198 346.626 99.7827C347.301 99.3675 348.053 99.0946 348.837 98.9809C349.62 98.8673 350.419 98.9152 351.184 99.1218C351.948 99.3284 352.662 99.6892 353.282 100.182C353.902 100.675 354.415 101.29 354.788 101.988C355.161 102.686 355.388 103.454 355.454 104.243C355.52 105.032 355.423 105.827 355.171 106.577C354.918 107.328 354.514 108.019 353.985 108.607L353.981 108.597Z" fill="#92DCE5"/>
<path d="M350.444 128.422C347.411 129.442 336.775 126.906 336.775 126.906C336.775 126.906 343.722 118.46 346.754 117.441C347.489 117.14 348.278 116.993 349.071 117.009C349.865 117.024 350.647 117.203 351.369 117.533C352.091 117.863 352.738 118.338 353.269 118.928C353.8 119.518 354.205 120.211 354.458 120.963C354.711 121.716 354.806 122.512 354.739 123.303C354.672 124.094 354.443 124.863 354.067 125.562C353.691 126.262 353.175 126.876 352.552 127.368C351.929 127.86 351.211 128.219 350.444 128.422Z" fill="#92DCE5"/>
<path d="M331.268 151.861C328.137 151.208 320.232 143.651 320.232 143.651C320.232 143.651 330.495 139.868 333.626 140.517C335.05 140.907 336.273 141.825 337.044 143.085C337.816 144.345 338.078 145.851 337.777 147.297C337.477 148.743 336.636 150.021 335.426 150.868C334.217 151.716 332.73 152.071 331.268 151.861Z" fill="#92DCE5"/>
<path d="M312.766 166.325C309.57 166.216 300.501 160.1 300.501 160.1C300.501 160.1 309.976 154.636 313.172 154.749C313.967 154.724 314.758 154.862 315.496 155.156C316.235 155.449 316.905 155.891 317.466 156.454C318.027 157.017 318.466 157.689 318.756 158.429C319.047 159.168 319.182 159.96 319.154 160.754C319.127 161.548 318.936 162.328 318.594 163.046C318.253 163.763 317.767 164.403 317.169 164.925C316.57 165.447 315.87 165.841 315.113 166.082C314.355 166.323 313.557 166.405 312.766 166.325Z" fill="#92DCE5"/>
<path d="M326.871 119.821C327.277 122.995 334.206 131.455 334.206 131.455C334.206 131.455 338.77 121.515 338.36 118.344C338.076 116.899 337.253 115.615 336.058 114.753C334.863 113.892 333.385 113.517 331.924 113.705C330.463 113.893 329.128 114.629 328.19 115.765C327.251 116.9 326.78 118.35 326.871 119.821Z" fill="#92DCE5"/>
<path d="M305.445 137.013C306.784 139.915 315.93 145.919 315.93 145.919C315.93 145.919 317.304 135.072 315.966 132.166C315.262 130.872 314.093 129.894 312.695 129.43C311.298 128.966 309.776 129.051 308.438 129.667C307.1 130.284 306.047 131.385 305.491 132.749C304.936 134.113 304.919 135.637 305.445 137.013Z" fill="#92DCE5"/>
<path d="M286.915 156.581C287.746 159.672 295.741 167.13 295.741 167.13C295.741 167.13 298.934 156.671 298.106 153.581C297.637 152.18 296.65 151.011 295.349 150.312C294.047 149.613 292.527 149.437 291.1 149.82C289.673 150.202 288.446 151.115 287.668 152.371C286.89 153.627 286.621 155.133 286.915 156.581Z" fill="#92DCE5"/>
<path opacity="0.25" d="M353.981 108.597C351.989 111.1 341.683 114.764 341.683 114.764C341.683 114.764 342.924 103.899 344.915 101.395C345.369 100.747 345.952 100.198 346.626 99.7827C347.301 99.3675 348.053 99.0946 348.837 98.9809C349.62 98.8673 350.419 98.9152 351.184 99.1218C351.948 99.3284 352.662 99.6892 353.282 100.182C353.902 100.675 354.415 101.29 354.788 101.988C355.161 102.686 355.388 103.454 355.454 104.243C355.52 105.032 355.423 105.827 355.171 106.577C354.918 107.328 354.514 108.019 353.985 108.607L353.981 108.597Z" fill="black"/>
<path opacity="0.25" d="M350.444 128.422C347.411 129.442 336.775 126.906 336.775 126.906C336.775 126.906 343.722 118.46 346.754 117.441C347.489 117.14 348.278 116.993 349.071 117.009C349.865 117.024 350.647 117.203 351.369 117.533C352.091 117.863 352.738 118.338 353.269 118.928C353.8 119.518 354.205 120.211 354.458 120.963C354.711 121.716 354.806 122.512 354.739 123.303C354.672 124.094 354.443 124.863 354.067 125.562C353.691 126.262 353.175 126.876 352.552 127.368C351.929 127.86 351.211 128.219 350.444 128.422Z" fill="black"/>
<path opacity="0.25" d="M331.268 151.861C328.137 151.208 320.232 143.651 320.232 143.651C320.232 143.651 330.495 139.868 333.626 140.517C335.05 140.907 336.273 141.825 337.044 143.085C337.816 144.345 338.078 145.851 337.777 147.297C337.477 148.743 336.636 150.021 335.426 150.868C334.217 151.716 332.73 152.071 331.268 151.861Z" fill="black"/>
<path opacity="0.25" d="M312.766 166.325C309.57 166.216 300.501 160.1 300.501 160.1C300.501 160.1 309.976 154.636 313.172 154.749C313.967 154.724 314.758 154.862 315.496 155.156C316.235 155.449 316.905 155.891 317.466 156.454C318.027 157.017 318.466 157.689 318.756 158.429C319.047 159.168 319.182 159.96 319.154 160.754C319.127 161.548 318.936 162.328 318.594 163.046C318.253 163.763 317.767 164.403 317.169 164.925C316.57 165.447 315.87 165.841 315.113 166.082C314.355 166.323 313.557 166.405 312.766 166.325Z" fill="black"/>
<path opacity="0.25" d="M326.871 119.821C327.277 122.995 334.206 131.455 334.206 131.455C334.206 131.455 338.77 121.515 338.36 118.344C338.076 116.899 337.253 115.615 336.058 114.753C334.863 113.892 333.385 113.517 331.924 113.705C330.463 113.893 329.128 114.629 328.19 115.765C327.251 116.9 326.78 118.35 326.871 119.821Z" fill="black"/>
<path opacity="0.25" d="M305.445 137.013C306.784 139.915 315.93 145.919 315.93 145.919C315.93 145.919 317.304 135.072 315.966 132.166C315.262 130.872 314.093 129.894 312.695 129.43C311.298 128.966 309.776 129.051 308.438 129.667C307.1 130.284 306.047 131.385 305.491 132.749C304.936 134.113 304.919 135.637 305.445 137.013Z" fill="black"/>
<path opacity="0.25" d="M286.915 156.581C287.746 159.672 295.741 167.13 295.741 167.13C295.741 167.13 298.934 156.671 298.106 153.581C297.637 152.18 296.65 151.011 295.349 150.312C294.047 149.613 292.527 149.437 291.1 149.82C289.673 150.202 288.446 151.115 287.668 152.371C286.89 153.627 286.621 155.133 286.915 156.581Z" fill="black"/>
</g>
<g opacity="0.1">
<path d="M272.955 138.736C272.955 138.736 274.247 111.557 289.168 96.3965C295.467 90.0791 299.546 81.8889 300.795 73.0556C301.351 68.8536 301.521 64.6096 301.302 60.3766" stroke="#535461" stroke-width="2" stroke-miterlimit="10"/>
<path d="M310.658 50.7631C309.61 53.7886 301.099 60.6523 301.099 60.6523C301.099 60.6523 298.669 49.9904 299.713 46.9684C300.286 45.6104 301.354 44.521 302.7 43.9213C304.047 43.3217 305.571 43.2566 306.963 43.7394C308.356 44.2222 309.512 45.2167 310.199 46.5211C310.885 47.8254 311.049 49.342 310.658 50.7631Z" fill="#92DCE5"/>
<path d="M313.898 70.6431C311.359 72.6093 300.497 73.7484 300.497 73.7484C300.497 73.7484 304.252 63.4747 306.773 61.5084C307.992 60.6781 309.481 60.3428 310.938 60.5708C312.395 60.7987 313.711 61.5727 314.618 62.7356C315.525 63.8985 315.955 65.363 315.822 66.8317C315.688 68.3004 315 69.6631 313.898 70.6431Z" fill="#92DCE5"/>
<path d="M303.581 99.1137C300.41 99.5381 290.445 95.0288 290.445 95.0288C290.445 95.0288 298.872 88.0563 302.053 87.6318C303.524 87.5312 304.978 87.994 306.12 88.9264C307.262 89.8587 308.007 91.1907 308.203 92.652C308.398 94.1132 308.031 95.5942 307.174 96.7943C306.318 97.9944 305.037 98.8236 303.592 99.1137H303.581Z" fill="#92DCE5"/>
<path d="M290.92 118.896C287.869 119.853 277.287 117.082 277.287 117.082C277.287 117.082 284.412 108.789 287.466 107.835C288.208 107.545 289.001 107.411 289.797 107.441C290.593 107.471 291.374 107.664 292.091 108.009C292.809 108.354 293.448 108.843 293.969 109.445C294.49 110.047 294.881 110.75 295.118 111.51C295.356 112.27 295.434 113.071 295.349 113.863C295.264 114.654 295.017 115.42 294.623 116.112C294.229 116.804 293.697 117.408 293.06 117.885C292.423 118.363 291.694 118.704 290.92 118.888V118.896Z" fill="#92DCE5"/>
<path d="M288.805 70.3456C290.256 73.2043 299.586 78.889 299.586 78.889C299.586 78.889 300.591 68.0057 299.155 65.1434C298.408 63.8731 297.206 62.9343 295.793 62.5174C294.38 62.1005 292.861 62.2367 291.544 62.8985C290.227 63.5602 289.212 64.6979 288.703 66.0809C288.194 67.4638 288.231 68.9885 288.805 70.3456Z" fill="#92DCE5"/>
<path d="M274.294 93.672C276.521 95.9684 287.136 98.5985 287.136 98.5985C287.136 98.5985 284.84 87.9039 282.612 85.6075C281.52 84.6142 280.09 84.0744 278.614 84.098C277.138 84.1215 275.727 84.7066 274.667 85.7342C273.607 86.7618 272.978 88.1546 272.909 89.6293C272.84 91.104 273.335 92.5496 274.294 93.672Z" fill="#92DCE5"/>
<path d="M263.302 118.275C265.116 120.916 275.128 125.302 275.128 125.302C275.128 125.302 274.667 114.376 272.864 111.735C271.953 110.584 270.639 109.822 269.187 109.601C267.736 109.38 266.255 109.718 265.042 110.546C263.83 111.374 262.976 112.631 262.653 114.063C262.33 115.495 262.562 116.996 263.302 118.265V118.275Z" fill="#92DCE5"/>
</g>
<path opacity="0.1" d="M156.359 31.0172C156.359 31.0172 147.715 30.4985 148.741 36.5568C148.689 36.8642 148.735 37.1803 148.873 37.4599C149.011 37.7395 149.234 37.9681 149.51 38.1131C149.51 38.1131 149.51 37.6633 150.395 37.8156C150.706 37.8696 151.021 37.8854 151.335 37.8628C151.76 37.8333 152.163 37.6665 152.485 37.3875C152.485 37.3875 154.916 36.3827 155.859 32.4103C155.859 32.4103 156.559 31.5432 156.53 31.322L155.079 31.9459C155.079 31.9459 155.576 32.998 155.184 33.8723C155.184 33.8723 155.137 31.9822 154.858 32.0257C154.8 32.0257 154.099 32.3885 154.099 32.3885C154.099 32.3885 154.959 34.2242 154.31 35.5555C154.31 35.5555 154.556 33.2954 153.831 32.5227L152.804 33.1213C152.804 33.1213 153.806 35.015 153.127 36.5604C153.127 36.5604 153.301 34.1915 152.59 33.2664L151.658 33.992C151.658 33.992 152.601 35.8603 152.021 37.1409C152.021 37.1409 151.948 34.3801 151.451 34.1734C151.099 34.4715 150.785 34.8114 150.515 35.1855C150.515 35.1855 151.157 36.5423 150.758 37.2569C150.758 37.2569 150.515 35.4177 150.312 35.4104C150.312 35.4104 149.499 36.6293 149.416 37.4637C149.455 36.6894 149.696 35.9389 150.116 35.2871C149.648 35.3758 149.215 35.5989 148.872 35.9292C148.872 35.9292 148.999 35.0694 150.323 34.9932C150.323 34.9932 150.994 34.0682 151.172 34.0137C151.172 34.0137 149.862 33.9013 149.071 34.2568C149.071 34.2568 149.768 33.4442 151.411 33.8106L152.333 33.0633C152.333 33.0633 150.609 32.8275 149.877 33.085C149.877 33.085 150.718 32.3595 152.579 32.8928L153.581 32.2942C152.811 32.1237 152.021 32.0554 151.233 32.091C151.233 32.091 152.159 31.594 153.874 32.1309L154.6 31.8117C154.6 31.8117 153.512 31.6013 153.207 31.565C152.902 31.5287 152.877 31.4453 152.877 31.4453C153.558 31.3317 154.258 31.4095 154.897 31.6702C154.897 31.6702 156.388 31.1152 156.359 31.0172Z" fill="#92DCE5"/>
<path opacity="0.1" d="M133.657 60.4999C133.657 60.4999 130.704 68.6442 136.802 69.3879C137.083 69.5252 137.399 69.5704 137.707 69.5169C138.014 69.4635 138.297 69.3142 138.515 69.0904C138.515 69.0904 138.087 68.9489 138.482 68.1581C138.617 67.8749 138.717 67.5765 138.779 67.2693C138.872 66.8541 138.828 66.4199 138.652 66.0322C138.652 66.0322 138.38 63.4166 134.84 61.3851C134.84 61.3851 134.205 60.4673 133.984 60.431L134.169 62.0054C134.169 62.0054 135.319 61.8277 136.048 62.4516C136.048 62.4516 134.234 61.9619 134.183 62.2412C134.183 62.2993 134.317 63.072 134.317 63.072C134.317 63.072 136.32 62.7709 137.415 63.7685C137.415 63.7685 135.319 62.8942 134.372 63.3658L134.655 64.5231C134.655 64.5231 136.755 64.0986 138.043 65.1906C138.043 65.1906 135.819 64.349 134.731 64.7698L135.163 65.8581C135.163 65.8581 137.22 65.4953 138.286 66.3986C138.286 66.3986 135.62 65.6731 135.279 66.1048C135.465 66.5279 135.702 66.9263 135.986 67.2911C135.986 67.2911 137.466 67.0589 138.039 67.6538C138.039 67.6538 136.207 67.3672 136.142 67.5595C136.142 67.5595 137.078 68.6841 137.854 69.0106C137.126 68.7541 136.479 68.3113 135.975 67.7264C135.931 68.1947 136.023 68.6658 136.24 69.0832C136.24 69.0832 135.453 68.7204 135.754 67.4362C135.754 67.4362 135.057 66.5292 135.054 66.3478C135.054 66.3478 134.579 67.574 134.691 68.4338C134.691 68.4338 134.111 67.5341 134.93 66.0612L134.473 64.9729C134.473 64.9729 133.748 66.5582 133.799 67.331C133.799 67.331 133.349 66.3224 134.379 64.6863L134.089 63.5581C133.71 64.2438 133.421 64.9753 133.229 65.7348C133.229 65.7348 133.015 64.7045 134.02 63.2171L133.915 62.4371C133.915 62.4371 133.407 63.4094 133.283 63.7032C133.16 63.9971 133.073 63.9862 133.073 63.9862C133.159 63.3001 133.433 62.6511 133.864 62.1106C133.864 62.1106 133.759 60.5035 133.657 60.4999Z" fill="#92DCE5"/>
<path opacity="0.1" d="M190.99 53.6398C190.99 53.6398 188.033 61.7805 194.135 62.5242C194.415 62.6617 194.73 62.7073 195.037 62.6545C195.344 62.6017 195.626 62.4532 195.844 62.2304C195.844 62.2304 195.419 62.0889 195.811 61.2944C195.951 61.0118 196.055 60.7134 196.123 60.4056C196.217 59.9913 196.171 59.5577 195.993 59.1722C195.993 59.1722 195.721 56.5566 192.18 54.5214C192.18 54.5214 191.549 53.6036 191.327 53.5673L191.509 55.1454C191.509 55.1454 192.662 54.964 193.388 55.5879C193.388 55.5879 191.574 55.0982 191.527 55.3812C191.527 55.4356 191.661 56.2119 191.661 56.2119C191.661 56.2119 193.664 55.9072 194.756 56.9084C194.756 56.9084 192.662 56.0305 191.712 56.5058L191.995 57.6594C191.995 57.6594 194.095 57.2349 195.387 58.3269C195.387 58.3269 193.163 57.4853 192.075 57.9097L192.506 58.998C192.506 58.998 194.563 58.6353 195.63 59.5386C195.63 59.5386 192.963 58.813 192.622 59.2411C192.808 59.6635 193.045 60.0618 193.326 60.4274C193.326 60.4274 194.81 60.1952 195.383 60.7901C195.383 60.7901 193.547 60.5035 193.486 60.6922C193.486 60.6922 194.422 61.8168 195.198 62.1433C194.469 61.8853 193.82 61.4414 193.315 60.8554C193.267 61.3298 193.359 61.8078 193.58 62.2304C193.58 62.2304 192.789 61.8676 193.09 60.5797C193.09 60.5797 192.397 59.6764 192.394 59.4914C192.394 59.4914 191.915 60.714 192.031 61.5774C192.031 61.5774 191.451 60.674 192.274 59.2048L191.813 58.1165C191.813 58.1165 191.088 59.7018 191.142 60.4781C191.142 60.4781 190.692 59.466 191.723 57.8299L191.433 56.7017C191.053 57.3869 190.764 58.1186 190.573 58.8783C190.573 58.8783 190.355 57.8517 191.36 56.3607L191.255 55.5843C191.255 55.5843 190.747 56.5566 190.627 56.8468C190.507 57.137 190.417 57.1334 190.417 57.1334C190.501 56.4467 190.775 55.7972 191.208 55.2578C191.208 55.2578 191.088 53.6398 190.99 53.6398Z" fill="#92DCE5"/>
<path opacity="0.1" d="M97.3107 43.4386C97.3107 43.4386 94.3541 51.5829 100.456 52.323C100.735 52.4615 101.051 52.5078 101.358 52.4549C101.665 52.4021 101.948 52.253 102.165 52.0291C102.165 52.0291 101.74 51.8876 102.132 51.0968C102.27 50.8135 102.375 50.5153 102.444 50.208C102.536 49.7924 102.49 49.3582 102.313 48.9709C102.313 48.9709 102.041 46.3553 98.5006 44.3202C98.5006 44.3202 97.8693 43.406 97.648 43.3697L97.8294 44.9441C97.8294 44.9441 98.9794 44.7664 99.7086 45.3903C99.7086 45.3903 97.8947 44.897 97.8476 45.1799C97.8476 45.238 97.9818 46.0107 97.9818 46.0107C97.9818 46.0107 99.9843 45.7096 101.076 46.7072C101.076 46.7072 98.9794 45.8293 98.0326 46.3045L98.3156 47.4618C98.3156 47.4618 100.416 47.0373 101.704 48.1293C101.704 48.1293 99.4837 47.2877 98.3954 47.7085L98.8271 48.7968C98.8271 48.7968 100.884 48.434 101.951 49.3373C101.951 49.3373 99.2805 48.6118 98.9432 49.0399C99.1288 49.4635 99.3651 49.8631 99.6469 50.2298C99.6469 50.2298 101.131 49.994 101.7 50.5925C101.7 50.5925 99.8682 50.3059 99.8029 50.4982C99.8029 50.4982 100.743 51.6192 101.519 51.9493C100.789 51.6928 100.14 51.2486 99.6361 50.6615C99.588 51.1358 99.6801 51.6138 99.9009 52.0364C99.9009 52.0364 99.11 51.6736 99.4111 50.3894C99.4111 50.3894 98.7146 49.4824 98.7146 49.3011C98.7146 49.3011 98.2357 50.5272 98.3518 51.387C98.3518 51.387 97.7714 50.4873 98.5913 49.0145L98.1342 47.9261C98.1342 47.9261 97.4086 49.5151 97.4594 50.2878C97.4594 50.2878 97.0096 49.2793 98.0399 47.6432L97.7533 46.5113C97.3736 47.1966 97.0846 47.9282 96.8935 48.688C96.8935 48.688 96.6758 47.6613 97.6807 46.1703L97.5755 45.394C97.5755 45.394 97.0676 46.3662 96.9479 46.6601C96.8282 46.9539 96.7375 46.943 96.7375 46.943C96.821 46.257 97.0936 45.6076 97.5247 45.0675C97.5247 45.0675 97.4231 43.4422 97.3107 43.4386Z" fill="#92DCE5"/>
<path opacity="0.1" d="M188.135 98.6819C188.135 98.6819 190.417 107.026 195.829 104.124C196.137 104.075 196.421 103.93 196.641 103.709C196.862 103.489 197.007 103.205 197.056 102.897C197.056 102.897 196.627 103.024 196.49 102.15C196.44 101.84 196.354 101.536 196.232 101.247C196.068 100.855 195.782 100.527 195.416 100.311C195.416 100.311 193.685 98.3337 189.611 98.711C189.611 98.711 188.567 98.3264 188.363 98.4244L189.423 99.607C189.423 99.607 190.257 98.798 191.211 98.8815C191.211 98.8815 189.437 99.5308 189.571 99.7811C189.597 99.8319 190.159 100.383 190.159 100.383C190.159 100.383 191.61 98.983 193.09 99.168C193.09 99.168 190.874 99.6614 190.37 100.594L191.269 101.377C191.269 101.377 192.742 99.8174 194.422 99.9662C194.422 99.9662 192.122 100.561 191.476 101.533L192.463 102.183C192.463 102.183 193.914 100.692 195.325 100.822C195.325 100.822 192.739 101.78 192.699 102.313C193.095 102.552 193.519 102.742 193.961 102.879C193.961 102.879 195.049 101.834 195.84 101.983C195.84 101.983 194.179 102.803 194.237 102.999C194.237 102.999 195.648 103.362 196.468 103.188C195.724 103.398 194.939 103.409 194.19 103.22C194.423 103.635 194.772 103.973 195.194 104.192C195.194 104.192 194.338 104.348 193.845 103.126C193.845 103.126 192.757 102.789 192.644 102.636C192.644 102.636 192.96 103.91 193.551 104.548C193.551 104.548 192.557 104.149 192.379 102.473L191.382 101.853C191.382 101.853 191.708 103.561 192.191 104.171C192.191 104.171 191.24 103.605 191.139 101.675L190.25 100.92C190.338 101.703 190.527 102.471 190.812 103.206C190.812 103.206 190.043 102.48 190.007 100.692L189.47 100.119C189.47 100.119 189.615 101.207 189.688 101.515C189.76 101.824 189.688 101.878 189.688 101.878C189.36 101.269 189.208 100.581 189.249 99.89C189.249 99.89 188.218 98.6239 188.135 98.6819Z" fill="#92DCE5"/>
<path d="M295.839 145.748C296.63 146.663 297.503 147.503 298.447 148.259L305.514 154.281C306.773 155.351 308.054 156.457 309.65 156.962C310.594 157.259 311.594 157.335 312.573 157.184C313.552 157.034 314.483 156.661 315.295 156.095L315.175 156.055L315.295 155.975C314.101 155.59 312.879 155.191 311.895 154.419C311.491 154.115 311.15 153.735 310.893 153.299C310.637 152.863 310.469 152.38 310.401 151.879C310.401 151.828 310.401 151.781 310.401 151.73C310.404 151.593 310.417 151.456 310.441 151.321C311.963 151.191 313.428 150.675 314.696 149.822L314.573 149.779L314.696 149.703C310.93 148.495 308.322 144.961 307.139 141.221C305.957 137.481 305.953 133.497 305.826 129.583C305.699 125.669 305.409 121.646 303.719 118.105C303.084 116.777 302.267 115.515 301.959 114.078C301.874 113.652 301.834 113.218 301.839 112.783C301.865 111.386 302.271 109.982 302.645 108.618C303.475 105.572 304.139 102.483 304.633 99.364C304.827 98.2555 304.935 97.1335 304.956 96.0083C304.99 94.91 304.814 93.8154 304.437 92.7832C302.775 88.4662 297 86.431 296.118 81.9C296.015 81.2902 295.971 80.6718 295.988 80.0535C295.988 79.7125 295.988 79.3751 295.988 79.0377C295.988 78.7003 295.988 78.3122 295.959 77.9784C295.708 74.7896 293.735 72.0216 291.83 69.4351C289.538 66.3225 287.114 63.0865 283.592 61.4286C280.856 60.1335 277.2 59.7054 273.938 59.9957C272.475 58.733 270.87 57.6435 269.157 56.7488C266.665 55.363 264.078 53.999 261.317 53.6943C257.817 53.3097 254.356 54.652 250.844 54.8769C246.07 55.1853 241.383 53.4258 236.609 53.063C231.835 52.7003 226.339 54.3074 224.206 59.1141C223.706 60.2813 223.402 61.5229 223.306 62.789C223.284 63.0321 223.27 63.2715 223.259 63.5146V63.54C223.223 64.5215 223.251 65.5042 223.342 66.4821V66.5945C223.342 66.7904 223.378 66.9863 223.4 67.1822C223.4 67.2403 223.4 67.2947 223.418 67.3527C223.418 67.5341 223.458 67.7155 223.48 67.8969L223.502 68.0674C223.531 68.2959 223.563 68.5245 223.592 68.753C223.648 69.2237 223.749 69.6878 223.894 70.1388C223.983 70.3995 224.112 70.6444 224.278 70.8644C224.797 71.5246 225.577 71.7205 226.382 71.8439L227.017 71.9346C226.952 72.0652 226.883 72.1958 226.821 72.33C225.382 75.3647 224.638 78.6826 224.645 82.0415C224.645 93.4544 233.094 102.916 244.133 104.635L244.797 105.462C248.867 110.563 253.975 117.372 256.405 122.273C253.598 125.759 250.311 131.941 249.375 142.309L247.985 145.552C245.072 149.742 244.321 155.786 245.072 161.409C244.253 164.449 243.317 168.269 242.667 171.429C237.839 170.359 221.358 167.711 217.462 165.139L206.034 159.755C206.034 159.755 191.16 149.365 183.158 152.833C180.099 149.075 175.485 145.139 173.497 143.651C170.087 141.094 161.605 131.103 161.605 131.103L148.317 113.465C148.28 111.423 148.063 109.678 147.504 108.927C145.937 106.83 137.64 102.175 135.982 103.18C134.325 104.185 132.939 101.004 132.939 101.004L132.812 100.935C132.5 100.753 131.615 100.253 130.385 99.5925C130.32 98.1201 130.357 96.645 130.494 95.1775C130.519 94.9309 130.552 94.6842 130.588 94.452C134.993 94.293 139.225 92.6994 142.641 89.9136C146.057 87.1278 148.469 83.3024 149.51 79.0196C149.568 78.791 149.608 78.5552 149.655 78.323C150.25 78.4612 150.87 78.4443 151.457 78.2741C152.043 78.1038 152.576 77.7859 153.004 77.3508C154.165 76.1029 154.215 74.1838 153.845 72.5295C153.475 70.8753 152.757 69.29 152.576 67.5994C152.347 65.2958 153.16 62.8834 152.412 60.7067C151.785 58.8493 150.131 57.4998 148.368 56.6182C146.604 55.7367 144.674 55.2216 142.872 54.4198C141.152 53.658 139.552 52.635 137.767 52.0328C135.453 51.2528 132.964 51.2238 130.512 51.2818C128.974 50.6615 127.406 50.0702 125.759 49.8851C123.946 49.6784 121.95 50.0303 120.568 51.2383C119.48 52.2033 118.595 53.7523 117.118 53.8031C116.393 53.8285 115.74 53.4694 115.094 53.161C113.262 52.2831 110.944 51.7861 109.289 52.9506C107.962 53.8793 107.476 55.588 107.247 57.1805C107.018 58.7731 106.979 60.4455 106.21 61.8712C105.734 62.7491 105.012 63.4638 104.414 64.2619C102.899 66.2878 102.184 68.8016 102.408 71.3215V71.394C102.321 71.0313 102.237 70.6939 102.175 70.3384C102.175 70.6068 102.175 70.8717 102.212 71.1401C102.369 72.3847 102.64 73.6123 103.021 74.8078L104.523 80.068C105.284 82.738 106.064 85.4479 107.515 87.8241C108.082 88.7603 108.766 89.6198 109.551 90.3817C110.787 91.6801 112.37 92.5978 114.111 93.0263C114.722 93.1635 115.352 93.2015 115.975 93.1388C115.975 93.2149 115.957 93.2875 115.943 93.3637C115.809 93.3383 115.671 93.3093 115.544 93.2911C114.954 93.1682 114.344 93.1844 113.762 93.3383C110.897 94.3577 110.026 97.4594 109.772 98.6783C109.714 98.9903 109.696 99.1789 109.696 99.1789C109.696 99.1789 109.743 99.3603 109.797 99.6687L109.772 99.7739C109.714 100.082 109.696 100.275 109.696 100.275C109.696 100.275 109.743 100.456 109.797 100.772L109.05 100.79L96.5524 102.422C93.6974 102.226 90.9802 102.179 89.5255 102.527C89.4024 102.555 89.2812 102.59 89.1627 102.633C87.3489 103.26 79.0377 108.996 71.579 114.274C71.579 114.129 71.579 113.987 71.5573 113.85L69.435 115.359C69.435 115.5 69.435 115.649 69.435 115.798C68.9054 116.16 68.3794 116.545 67.8715 116.911C65.5896 118.544 63.5182 120.017 61.9764 121.145C60.0972 122.494 58.9327 123.347 58.9327 123.347C58.9327 123.347 58.2434 123.572 57.7864 124.635C57.1987 125.995 56.9955 128.731 59.1177 134.114C62.8978 143.695 63.725 150.174 63.725 150.174C62.6994 150.281 61.6928 150.525 60.7321 150.9C59.4225 151.422 58.0548 152.307 57.4853 153.802C57.1196 154.846 57.1107 155.981 57.4599 157.031C59.2084 163.234 88.1542 198.459 88.1542 198.459L88.517 198.492C90.0015 198.623 91.4946 198.623 92.9791 198.492C94.3323 198.351 95.5984 198.028 96.1788 197.346C96.1788 197.346 102.596 205.584 112.021 199.972C111.956 207.445 111.767 212.927 112.953 215.688C114.8 219.976 114.8 229.738 114.8 229.738L116.556 229.8C116.462 230.162 116.356 230.525 116.244 230.888C115.435 233.562 114.241 236.794 112.979 237.567C110.853 238.873 111.862 261.321 111.949 263.258C111.949 263.334 111.949 263.374 111.949 263.374L111.825 272.444V273.169C111.562 272.815 111.325 272.442 111.118 272.052C111.118 272.052 107.701 275.317 107.639 282.21C107.577 289.102 107.701 289.335 107.701 289.335C107.701 289.335 121.486 288.801 124.073 289.752C126.659 290.702 148.291 288.925 148.291 288.925C148.291 288.925 149.093 286.842 146.786 285.242C150.464 284.978 154.477 284.274 156.827 282.569C161.997 278.836 146.398 275.926 145.309 275.335C144.221 274.744 138.83 269.988 136.603 268.207C135.93 267.715 135.134 267.419 134.303 267.35L134.582 259.221C137.901 255.48 141.497 234.857 141.497 234.857C142.672 233.877 143.183 231.494 143.394 230.039C143.823 229.897 144.199 229.626 144.469 229.263C144.74 228.9 144.893 228.463 144.907 228.011C148.705 228.138 153.483 228.109 154.4 227.198C155.968 225.646 155.783 220.353 155.783 220.353L153.57 164.326L153.425 164.112C153.79 161.547 153.798 158.944 153.446 156.378C158.416 157.796 162.284 158.761 162.284 158.761C162.284 158.761 169.764 160.14 175.013 161.3C174.154 162.213 173.505 163.303 173.112 164.493C168.396 177.916 195.144 177.36 195.144 177.36L207.772 183.201L237.498 192.916C227.946 190.098 217.034 186.782 209.608 184.507C208.876 184.283 208.133 184.103 207.38 183.967C200.567 182.733 193.489 185.215 189.151 190.689C189.1 190.758 189.053 190.819 188.998 190.885C187.959 192.236 187.38 193.885 187.347 195.59C187.313 197.294 187.825 198.965 188.81 200.357C189.945 201.964 191.465 204.101 193.246 206.586C189.477 207.725 183.241 210.899 187.032 219.061C192.285 230.376 206.386 236.837 206.386 236.837C206.386 236.837 215.604 239.486 217.995 242.406C218.666 243.226 221.26 245.043 224.652 247.235C226.828 249.538 228.533 251.044 229.546 251.377C233.587 252.709 241.456 259.097 246.991 263.889L246.161 275.339L246.106 276.028L245.765 275.738C245.765 275.738 243.317 280.817 236.221 282.518C234.797 282.838 233.537 283.66 232.669 284.832L232.644 284.865L232.433 285.17L232.274 285.05C230.823 287.093 230.148 290.067 235.626 290.887C244.198 292.164 253.764 290.339 253.764 290.339L262.311 282.438C263.261 283.237 264.376 283.816 265.576 284.132C271.965 285.583 289.908 292.527 289.908 292.527C289.908 290.579 305.765 265.518 305.765 265.518C327.168 225.004 303.893 194.727 301.321 191.574L301.092 191.298L300.893 187.932L300.849 187.159C300.849 187.159 312.4 182.051 307.974 179.621C303.548 177.19 301.081 165.505 296.913 160.64C293.648 156.846 293.837 148.037 293.492 140.532C293.866 142.385 294.67 144.124 295.839 145.61C295.864 145.643 295.893 145.669 295.919 145.701L295.611 145.433C295.687 145.549 295.759 145.65 295.839 145.748ZM153.512 142.636C154.999 144.236 157.597 146.282 159.316 147.58C157.256 146.575 155.652 145.727 154.415 145.041C154.125 144.236 153.82 143.43 153.512 142.636ZM109.511 104.671C109.155 105.737 108.508 106.68 107.642 107.396L106.917 104.265C107.867 104.417 108.753 104.559 109.511 104.671ZM254.505 190.689C254.791 190.072 255.089 189.466 255.39 188.875C256.662 188.461 257.784 187.681 258.615 186.633C259.247 188.827 259.715 191.066 260.015 193.33C260.015 193.435 260.015 193.493 260.015 193.493C259.999 194.406 259.862 195.312 259.605 196.189C259.271 197.248 258.662 198.245 257.555 198.365C257.095 198.412 254.827 197.865 251.435 196.939C250.452 196.671 249.371 196.37 248.218 196.043C250.028 195.924 252.546 194.904 254.505 190.689ZM282.892 114.143C282.213 113.055 280.798 112.359 279.068 111.949C278.752 111.738 278.263 111.404 277.639 110.951C274.591 108.72 268.508 103.695 265.718 97.278C266.496 97.0612 267.255 96.7834 267.989 96.4473C269.128 95.9248 270.204 95.2736 271.196 94.5064C271.53 94.2452 271.856 93.9731 272.168 93.6902C272.967 92.9691 273.696 92.1734 274.345 91.314C274.602 90.9512 274.853 90.6066 275.07 90.2257C275.426 89.6673 275.748 89.0882 276.035 88.4916C276.696 87.0989 277.205 85.6395 277.555 84.1383C277.697 83.5361 277.82 82.923 277.918 82.3063C278.016 81.6896 278.11 81.0692 278.179 80.4453C278.405 78.2436 278.491 76.0299 278.437 73.8174C278.437 73.7122 278.437 73.6033 278.437 73.4981C278.437 73.4582 278.437 73.4183 278.437 73.3821C278.426 71.1391 278.183 68.9034 277.711 66.7106C277.874 66.7723 278.038 66.834 278.194 66.9065C278.456 67.035 278.706 67.1868 278.941 67.36C278.883 67.2766 278.818 67.1931 278.756 67.1097C279.808 67.7917 280.592 68.8546 281.295 69.9139C284.519 74.9401 286.578 80.6237 287.322 86.5485C288.065 92.4734 287.473 98.4895 285.591 104.156C285.061 105.713 284.426 107.262 284.285 108.898C283.773 114.742 289.364 119.2 291.442 124.693C292.483 127.446 292.647 130.497 292.785 133.516C291.217 125.872 285.489 118.348 282.903 114.158L282.892 114.143Z" fill="url(#paint0_linear_13_376)"/>
<path d="M144.221 229.709C144.221 229.709 143.949 234.244 142.226 235.695C142.226 235.695 138.689 256.191 135.424 259.91L134.88 261.996L121.276 260.454L123.996 242.315L126.536 225.628L144.221 229.709Z" fill="#FFC1C8"/>
<path opacity="0.03" d="M144.221 229.709C144.221 229.709 143.949 234.244 142.226 235.695C142.226 235.695 138.689 256.191 135.424 259.91L134.88 261.996L121.276 260.454L123.996 242.315L126.536 225.628L144.221 229.709Z" fill="black"/>
<path d="M129.561 260.164L135.424 259.906L135.112 269.135L130.624 272.143L122.542 270.372L125.491 258.038L129.561 260.164Z" fill="#FF748F"/>
<path opacity="0.03" d="M129.561 260.164L135.424 259.906L135.112 269.135L130.624 272.143L122.542 270.372L125.491 258.038L129.561 260.164Z" fill="black"/>
<path d="M130.624 268.428C130.624 268.428 135.228 267.071 137.412 268.841C139.596 270.612 144.907 275.331 145.97 275.923C147.033 276.514 162.36 279.405 157.299 283.12C152.238 286.835 139.244 285.776 139.244 285.776C139.244 285.776 130.744 283.294 130.508 283.178C130.272 283.062 125.067 280.523 124.903 280.345C124.74 280.167 126.376 268.373 126.376 268.373L130.624 268.428Z" fill="#5D618C"/>
<path opacity="0.03" d="M130.624 268.428C130.624 268.428 135.228 267.071 137.412 268.841C139.596 270.612 144.907 275.331 145.97 275.923C147.033 276.514 162.36 279.405 157.299 283.12C152.238 286.835 139.244 285.776 139.244 285.776C139.244 285.776 130.744 283.294 130.508 283.178C130.272 283.062 125.067 280.523 124.903 280.345C124.74 280.167 126.376 268.373 126.376 268.373L130.624 268.428Z" fill="black"/>
<path d="M117.285 145.817L117.013 162.679L116.396 198.648L116.033 198.964C105.241 208.305 97.6226 198.42 97.6226 198.42C97.0495 199.098 95.8088 199.421 94.4738 199.559C93.0135 199.689 91.5445 199.689 90.0842 199.559L89.7214 199.526C89.7214 199.526 61.2364 164.493 59.5132 158.326C59.1714 157.283 59.1803 156.156 59.5386 155.119C60.1009 153.646 61.4468 152.768 62.7346 152.249C63.6794 151.876 64.6702 151.632 65.6803 151.524C65.6803 151.524 64.8641 145.084 61.1457 135.562C59.0561 130.211 59.2592 127.494 59.836 126.129C60.2859 125.074 60.9643 124.849 60.9643 124.849C60.9643 124.849 62.1106 124.004 63.9572 122.672C65.4917 121.551 67.5124 120.086 69.7616 118.464L71.8475 116.969C79.542 111.448 88.8145 104.947 90.7118 104.272C90.8302 104.229 90.9514 104.194 91.0746 104.167C94.9671 103.228 108.031 105.179 108.031 105.179L117.285 145.817Z" fill="#92DCE5"/>
<path opacity="0.1" d="M117.285 145.817L117.013 162.679C104.109 158.874 92.1121 133.657 90.5304 131.669C89.1773 129.942 90.5667 110.712 91.0782 104.174C94.9708 103.235 108.034 105.186 108.034 105.186L117.285 145.817Z" fill="black"/>
<path d="M265.388 112.979C265.388 112.979 255.321 118.148 254.051 138.464C254.051 138.464 252.419 148.803 251.512 150.617C250.605 152.431 246.251 169.572 246.796 171.658C246.796 171.658 245.889 173.744 242.533 172.837C239.177 171.93 221.039 169.118 216.957 166.397L205.711 161.047C205.711 161.047 183.763 145.538 179.138 158.87C174.513 172.202 200.814 171.665 200.814 171.665L213.239 177.469L250.877 189.887C250.877 189.887 255.865 192.154 259.221 184.899C261.368 180.328 263.917 175.958 266.839 171.839C266.839 171.839 274.457 150.435 274.366 146.808C274.276 143.18 282.529 134.564 282.529 134.564C282.529 134.564 284.161 111.709 270.739 112.163L265.388 112.979Z" fill="#FFC1C7"/>
<path opacity="0.03" d="M265.388 112.979C265.388 112.979 255.321 118.148 254.051 138.464C254.051 138.464 252.419 148.803 251.512 150.617C250.605 152.431 246.251 169.572 246.796 171.658C246.796 171.658 245.889 173.744 242.533 172.837C239.177 171.93 221.039 169.118 216.957 166.397L205.711 161.047C205.711 161.047 183.763 145.538 179.138 158.87C174.513 172.202 200.814 171.665 200.814 171.665L213.239 177.469L250.877 189.887C250.877 189.887 255.865 192.154 259.221 184.899C261.368 180.328 263.917 175.958 266.839 171.839C266.839 171.839 274.457 150.435 274.366 146.808C274.276 143.18 282.529 134.564 282.529 134.564C282.529 134.564 284.161 111.709 270.739 112.163L265.388 112.979Z" fill="black"/>
<path d="M158.913 130.624C159.458 131.259 161.997 132.569 161.997 132.569C161.997 132.569 170.341 142.498 173.696 145.037C177.052 147.577 188.026 157.281 185.806 160.956C183.586 164.631 181.09 163.811 181.09 163.811L161.453 150.207C161.453 150.207 154.56 145.266 153.156 142.908C151.752 140.55 150.025 135.612 150.025 135.612L158.913 130.624Z" fill="#FFC1C8"/>
<path opacity="0.03" d="M158.913 130.624C159.458 131.259 161.997 132.569 161.997 132.569C161.997 132.569 170.341 142.498 173.696 145.037C177.052 147.577 188.026 157.281 185.806 160.956C183.586 164.631 181.09 163.811 181.09 163.811L161.453 150.207C161.453 150.207 154.56 145.266 153.156 142.908C151.752 140.55 150.025 135.612 150.025 135.612L158.913 130.624Z" fill="black"/>
<path d="M147.896 113.665L161.997 132.572L149.3 137.517L144.04 121.689L147.896 113.665Z" fill="#DCE6F2"/>
<path opacity="0.03" d="M147.896 113.665L161.997 132.572L149.3 137.517L144.04 121.689L147.896 113.665Z" fill="black"/>
<path d="M151.567 161.87L154.107 165.588L156.283 221.274C156.283 221.274 156.465 226.535 154.923 228.076C153.381 229.618 140.775 228.621 140.775 228.621C140.775 228.621 141.228 171.846 141.41 170.758C141.591 169.67 151.567 161.87 151.567 161.87Z" fill="#575988"/>
<path opacity="0.1" d="M151.567 161.87L154.107 165.588L156.283 221.274C156.283 221.274 156.465 226.535 154.923 228.076C153.381 229.618 140.775 228.621 140.775 228.621C140.775 228.621 141.228 171.846 141.41 170.758C141.591 169.67 151.567 161.87 151.567 161.87Z" fill="black"/>
<path d="M134.586 232.263C133.76 234.293 132.79 236.262 131.684 238.154C131.684 238.154 129.326 251.61 128.321 252.85C127.595 253.757 127.261 260.527 127.142 264.056C127.098 265.333 127.08 266.186 127.08 266.186L113.215 272.796L113.153 264.06C113.153 264.06 113.153 264.02 113.153 263.944C113.066 262.018 112.065 239.707 114.165 238.408C115.399 237.643 116.574 234.418 117.368 231.773C117.974 229.731 118.355 228.022 118.355 228.022C118.355 228.022 133.759 227.021 135.043 228.671C135.514 229.259 135.188 230.688 134.586 232.263Z" fill="#FFC1C8"/>
<path opacity="0.1" d="M134.586 232.263C128.339 232.132 120.51 231.867 117.347 231.755C117.953 229.712 118.333 228.004 118.333 228.004C118.333 228.004 133.737 227.003 135.021 228.653C135.514 229.259 135.188 230.688 134.586 232.263Z" fill="black"/>
<path d="M116.378 149.717C116.378 149.717 112.115 172.39 112.932 186.992C113.748 201.594 112.297 212.379 114.111 216.649C115.925 220.919 115.925 230.616 115.925 230.616C115.925 230.616 140.593 231.523 143.133 231.16C145.672 230.797 145.581 228.893 145.581 228.893C145.581 228.893 143.858 213.83 145.491 209.114C147.123 204.398 146.851 189.978 146.851 189.978L153.744 166.76C153.744 166.76 155.83 156.33 151.477 152.068C147.123 147.805 116.378 149.717 116.378 149.717Z" fill="#575988"/>
<path d="M262.758 269.523L261.669 271.12L254.94 281.132L249.226 282.855L244.964 278.683L245.17 275.93L246.233 261.633C246.233 261.633 219.86 246.117 217.501 243.215C215.143 240.313 206.074 237.683 206.074 237.683C206.074 237.683 192.198 231.243 187.028 219.997C181.859 208.751 195.644 207.028 195.644 207.028L247.43 256.554L262.758 269.523Z" fill="#FFC1C7"/>
<path opacity="0.1" d="M261.687 271.116L254.958 281.129L249.244 282.852L244.982 278.68L245.188 275.926L249.879 279.95L258.676 269.701L261.687 271.116Z" fill="black"/>
<path d="M269.106 275.328L252.691 290.655C252.691 290.655 243.258 292.469 234.824 291.199C229.433 290.387 230.471 287.43 231.889 285.395L231.915 285.358C232.764 284.195 234.006 283.378 235.412 283.059C242.391 281.375 244.8 276.322 244.8 276.322L249.879 280.675L258.676 270.423L265.181 273.478L269.106 275.328Z" fill="#575988"/>
<path d="M269.106 275.502L252.691 290.836C252.691 290.836 243.259 292.65 234.824 291.381C229.433 290.568 230.108 287.611 231.526 285.576C233.157 286.869 235.115 287.684 237.182 287.931C241.807 288.384 248.791 287.931 248.791 287.931L265.181 273.663L269.106 275.502Z" fill="white"/>
<path d="M133.581 91.7929C132.246 92.4604 131.633 94.5209 131.386 96.8717C130.969 100.884 131.644 105.716 131.644 105.716C131.644 105.716 113.505 100.757 115.442 99.7884C116.556 99.2334 117.147 95.192 117.448 91.8654C117.673 89.4058 117.738 87.3344 117.738 87.3344C117.738 87.3344 137.209 89.979 133.581 91.7929Z" fill="#FFC1C8"/>
<path d="M277.965 113.802C277.965 113.802 255.956 134.6 256.681 128.556C256.783 127.715 256.493 126.55 255.919 125.175C253.884 120.271 248.258 112.656 243.857 107.087C240.628 103.003 238.053 100.017 238.053 100.017C238.053 100.017 265.388 77.0424 263.211 90.1023C262.757 93.0802 263.172 96.1258 264.405 98.8742C267.129 105.288 273.166 110.334 276.18 112.562C277.269 113.363 277.965 113.802 277.965 113.802Z" fill="#FFC1C7"/>
<path opacity="0.1" d="M260.189 94.0892C259.794 94.579 258.328 96.2985 257.893 96.752C253.757 101.058 253.206 107.272 246.767 107.272C245.796 107.273 244.827 107.211 243.864 107.087C240.636 103.003 238.06 100.017 238.06 100.017C238.06 100.017 265.388 77.0424 263.211 90.1023C262.696 93.2004 259.039 91.3757 260.189 94.0892Z" fill="black"/>
<path d="M269.498 83.8118C269.499 88.3087 268.166 92.7048 265.668 96.4441C263.17 100.183 259.619 103.098 255.465 104.819C251.31 106.54 246.739 106.991 242.328 106.114C237.918 105.237 233.867 103.071 230.687 99.8916C227.507 96.7118 225.342 92.6605 224.465 88.2499C223.587 83.8394 224.038 79.2679 225.759 75.1134C227.48 70.959 230.395 67.4083 234.134 64.9104C237.874 62.4125 242.27 61.0796 246.767 61.0804C249.755 61.0688 252.716 61.6489 255.479 62.7872C258.242 63.9255 260.753 65.5995 262.866 67.7126C264.979 69.8257 266.653 72.3361 267.791 75.0993C268.929 77.8624 269.51 80.8234 269.498 83.8118Z" fill="#FFC1C7"/>
<path opacity="0.1" d="M277.965 113.802C277.965 113.802 255.956 134.6 256.681 128.556C256.783 127.715 256.492 126.55 255.919 125.175L259.101 117.673C262.999 114.259 267.998 112.365 273.18 112.34C274.123 112.34 275.065 112.404 275.999 112.533L276.18 112.562C277.269 113.363 277.965 113.802 277.965 113.802Z" fill="black"/>
<path d="M303.842 266.168C303.842 266.168 288.243 291.076 288.243 293.013C288.243 293.013 270.586 286.12 264.299 284.669C258.013 283.218 252.085 270.039 252.085 270.039C252.085 270.039 235.397 254.316 228.867 252.139C223.328 250.293 196.707 212.742 188.777 201.412C187.806 200.026 187.301 198.367 187.335 196.675C187.369 194.982 187.94 193.345 188.966 191.998L189.114 191.806C191.213 189.166 193.992 187.148 197.153 185.971C200.313 184.793 203.735 184.5 207.05 185.124C207.786 185.259 208.512 185.438 209.227 185.661C220.647 189.191 240.425 195.256 250.402 197.995C253.739 198.913 255.97 199.446 256.424 199.414C257.512 199.301 258.11 198.325 258.441 197.255C258.693 196.384 258.828 195.484 258.843 194.578C258.843 194.578 258.843 194.52 258.843 194.415C258.538 192.108 258.057 189.828 257.407 187.594C256.242 183.604 254.225 178.92 250.877 176.682C248.098 174.828 245.889 170.74 244.731 165.988C243.175 159.57 243.534 151.934 247.006 146.935L250.362 139.019L255.974 125.778L259.101 118.399C262.999 114.984 267.998 113.091 273.18 113.066C274.123 113.065 275.065 113.129 275.999 113.258C278.404 113.592 280.483 114.314 281.35 115.736C284.009 120.089 290.056 128.07 291.264 136.051C292.473 144.032 291.025 157.092 295.135 161.932C299.246 166.771 301.665 178.376 306.019 180.796C310.372 183.216 299.006 188.291 299.006 188.291L299.05 189.056L299.246 192.405C299.246 192.405 299.325 192.495 299.47 192.677C302.003 195.811 324.883 225.903 303.842 266.168Z" fill="#FF6584"/>
<path d="M299.489 192.677C294.722 193.674 284.296 195.847 279.645 196.802L278.829 196.968C278.556 197.023 278.252 197.074 277.922 197.121C273.249 197.763 263.113 197.447 258.473 197.259C258.725 196.388 258.861 195.488 258.876 194.581C258.876 194.581 258.876 194.523 258.876 194.418C262.406 194.19 270.771 193.522 277.94 192.049C278.524 191.93 279.101 191.803 279.663 191.686C280.476 191.498 281.266 191.298 282.021 191.088C288.449 189.274 295.237 189.035 299.071 189.071L299.267 192.419C299.267 192.419 299.325 192.495 299.489 192.677Z" fill="#575988"/>
<path d="M279.627 191.672V196.802L278.81 196.968C278.538 197.023 278.234 197.074 277.903 197.121V192.064C278.488 191.93 279.064 191.803 279.627 191.672Z" fill="#FF6584"/>
<path opacity="0.1" d="M284.071 201.496C284.071 201.496 274.366 223.716 268.471 225.892C262.576 228.069 247.884 235.778 247.884 235.778C247.884 235.778 256.318 243.215 265.116 235.053C273.913 226.89 286.61 205.124 284.071 201.496Z" fill="black"/>
<path opacity="0.1" d="M294.682 198.51C294.682 198.51 295.589 206.945 294.319 208.487C293.049 210.028 294.682 198.51 294.682 198.51Z" fill="black"/>
<path opacity="0.1" d="M299.942 204.035C299.942 204.035 304.839 255.368 280.534 255.64C280.534 255.647 303.298 233.057 299.942 204.035Z" fill="black"/>
<path opacity="0.1" d="M306.109 216.37C306.109 216.37 313.093 243.306 303.933 246.389C303.933 246.396 308.739 232.43 306.109 216.37Z" fill="black"/>
<path opacity="0.1" d="M262.667 209.477C262.213 209.477 243.803 212.651 247.793 215.191C251.784 217.73 262.667 209.477 262.667 209.477Z" fill="black"/>
<path opacity="0.1" d="M275.364 173.116C275.364 173.116 290.419 186.448 287.517 187.899L275.364 173.116Z" fill="black"/>
<path opacity="0.1" d="M274.094 177.379C274.094 177.379 282.801 188.08 281.803 188.715L274.094 177.379Z" fill="black"/>
<path opacity="0.1" d="M292.687 175.739C292.687 175.739 296.677 180.727 296.042 181.815L292.687 175.739Z" fill="black"/>
<path opacity="0.1" d="M296.677 173.116C296.677 173.116 302.391 177.553 301.121 179.283L296.677 173.116Z" fill="black"/>
<path d="M264.934 119.063C264.934 119.063 283.526 120.514 282.71 135.478C281.894 150.443 268.018 154.252 268.018 154.252L249.97 149.082C249.97 149.082 258.042 120.06 264.934 119.063Z" fill="#FFC1C7"/>
<path opacity="0.1" d="M209.241 185.661C220.661 189.191 240.44 195.256 250.416 197.995C249.762 198.328 249.046 198.521 248.313 198.562C247.581 198.603 246.847 198.49 246.161 198.231L208.523 185.813L207.05 185.124C207.791 185.259 208.522 185.438 209.241 185.661Z" fill="black"/>
<path opacity="0.1" d="M272.933 148.672C271.167 151.03 269.61 153.57 269.669 155.159C269.698 156.301 268.943 159.215 267.934 162.664C265.337 171.329 261.809 179.688 257.414 187.594C256.249 183.604 254.232 178.92 250.884 176.682C248.105 174.828 245.896 170.74 244.739 165.988C245.62 162.548 246.458 159.657 246.803 158.968C247.71 157.154 249.342 146.815 249.342 146.815C249.496 144.195 249.839 141.589 250.369 139.019C251.686 132.732 253.924 128.498 255.981 125.778C258.462 122.469 260.697 121.33 260.697 121.33L266.048 120.514C272.215 120.307 275.19 124.998 276.623 130.138C278.379 136.527 276.909 143.361 272.933 148.672Z" fill="black"/>
<path d="M259.583 119.872C259.583 119.872 249.516 125.041 248.247 145.357C248.247 145.357 246.614 155.696 245.707 157.509C244.8 159.323 240.447 176.464 240.991 178.55C240.991 178.55 240.084 180.636 236.729 179.729C233.373 178.822 215.234 176.011 211.153 173.29L199.907 167.939C199.907 167.939 177.959 152.431 173.334 165.763C168.708 179.095 195.009 178.558 195.009 178.558L207.435 184.362L245.072 196.78C245.072 196.78 250.061 199.047 253.416 191.792C254.254 189.978 255.15 188.255 256.025 186.687C260.552 178.623 264.178 170.085 266.839 161.228C267.866 157.778 268.602 154.865 268.573 153.722C268.533 152.133 270.093 149.59 271.838 147.236C275.828 141.925 277.28 135.09 275.502 128.698C274.069 123.557 271.08 118.867 264.927 119.077L259.583 119.872Z" fill="#FFC1C7"/>
<path opacity="0.1" d="M133.581 91.7929C132.246 92.4604 131.633 94.5209 131.386 96.8717C131.15 96.8717 130.914 96.8717 130.679 96.8717C125.801 96.8809 121.092 95.0935 117.448 91.8509C117.673 89.3913 117.738 87.3198 117.738 87.3198C117.738 87.3198 137.209 89.979 133.581 91.7929Z" fill="black"/>
<path d="M150.631 76.1935C150.631 80.1398 149.461 83.9974 147.269 87.2786C145.076 90.5598 141.96 93.1172 138.314 94.6273C134.668 96.1375 130.657 96.5326 126.786 95.7628C122.916 94.9929 119.36 93.0926 116.57 90.3022C113.78 87.5117 111.879 83.9565 111.109 80.0861C110.34 76.2157 110.735 72.2039 112.245 68.558C113.755 64.9121 116.312 61.796 119.594 59.6036C122.875 57.4111 126.732 56.2409 130.679 56.2409C135.967 56.2524 141.035 58.3583 144.775 62.0976C148.514 65.837 150.62 70.9053 150.631 76.1935Z" fill="#FFC1C8"/>
<path opacity="0.1" d="M157.372 154.335C157.372 154.335 146.942 158.507 143.677 159.958C140.412 161.409 121.729 158.054 121.729 158.054C121.729 158.054 112.025 153.156 112.841 148.259C113.657 143.361 105.041 127.316 105.041 127.316C105.041 127.316 104.769 113.077 108.578 110.356C112.388 107.635 110.936 101.922 110.936 101.922C110.936 101.922 110.955 101.733 111.013 101.425C111.248 100.213 112.101 97.1293 114.927 96.1171C115.499 95.9632 116.1 95.9471 116.679 96.07C119.389 96.4799 123.84 98.4969 127.523 100.358C130.57 101.9 133.091 103.333 133.668 103.666L133.791 103.735C133.791 103.735 135.152 106.91 136.784 105.912C138.417 104.914 146.579 109.54 148.121 111.626C149.663 113.712 148.574 123.507 148.302 125.955C148.03 128.404 149.844 135.66 151.839 139.824C153.835 143.989 157.372 154.335 157.372 154.335Z" fill="black"/>
<path d="M157.372 153.247C157.372 153.247 146.942 157.419 143.677 158.87C140.412 160.321 121.729 156.965 121.729 156.965C121.729 156.965 112.025 152.068 112.841 147.17C113.657 142.273 105.041 126.227 105.041 126.227C105.041 126.227 104.769 111.989 108.578 109.268C112.388 106.547 110.936 100.833 110.936 100.833C110.936 100.833 110.955 100.645 111.013 100.336C111.248 99.1245 112.101 96.0409 114.927 95.0288C115.499 94.8749 116.1 94.8588 116.679 94.9817C119.389 95.3916 123.84 97.4086 127.523 99.2696C130.57 100.811 133.091 102.244 133.668 102.578L133.791 102.647C133.791 102.647 135.152 105.821 136.784 104.824C138.417 103.826 146.579 108.451 148.121 110.537C149.663 112.623 148.574 122.418 148.302 124.867C148.03 127.316 149.844 134.571 151.839 138.736C153.835 142.901 157.372 153.247 157.372 153.247Z" fill="#DCE6F2"/>
<path d="M123.605 139.316C123.605 139.316 114.655 153.827 113.204 154.615L113.748 159.693C113.748 159.693 126.507 157.031 127.294 153.465C128.081 149.898 127.657 139.135 127.657 139.135L123.605 139.316Z" fill="#575988"/>
<path opacity="0.2" d="M123.605 139.316C123.605 139.316 114.655 153.827 113.204 154.615L113.748 159.693C113.748 159.693 126.507 157.031 127.294 153.465C128.081 149.898 127.657 139.135 127.657 139.135L123.605 139.316Z" fill="black"/>
<path opacity="0.1" d="M136.196 120.829C136.196 120.829 137.782 126.953 140.278 129.039C142.774 131.125 136.196 120.829 136.196 120.829Z" fill="black"/>
<path d="M120.641 136.973C120.869 137.383 128.531 147.813 136.603 151.665C144.675 155.518 162.679 160.056 162.679 160.056C162.679 160.056 177.281 162.777 179.773 163.818C182.265 164.859 185.443 160.19 169.797 153.526C154.15 146.862 151.114 143.913 151.114 143.913C151.114 143.913 137.51 137.285 135.333 134.02C133.156 130.755 120.641 136.973 120.641 136.973Z" fill="#FFC1C8"/>
<path opacity="0.1" d="M126.354 187.71C126.626 187.529 133.156 180.546 133.973 183.539C134.789 186.531 126.354 187.71 126.354 187.71Z" fill="black"/>
<path opacity="0.1" d="M130.164 173.925C130.073 174.197 129.166 181.906 126.536 182.813L130.164 173.925Z" fill="black"/>
<path opacity="0.1" d="M132.884 176.018C132.884 176.018 130.526 184.271 127.533 184.808L132.884 176.018Z" fill="black"/>
<path opacity="0.1" d="M120.913 200.77C120.913 200.77 124.903 200.861 125.447 198.322L120.913 200.77Z" fill="black"/>
<path opacity="0.1" d="M126.354 217.284C126.899 217.375 135.424 222.816 133.247 223.904C131.07 224.993 126.354 217.284 126.354 217.284Z" fill="black"/>
<path opacity="0.1" d="M127.127 263.218V264.056C127.084 265.333 127.065 266.186 127.065 266.186L113.2 272.796L113.139 264.06C113.139 264.06 113.139 264.02 113.139 263.944V263.353L118.689 263.53L127.127 263.218Z" fill="black"/>
<path d="M129.721 275.919L118.156 280.345L112.964 277.276L113.019 273.075L113.139 264.056L118.689 264.234L127.127 263.94V270.256L129.721 275.919Z" fill="#FF748F"/>
<path opacity="0.1" d="M129.71 275.923L118.145 280.349L112.953 277.28L113.008 273.079C113.761 274.066 114.724 274.874 115.826 275.445C116.929 276.015 118.145 276.335 119.385 276.38C119.385 276.38 123.456 271.301 125.934 269.828C126.11 269.723 126.305 269.654 126.508 269.627C126.712 269.599 126.919 269.614 127.116 269.668V270.26L129.71 275.923Z" fill="black"/>
<path d="M119.396 277.102C119.396 277.102 114.68 277.163 112.315 272.676C112.315 272.676 108.952 275.923 108.89 282.768C108.829 289.614 108.952 289.85 108.952 289.85C108.952 289.85 122.523 289.32 125.063 290.263C127.602 291.206 148.904 289.436 148.904 289.436C148.904 289.436 150.319 285.718 143.887 284.419C137.455 283.12 132.144 276.275 131.967 275.981C131.789 275.687 128.426 269.088 125.948 270.539C123.47 271.99 119.396 277.102 119.396 277.102Z" fill="#5D618C"/>
<path opacity="0.1" d="M131.905 54.1514L130.552 53.9663L131.397 53.9446L131.905 54.1514Z" fill="black"/>
<path opacity="0.1" d="M150.631 76.1936C150.632 77.7411 150.453 79.2836 150.098 80.7899C149.795 80.7117 149.505 80.5895 149.238 80.4271C148.85 80.1768 148.462 79.8322 148.005 79.8721C147.737 79.9142 147.486 80.0297 147.279 80.2058C145.132 81.7767 143.535 84.3596 140.923 84.8602C141.185 84.0957 141.22 83.2718 141.025 82.4877C140.471 83.0447 139.792 83.4606 139.043 83.7005C138.295 83.9404 137.501 83.9972 136.726 83.8662C136.915 83.4133 136.937 82.9081 136.788 82.4405C134.948 83.4707 133.034 84.3596 131.06 85.0997C130.991 84.7369 130.925 84.4031 130.856 84.0549C128.078 85.4116 128.295 90.0153 125.516 91.372C123.862 92.181 121.526 91.6006 120.383 93.0589C120.34 93.117 120.3 93.175 120.26 93.2367C117.29 91.4204 114.848 88.8589 113.175 85.8066C111.502 82.7543 110.656 79.3174 110.722 75.8373C110.788 72.3571 111.764 68.9548 113.552 65.9682C115.339 62.9816 117.877 60.5147 120.913 58.8124C123.949 57.1101 127.378 56.2316 130.859 56.2643C134.339 56.2969 137.751 57.2396 140.754 58.9986C143.758 60.7575 146.249 63.2717 147.981 66.2913C149.712 69.3109 150.623 72.7309 150.624 76.2117L150.631 76.1936Z" fill="black"/>
<path d="M131.905 53.4222C130.229 52.7293 128.527 52.0328 126.724 51.826C124.921 51.6192 122.977 51.9711 121.617 53.1719C120.528 54.1296 119.676 55.6678 118.225 55.7113C117.517 55.7367 116.864 55.3812 116.229 55.0728C114.415 54.2022 112.148 53.7088 110.512 54.8624C109.206 55.7875 108.716 57.4853 108.502 59.0706C108.288 60.6559 108.237 62.3356 107.483 63.7322C107.015 64.6029 106.304 65.3139 105.716 66.1084C104.222 68.127 103.52 70.6231 103.743 73.1245C103.894 74.3614 104.159 75.5818 104.533 76.7704L106.014 81.9979C106.765 84.6535 107.53 87.3452 108.959 89.7069C110.389 92.0686 112.587 94.1001 115.272 94.7096C116.89 95.0723 118.849 94.7749 119.756 93.3854C119.988 93.0227 120.136 92.6345 120.39 92.2971C121.515 90.846 123.869 91.4228 125.524 90.6138C128.302 89.2571 128.085 84.6535 130.864 83.2967L131.07 84.3378C133.042 83.5967 134.956 82.7091 136.795 81.6823C136.943 82.1497 136.923 82.6543 136.737 83.108C137.511 83.2372 138.305 83.1795 139.052 82.9397C139.799 82.6999 140.478 82.285 141.032 81.7295C141.228 82.5136 141.192 83.3375 140.931 84.102C143.543 83.5978 145.139 81.0148 147.286 79.444C147.494 79.2705 147.745 79.1564 148.012 79.1139C148.473 79.074 148.857 79.4186 149.245 79.6653C149.918 80.0735 150.709 80.2416 151.489 80.1421C152.269 80.0426 152.992 79.6814 153.541 79.1175C154.683 77.8768 154.734 75.9686 154.368 74.3216C154.001 72.6746 153.28 71.1038 153.124 69.4242C152.895 67.1351 153.693 64.7444 152.96 62.5677C152.34 60.7212 150.715 59.3826 148.97 58.5047C147.225 57.6267 145.342 57.1152 143.561 56.328C141.87 55.5698 140.296 54.554 138.54 53.9555C136.001 53.0884 133.24 53.1574 130.559 53.2299" fill="#794F6A"/>
<path d="M132.249 120.996C132.249 120.996 135.152 101.468 110.302 102.433L97.7859 104.098C97.7859 104.098 109.725 106.246 112.598 106.561L112.903 106.605C115.562 107.091 124.755 106.485 132.249 120.996Z" fill="#92DCE5"/>
<path opacity="0.1" d="M116.378 198.873V198.648C126.568 189.836 116.378 198.873 116.378 198.873Z" fill="black"/>
<path d="M94.4556 199.559C92.9954 199.689 91.5263 199.689 90.0661 199.559L59.5386 155.126C60.1009 153.653 61.4468 152.775 62.7346 152.256L94.4556 199.559Z" fill="#575988"/>
<path d="M74.659 151.984L73.2079 153.708C73.2079 153.708 62.2013 135.424 59.8361 126.137C60.2859 125.081 60.9643 124.856 60.9643 124.856C60.9643 124.856 62.1107 124.011 63.9572 122.679C64.6428 127.047 66.9827 137.727 74.659 151.984Z" fill="#575988"/>
<path d="M82.7308 146.354L79.8286 147.987C71.9056 138.714 71.2308 123.137 71.3034 116.93L73.3929 115.428C73.6759 123.579 82.7308 146.354 82.7308 146.354Z" fill="#575988"/>
<path opacity="0.1" d="M90.349 144.729C90.2583 145.908 86.9027 157.879 91.8001 159.875C96.6976 161.87 90.349 144.729 90.349 144.729Z" fill="black"/>
<path opacity="0.1" d="M100.869 165.316C101.051 165.951 102.683 186.629 106.22 184.997C109.757 183.364 107.853 159.784 107.853 159.784L100.869 165.316Z" fill="black"/>
<path opacity="0.1" d="M269.498 83.8118C269.505 89.6836 267.232 95.3287 263.157 99.5562C261.497 99.9078 259.785 99.9374 258.114 99.6433C257.26 99.5351 256.448 99.209 255.756 98.6964C255.09 98.0819 254.568 97.3274 254.229 96.4871C252.905 93.6394 252.226 90.349 250.369 87.9112C248.511 85.4733 244.742 84.4031 242.95 86.9026C241.974 88.2594 241.811 90.3454 240.509 91.285C238.945 92.4168 236.881 91.0854 235.666 89.4711C232.074 84.755 233.304 75.4825 226.455 74.1801L226.179 74.133C228.375 69.4498 232.103 65.6555 236.747 63.3766C241.39 61.0978 246.672 60.4705 251.72 61.5984C256.769 62.7264 261.281 65.542 264.513 69.5806C267.745 73.6192 269.504 78.6391 269.498 83.8118Z" fill="black"/>
<path d="M226.818 73.8428C225.707 73.6287 224.42 73.6577 223.676 72.7C223.237 72.1341 223.11 71.3505 223.005 70.6068C222.559 67.3926 222.316 63.9426 223.596 61.0296C225.697 56.2518 231.102 54.6556 235.8 55.0111C240.498 55.3667 245.109 57.1189 249.807 56.825C253.26 56.6001 256.667 55.2651 260.109 55.646C262.834 55.9507 265.373 57.3039 267.822 58.686C270.115 59.9775 272.458 61.3669 274.083 63.6089C276.47 66.892 276.92 71.4267 276.986 75.682C277.065 80.6774 276.714 85.8651 274.617 90.2619C271.577 96.6431 264.796 100.441 258.477 99.2987C257.623 99.1905 256.811 98.8644 256.119 98.3518C255.455 97.7362 254.935 96.9819 254.595 96.1425C253.267 93.2911 252.589 90.0044 250.732 87.5629C248.874 85.1214 245.105 84.0585 243.313 86.558C242.337 87.9112 242.174 90.0007 240.871 90.9403C239.308 92.0686 237.244 90.7372 236.028 89.1265C232.437 84.4068 233.667 75.1415 226.818 73.8428Z" fill="#945B79"/>
<path d="M282.025 63.2969C285.482 64.9475 287.88 68.1617 290.133 71.2562C292.008 73.8283 293.949 76.5781 294.196 79.7487C294.294 81.0475 294.101 82.368 294.348 83.6449C295.215 88.1542 300.878 90.1749 302.532 94.4701C303.301 96.4944 303.058 98.7472 302.721 100.888C302.236 103.984 301.583 107.051 300.766 110.077C300.276 111.891 299.721 113.777 300.094 115.62C300.381 117.049 301.183 118.304 301.821 119.61C303.486 123.133 303.773 127.127 303.9 131.02C304.027 134.912 304.023 138.874 305.188 142.589C306.352 146.303 308.921 149.815 312.625 151.016C311.381 151.864 309.938 152.376 308.438 152.503C308.217 153.718 308.91 154.956 309.889 155.725C310.869 156.494 312.066 156.893 313.234 157.274C312.437 157.836 311.52 158.206 310.556 158.355C309.592 158.503 308.606 158.426 307.676 158.13C306.127 157.622 304.847 156.534 303.61 155.467L296.655 149.485C295.726 148.733 294.868 147.897 294.09 146.989C289.592 141.399 292.277 132.928 289.766 126.213C287.72 120.753 282.22 116.32 282.725 110.512C282.863 108.887 283.487 107.349 284.009 105.796C285.862 100.163 286.444 94.1891 285.713 88.3042C284.982 82.4193 282.957 76.7694 279.783 71.7604C278.988 70.527 278.067 69.2863 276.743 68.6515C274.729 67.6901 271.852 68.1037 270.71 66.1846C270.104 65.1724 269.984 63.3912 269.93 62.2557C273.623 61.4105 278.571 61.6463 282.025 63.2969Z" fill="#945B79"/>
<path opacity="0.1" d="M105.357 124.718C107.055 113.559 121.003 109.529 128.408 118.058C130.548 120.532 132.445 123.242 133.519 125.952C137.147 135.112 137.419 135.928 137.419 135.928C137.419 135.928 115.018 140.281 115.199 143.546L105.041 127.312C105.041 127.312 105.118 126.296 105.357 124.718Z" fill="black"/>
<path d="M105.357 123.63C107.055 112.471 121.003 108.441 128.408 116.969C130.548 119.444 132.445 122.153 133.519 124.863C137.147 134.023 137.419 134.84 137.419 134.84C137.419 134.84 115.018 139.193 115.199 142.458L105.041 126.224C105.041 126.224 105.118 125.208 105.357 123.63Z" fill="#DCE6F2"/>
<path opacity="0.1" d="M111.662 109.311C111.934 109.765 122.636 122.825 128.259 124.686C133.882 126.547 111.662 109.311 111.662 109.311Z" fill="black"/>
<path opacity="0.1" d="M65.6804 151.531C65.6804 151.531 93.9768 184.906 97.6045 198.42L65.6804 151.531Z" fill="black"/>
<path opacity="0.1" d="M66.7687 120.695C66.7687 120.695 72.9358 152.619 84.9074 166.042C96.879 179.465 109.213 202.319 109.213 202.319" stroke="black" stroke-width="2" stroke-miterlimit="10"/>
<g opacity="0.1">
<path d="M154.201 74.2491C154.225 75.3101 153.859 76.3431 153.171 77.1513C152.622 77.7151 151.899 78.0763 151.119 78.1758C150.339 78.2753 149.548 78.1072 148.875 77.6991C148.487 77.4524 148.103 77.1077 147.642 77.1476C147.375 77.1901 147.124 77.3042 146.916 77.4778C144.874 78.9724 143.329 81.3812 140.931 82.0451C141.016 82.686 140.951 83.3379 140.742 83.9497C143.354 83.4454 144.95 80.8625 147.098 79.2916C147.305 79.1181 147.556 79.004 147.823 78.9615C148.284 78.9216 148.669 79.2662 149.057 79.5129C149.729 79.9211 150.52 80.0892 151.3 79.9897C152.08 79.8902 152.804 79.529 153.352 78.9651C154.473 77.7317 154.542 75.8743 154.201 74.2491Z" fill="black"/>
<path d="M152.754 67.4434C152.783 67.7409 152.833 68.0347 152.891 68.3286C152.891 66.5147 153.323 64.6283 152.891 62.887C152.899 64.3671 152.601 65.9343 152.754 67.4434Z" fill="black"/>
<path d="M140.669 79.7487C140.115 80.3042 139.436 80.7191 138.689 80.9589C137.942 81.1987 137.148 81.2565 136.374 81.1273C136.56 80.6735 136.58 80.1689 136.432 79.7016C134.593 80.7283 132.679 81.616 130.708 82.3571L130.501 81.3159C127.722 82.6727 127.94 87.2763 125.161 88.6331C123.507 89.4421 121.17 88.858 120.028 90.3164C119.774 90.6465 119.625 91.0419 119.393 91.4047C118.486 92.7941 116.527 93.0952 114.909 92.7288C112.217 92.1193 110.022 90.0878 108.597 87.7261C107.171 85.3645 106.402 82.6727 105.651 80.0172L104.171 74.7896C103.928 73.9189 103.681 73.0483 103.521 72.1595C103.521 72.4279 103.521 72.6928 103.561 72.9576C103.713 74.1945 103.978 75.4149 104.352 76.6035L105.832 81.8311C106.583 84.4866 107.349 87.1784 108.778 89.54C110.207 91.9017 112.406 93.9332 115.09 94.5427C116.708 94.9055 118.667 94.608 119.574 93.2185C119.806 92.8558 119.955 92.4676 120.209 92.1302C121.334 90.6791 123.688 91.2559 125.342 90.447C128.121 89.0902 127.903 84.4866 130.682 83.1298L130.889 84.171C132.857 83.4294 134.767 82.5417 136.603 81.5154C136.751 81.9828 136.73 82.4874 136.545 82.9412C137.281 83.063 138.035 83.0159 138.75 82.8035C139.465 82.591 140.123 82.2188 140.673 81.715C140.828 81.0685 140.827 80.3946 140.669 79.7487Z" fill="black"/>
</g>
<path opacity="0.1" d="M133.668 103.666C131.716 104.791 127.182 107.294 126.264 106.866C125.284 106.413 114.597 102.672 111.027 101.425C111.263 100.213 112.115 97.1293 114.942 96.1171C115.514 95.9632 116.114 95.9471 116.694 96.07L127.533 100.358C130.57 101.9 133.091 103.333 133.668 103.666Z" fill="black"/>
<path d="M133.668 102.578C131.716 103.703 127.182 106.206 126.264 105.778C125.284 105.324 114.597 101.584 111.027 100.336C111.263 99.1245 112.115 96.0409 114.942 95.0288C115.514 94.8749 116.114 94.8588 116.694 94.9817L127.533 99.2696C130.57 100.811 133.091 102.244 133.668 102.578Z" fill="#DCE6F2"/>
<path opacity="0.1" d="M276.997 75.2503C276.891 79.3388 276.336 83.4273 274.635 87.0006C271.595 93.3818 264.815 97.18 258.495 96.0373C257.641 95.9291 256.829 95.603 256.137 95.0905C255.473 94.4748 254.953 93.7205 254.613 92.8812C253.286 90.0298 252.607 86.743 250.75 84.3016C248.892 81.8601 245.123 80.7971 243.331 83.2967C242.355 84.6498 242.192 86.7394 240.89 87.679C239.326 88.8072 237.262 87.4758 236.047 85.8651C232.455 81.149 233.685 71.8729 226.836 70.5742C225.726 70.3601 224.438 70.3891 223.694 69.4314C223.255 68.8655 223.128 68.0819 223.023 67.3382C222.9 66.4639 222.794 65.5715 222.733 64.6754C222.607 66.656 222.704 68.6444 223.023 70.6032C223.128 71.3469 223.255 72.1305 223.694 72.6964C224.438 73.6541 225.726 73.6251 226.836 73.8391C233.685 75.1379 232.455 84.4031 236.047 89.1301C237.258 90.7227 239.311 92.054 240.89 90.944C242.192 90.0044 242.341 87.9148 243.331 86.5616C245.123 84.0621 248.892 85.1287 250.75 87.5665C252.607 90.0044 253.289 93.2947 254.613 96.1461C254.953 96.9855 255.473 97.7398 256.137 98.3554C256.829 98.868 257.641 99.1941 258.495 99.3023C264.815 100.445 271.595 96.6468 274.635 90.2656C276.732 85.8687 277.084 80.6811 277.004 75.6857C276.997 75.526 276.997 75.3809 276.997 75.2503Z" fill="black"/>
<g opacity="0.1">
<path d="M300.718 92.6635C301.487 94.6878 301.244 96.9406 300.907 99.081C300.422 102.175 299.769 105.24 298.952 108.263C298.462 110.077 297.907 111.963 298.28 113.806C298.567 115.235 299.369 116.491 300.007 117.797C301.672 121.319 301.959 125.313 302.086 129.206C302.213 133.098 302.209 137.06 303.374 140.775C304.128 143.306 305.57 145.579 307.539 147.341C306.498 145.947 305.703 144.387 305.188 142.726C304.023 139.012 304.023 135.05 303.9 131.158C303.777 127.265 303.486 123.271 301.821 119.752C301.197 118.435 300.37 117.18 300.094 115.761C299.732 113.918 300.276 112.028 300.766 110.215C301.584 107.183 302.237 104.11 302.721 101.007C303.058 98.867 303.301 96.6105 302.532 94.5862C301.912 92.9646 300.718 91.684 299.423 90.4397C299.966 91.1107 300.402 91.8606 300.718 92.6635Z" fill="black"/>
<path d="M312.625 151.161C311.655 150.84 310.744 150.365 309.926 149.753C308.899 150.287 307.777 150.613 306.624 150.711C306.403 151.926 307.096 153.163 308.075 153.933C308.27 154.089 308.476 154.231 308.692 154.357C308.44 153.825 308.355 153.229 308.449 152.648C309.945 152.516 311.382 152.004 312.625 151.161Z" fill="black"/>
<path d="M274.918 66.8666C273.536 66.2064 271.747 66.1918 270.39 65.6295C270.467 65.8816 270.571 66.1249 270.699 66.3551C271.841 68.2705 274.718 67.857 276.732 68.822C276.986 68.9496 277.229 69.0989 277.457 69.2682C276.828 68.2653 275.954 67.4389 274.918 66.8666Z" fill="black"/>
<path d="M310.238 156.149C308.848 156.742 307.291 156.815 305.852 156.356C304.303 155.848 303.022 154.76 301.785 153.693L294.83 147.711C294.5 147.428 294.174 147.141 293.855 146.851C293.927 146.949 294 147.051 294.08 147.149C294.856 148.058 295.714 148.893 296.644 149.645L303.599 155.63C304.836 156.693 306.116 157.785 307.665 158.293C308.595 158.589 309.581 158.665 310.545 158.516C311.51 158.367 312.426 157.996 313.223 157.433C312.173 157.146 311.168 156.713 310.238 156.149Z" fill="black"/>
<path d="M288.319 69.4459C290.194 72.018 292.135 74.7678 292.382 77.9385C292.48 79.2372 292.287 80.5577 292.534 81.8347C292.926 83.8771 294.308 85.4116 295.854 86.8736C295.107 85.9777 294.59 84.9129 294.348 83.7719C294.101 82.4913 294.294 81.1708 294.196 79.8721C293.949 76.7014 292.019 73.9516 290.133 71.3832C288.769 69.5076 287.346 67.5922 285.674 66.0032C286.606 67.106 287.473 68.2814 288.319 69.4459Z" fill="black"/>
</g>
<path opacity="0.1" d="M272.404 61.9256C272.404 61.9256 270.227 65.5534 276.394 68.5753L276.757 67.6067L272.404 61.9256Z" fill="black"/>
<path d="M272.041 61.9256C272.041 61.9256 269.864 65.5534 276.032 68.5753L276.394 67.6067L272.041 61.9256Z" fill="#FF6584"/>
<path d="M357.913 267.252C357.913 267.252 359.909 269.861 356.996 273.782C354.083 277.704 351.681 281.038 352.642 283.494C352.642 283.494 357.039 276.184 360.623 276.082C364.208 275.981 361.85 271.649 357.913 267.252Z" fill="#92DCE5"/>
<path opacity="0.1" d="M357.913 267.252C358.087 267.504 358.225 267.779 358.323 268.069C361.813 272.172 363.671 275.999 360.315 276.093C357.191 276.184 353.444 281.771 352.544 283.182C352.573 283.291 352.61 283.396 352.65 283.505C352.65 283.505 357.046 276.195 360.631 276.093C364.215 275.992 361.849 271.649 357.913 267.252Z" fill="black"/>
<path d="M361.621 270.575C361.621 271.493 361.516 272.237 361.389 272.237C361.262 272.237 361.16 271.511 361.16 270.575C361.16 269.639 361.287 270.089 361.414 270.089C361.541 270.089 361.621 269.658 361.621 270.575Z" fill="#FFD037"/>
<path d="M362.891 271.671C362.085 272.11 361.382 272.375 361.323 272.262C361.265 272.15 361.864 271.704 362.669 271.265C363.475 270.826 363.159 271.145 363.221 271.265C363.282 271.384 363.7 271.232 362.891 271.671Z" fill="#FFD037"/>
<path d="M347.375 267.252C347.375 267.252 345.38 269.861 348.293 273.782C351.206 277.704 353.607 281.038 352.646 283.494C352.646 283.494 348.253 276.184 344.665 276.082C341.077 275.981 343.453 271.649 347.375 267.252Z" fill="#92DCE5"/>
<path opacity="0.1" d="M347.375 267.252C347.201 267.504 347.063 267.779 346.965 268.069C343.475 272.172 341.618 275.999 344.973 276.093C348.097 276.184 351.844 281.771 352.744 283.182C352.714 283.292 352.678 283.399 352.635 283.505C352.635 283.505 348.242 276.195 344.654 276.093C341.066 275.992 343.453 271.649 347.375 267.252Z" fill="black"/>
<path d="M343.682 270.575C343.682 271.493 343.787 272.237 343.914 272.237C344.041 272.237 344.142 271.511 344.142 270.575C344.142 269.639 344.016 270.089 343.889 270.089C343.762 270.089 343.682 269.658 343.682 270.575Z" fill="#FFD037"/>
<path d="M342.412 271.671C343.217 272.11 343.918 272.375 343.979 272.262C344.041 272.15 343.439 271.704 342.633 271.265C341.828 270.826 342.144 271.145 342.082 271.265C342.02 271.384 341.607 271.232 342.412 271.671Z" fill="#FFD037"/>
<path d="M344.317 283.164C344.317 283.164 349.889 282.99 351.572 281.796C353.255 280.602 360.144 279.17 360.562 281.07C360.979 282.971 368.935 290.608 362.644 290.659C356.353 290.709 348.028 289.679 346.352 288.66C344.676 287.64 344.317 283.164 344.317 283.164Z" fill="#A8A8A8"/>
<path opacity="0.2" d="M362.753 290.013C356.462 290.064 348.137 289.033 346.461 288.014C345.184 287.234 344.676 284.444 344.505 283.16H344.317C344.317 283.16 344.679 287.655 346.348 288.678C348.017 289.701 356.35 290.728 362.64 290.677C364.454 290.677 365.082 290.017 365.049 289.059C364.788 289.65 364.102 290.013 362.753 290.013Z" fill="black"/>
<path d="M95.2791 276.768C95.9452 276.226 96.431 275.495 96.6722 274.671C96.8499 273.837 96.4944 272.836 95.6999 272.531C94.8075 272.19 93.8534 272.81 93.1315 273.434C92.4096 274.058 91.5788 274.773 90.632 274.638C91.1189 274.198 91.4832 273.638 91.6892 273.014C91.8952 272.39 91.9359 271.724 91.8074 271.08C91.7661 270.813 91.6532 270.562 91.4809 270.354C90.9875 269.824 90.0878 270.053 89.4929 270.47C87.6064 271.794 87.0804 274.359 87.0731 276.663C86.8809 275.832 87.0405 274.965 87.0369 274.123C87.0332 273.282 86.7974 272.309 86.0791 271.867C85.6355 271.621 85.1351 271.496 84.6281 271.504C83.7792 271.471 82.8359 271.559 82.2555 272.179C81.53 272.948 81.7222 274.243 82.3498 275.081C82.9774 275.919 83.9279 276.463 84.8022 277.047C85.5058 277.466 86.106 278.037 86.558 278.72C86.6109 278.816 86.6546 278.917 86.6886 279.021H91.9815C93.1775 278.422 94.2868 277.665 95.2791 276.768Z" fill="#92DCE5"/>
<path d="M53.0413 282.489C53.0413 282.489 47.9624 265.185 53.9954 252.444C56.5675 247.117 57.344 241.101 56.2083 235.296C55.6447 232.544 54.8311 229.849 53.7777 227.246" stroke="#535461" stroke-width="2" stroke-miterlimit="10"/>
<path d="M57.5469 219.196C57.5469 221.314 53.7052 227.467 53.7052 227.467C53.7052 227.467 49.8634 221.3 49.8634 219.196C49.8634 218.177 50.2681 217.2 50.9886 216.479C51.7091 215.759 52.6863 215.354 53.7052 215.354C54.7241 215.354 55.7012 215.759 56.4217 216.479C57.1422 217.2 57.5469 218.177 57.5469 219.196Z" fill="#92DCE5"/>
<path d="M63.8955 230.942C62.7419 232.724 56.1757 235.8 56.1757 235.8C56.1757 235.8 56.2917 228.544 57.4454 226.77C58.0091 225.939 58.876 225.362 59.8603 225.162C60.8446 224.962 61.868 225.155 62.7113 225.701C63.5547 226.246 64.1509 227.1 64.3722 228.08C64.5935 229.06 64.4224 230.087 63.8955 230.942Z" fill="#92DCE5"/>
<path d="M63.6162 251.022C61.7225 251.976 54.4996 251.316 54.4996 251.316C54.4996 251.316 58.2652 245.12 60.1589 244.162C60.6105 243.923 61.1054 243.776 61.6144 243.73C62.1234 243.685 62.6364 243.741 63.1233 243.896C63.6102 244.052 64.0613 244.302 64.4501 244.634C64.8389 244.966 65.1576 245.372 65.3876 245.828C65.6176 246.284 65.7543 246.782 65.7895 247.292C65.8248 247.802 65.758 248.313 65.593 248.797C65.4281 249.281 65.1682 249.727 64.8288 250.109C64.4893 250.491 64.0771 250.801 63.6162 251.022Z" fill="#92DCE5"/>
<path d="M59.9848 266.164C58.2798 267.427 51.0497 267.978 51.0497 267.978C51.0497 267.978 53.7124 261.234 55.4029 259.972C55.8054 259.642 56.2707 259.397 56.7706 259.252C57.2706 259.108 57.7946 259.066 58.3111 259.13C58.8276 259.194 59.3256 259.362 59.7751 259.625C60.2245 259.887 60.616 260.238 60.9257 260.656C61.2354 261.074 61.457 261.551 61.5769 262.058C61.6967 262.564 61.7125 263.09 61.6231 263.602C61.5338 264.115 61.3412 264.604 61.0571 265.04C60.773 265.476 60.4032 265.85 59.9703 266.139L59.9848 266.164Z" fill="#92DCE5"/>
<path d="M48.1112 236.21C49.6312 237.69 56.7198 239.221 56.7198 239.221C56.7198 239.221 54.9821 232.179 53.4548 230.699C53.0962 230.333 52.6679 230.042 52.195 229.843C51.7221 229.645 51.2143 229.543 50.7016 229.544C50.1888 229.545 49.6814 229.649 49.2093 229.849C48.7372 230.049 48.3099 230.342 47.9527 230.71C47.5954 231.078 47.3155 231.513 47.1293 231.991C46.9431 232.469 46.8544 232.979 46.8685 233.492C46.8826 234.004 46.9992 234.509 47.2114 234.976C47.4235 235.442 47.727 235.862 48.1039 236.21H48.1112Z" fill="#92DCE5"/>
<path d="M44.0953 253.975C45.9889 254.929 53.2118 254.272 53.2118 254.272C53.2118 254.272 49.4498 248.073 47.5525 247.118C47.1023 246.891 46.6118 246.755 46.109 246.718C45.6062 246.68 45.1009 246.742 44.6221 246.9C44.1432 247.058 43.7001 247.309 43.3181 247.638C42.9361 247.967 42.6227 248.368 42.3957 248.818C42.1687 249.268 42.0325 249.759 41.9951 250.262C41.9577 250.764 42.0196 251.27 42.1774 251.748C42.3353 252.227 42.5859 252.67 42.9149 253.052C43.244 253.434 43.6451 253.748 44.0953 253.975Z" fill="#92DCE5"/>
<path d="M42.5498 271.78C44.2549 273.039 51.485 273.594 51.485 273.594C51.485 273.594 48.8222 266.846 47.1317 265.584C46.3112 265.036 45.3118 264.826 44.3402 264.995C43.3686 265.164 42.4994 265.701 41.9125 266.493C41.3255 267.286 41.0658 268.274 41.1872 269.252C41.3085 270.231 41.8016 271.126 42.5643 271.751L42.5498 271.78Z" fill="#92DCE5"/>
<path d="M57.5469 219.196C57.5469 221.314 53.7052 227.467 53.7052 227.467C53.7052 227.467 49.8634 221.3 49.8634 219.196C49.8634 218.177 50.2681 217.2 50.9886 216.479C51.7091 215.759 52.6863 215.354 53.7052 215.354C54.7241 215.354 55.7012 215.759 56.4217 216.479C57.1422 217.2 57.5469 218.177 57.5469 219.196Z" fill="#92DCE5"/>
<path d="M63.8955 230.942C62.7419 232.724 56.1757 235.8 56.1757 235.8C56.1757 235.8 56.2917 228.544 57.4454 226.77C58.0091 225.939 58.876 225.362 59.8603 225.162C60.8446 224.962 61.868 225.155 62.7113 225.701C63.5547 226.246 64.1509 227.1 64.3722 228.08C64.5935 229.06 64.4224 230.087 63.8955 230.942Z" fill="#92DCE5"/>
<path d="M63.6162 251.022C61.7225 251.976 54.4996 251.316 54.4996 251.316C54.4996 251.316 58.2652 245.12 60.1589 244.162C60.6105 243.923 61.1054 243.776 61.6144 243.73C62.1234 243.685 62.6364 243.741 63.1233 243.896C63.6102 244.052 64.0613 244.302 64.4501 244.634C64.8389 244.966 65.1576 245.372 65.3876 245.828C65.6176 246.284 65.7543 246.782 65.7895 247.292C65.8248 247.802 65.758 248.313 65.593 248.797C65.4281 249.281 65.1682 249.727 64.8288 250.109C64.4893 250.491 64.0771 250.801 63.6162 251.022Z" fill="#92DCE5"/>
<path d="M59.9848 266.164C58.2798 267.427 51.0497 267.978 51.0497 267.978C51.0497 267.978 53.7124 261.234 55.4029 259.972C55.8054 259.642 56.2707 259.397 56.7706 259.252C57.2706 259.108 57.7946 259.066 58.3111 259.13C58.8276 259.194 59.3256 259.362 59.7751 259.625C60.2245 259.887 60.616 260.238 60.9257 260.656C61.2354 261.074 61.457 261.551 61.5769 262.058C61.6967 262.564 61.7125 263.09 61.6231 263.602C61.5338 264.115 61.3412 264.604 61.0571 265.04C60.773 265.476 60.4032 265.85 59.9703 266.139L59.9848 266.164Z" fill="#92DCE5"/>
<path d="M48.1112 236.21C49.6312 237.69 56.7198 239.221 56.7198 239.221C56.7198 239.221 54.9821 232.179 53.4548 230.699C53.0962 230.333 52.6679 230.042 52.195 229.843C51.7221 229.645 51.2143 229.543 50.7016 229.544C50.1888 229.545 49.6814 229.649 49.2093 229.849C48.7372 230.049 48.3099 230.342 47.9527 230.71C47.5954 231.078 47.3155 231.513 47.1293 231.991C46.9431 232.469 46.8544 232.979 46.8685 233.492C46.8826 234.004 46.9992 234.509 47.2114 234.976C47.4235 235.442 47.727 235.862 48.1039 236.21H48.1112Z" fill="#92DCE5"/>
<path d="M44.0953 253.975C45.9889 254.929 53.2118 254.272 53.2118 254.272C53.2118 254.272 49.4498 248.073 47.5525 247.118C47.1023 246.891 46.6118 246.755 46.109 246.718C45.6062 246.68 45.1009 246.742 44.6221 246.9C44.1432 247.058 43.7001 247.309 43.3181 247.638C42.9361 247.967 42.6227 248.368 42.3957 248.818C42.1687 249.268 42.0325 249.759 41.9951 250.262C41.9577 250.764 42.0196 251.27 42.1774 251.748C42.3353 252.227 42.5859 252.67 42.9149 253.052C43.244 253.434 43.6451 253.748 44.0953 253.975Z" fill="#92DCE5"/>
<path d="M42.5498 271.78C44.2549 273.039 51.485 273.594 51.485 273.594C51.485 273.594 48.8222 266.846 47.1317 265.584C46.3112 265.036 45.3118 264.826 44.3402 264.995C43.3686 265.164 42.4994 265.701 41.9125 266.493C41.3255 267.286 41.0658 268.274 41.1872 269.252C41.3085 270.231 41.8016 271.126 42.5643 271.751L42.5498 271.78Z" fill="#92DCE5"/>
<path d="M40.9935 281.401C40.9935 281.401 47.2006 280.167 48.8549 278.524C50.5091 276.88 57.9605 274.004 58.7876 276.057C59.6147 278.11 69.9611 285.097 62.9269 286.331C55.8927 287.564 46.3735 287.974 44.302 287.151C42.2306 286.327 40.9935 281.401 40.9935 281.401Z" fill="#A8A8A8"/>
<path opacity="0.2" d="M62.9269 285.565C55.8891 286.799 46.3735 287.209 44.302 286.389C42.7276 285.761 41.632 282.761 41.2003 281.357L40.9935 281.401C40.9935 281.401 42.2342 286.331 44.302 287.151C46.3699 287.97 55.8891 287.564 62.9269 286.331C64.9548 285.968 65.5352 285.137 65.3176 284.082C65.1362 284.771 64.436 285.297 62.9269 285.565Z" fill="black"/>
</g>
<defs>
<linearGradient id="paint0_linear_13_376" x1="186.245" y1="292.527" x2="186.245" y2="49.8017" gradientUnits="userSpaceOnUse">
<stop stop-color="#808080" stop-opacity="0.25"/>
<stop offset="0.54" stop-color="#808080" stop-opacity="0.12"/>
<stop offset="1" stop-color="#808080" stop-opacity="0.1"/>
</linearGradient>
<clipPath id="clip0_13_376">
<rect width="398" height="297.784" fill="white"/>
</clipPath>
</defs>
</svg>
