<svg width="398" height="235" viewBox="0 0 398 235" fill="none" xmlns="http://www.w3.org/2000/svg">
<g clip-path="url(#clip0_23_1275)">
<path d="M64.4358 26.6584C61.2406 26.662 58.1773 27.9329 55.918 30.1922C53.6586 32.4516 52.3878 35.5149 52.3842 38.7101V169.732C52.3878 172.927 53.6586 175.991 55.918 178.25C58.1773 180.509 61.2406 181.78 64.4358 181.784H336.011C339.206 181.78 342.269 180.509 344.529 178.25C346.788 175.991 348.059 172.927 348.062 169.732V38.7101C348.059 35.5149 346.788 32.4516 344.529 30.1922C342.269 27.9329 339.206 26.662 336.011 26.6584H64.4358Z" fill="white"/>
<path d="M336.011 182.254H64.4358C61.116 182.25 57.9332 180.93 55.5858 178.582C53.2383 176.235 51.9178 173.052 51.9141 169.732V38.7101C51.9178 35.3902 53.2383 32.2075 55.5858 29.86C57.9332 27.5125 61.116 26.1921 64.4358 26.1883H336.011C339.331 26.1921 342.513 27.5125 344.861 29.86C347.208 32.2075 348.529 35.3902 348.533 38.7101V169.732C348.529 173.052 347.208 176.235 344.861 178.582C342.513 180.93 339.331 182.25 336.011 182.254ZM64.4358 27.1285C61.3652 27.1319 58.4214 28.3532 56.2502 30.5244C54.079 32.6957 52.8577 35.6395 52.8542 38.7101V169.732C52.8577 172.803 54.079 175.746 56.2502 177.918C58.4214 180.089 61.3652 181.31 64.4358 181.314H336.011C339.081 181.31 342.025 180.089 344.196 177.918C346.368 175.746 347.589 172.803 347.592 169.732V38.7101C347.589 35.6395 346.368 32.6957 344.196 30.5244C342.025 28.3532 339.081 27.1319 336.011 27.1285H64.4358Z" fill="#3F3D56"/>
<path d="M142.797 174.915C142.817 174.389 141.206 173.897 139.196 173.818C137.187 173.738 135.541 174.1 135.521 174.626C135.5 175.152 137.112 175.643 139.121 175.723C141.13 175.803 142.776 175.441 142.797 174.915Z" fill="#E6E6E6"/>
<path d="M165.973 173.687C165.993 173.161 164.382 172.67 162.372 172.59C160.363 172.511 158.717 172.872 158.697 173.399C158.676 173.925 160.288 174.416 162.297 174.495C164.306 174.575 165.952 174.213 165.973 173.687Z" fill="#3F3D56"/>
<path d="M133.892 167.763C133.913 167.237 132.301 166.746 130.292 166.667C128.282 166.587 126.637 166.949 126.616 167.475C126.595 168.001 128.207 168.492 130.216 168.572C132.225 168.651 133.871 168.29 133.892 167.763Z" fill="#FF6584"/>
<path d="M122.698 165.151C122.751 164.681 122.074 164.218 121.185 164.117C120.297 164.016 119.533 164.314 119.479 164.784C119.426 165.254 120.103 165.717 120.992 165.818C121.88 165.919 122.644 165.621 122.698 165.151Z" fill="#E6E6E6"/>
<path d="M117.349 159.673C117.403 159.203 116.726 158.741 115.837 158.639C114.948 158.538 114.184 158.837 114.131 159.306C114.077 159.776 114.754 160.239 115.643 160.34C116.532 160.441 117.296 160.143 117.349 159.673Z" fill="#3F3D56"/>
<path d="M147.576 169C147.629 168.53 146.952 168.068 146.063 167.966C145.175 167.865 144.411 168.164 144.357 168.633C144.304 169.103 144.981 169.566 145.87 169.667C146.758 169.769 147.522 169.47 147.576 169Z" fill="#E6E6E6"/>
<path d="M136.969 171.331C137.022 170.861 136.345 170.399 135.456 170.297C134.568 170.196 133.804 170.495 133.75 170.964C133.697 171.434 134.374 171.897 135.263 171.998C136.151 172.099 136.915 171.801 136.969 171.331Z" fill="#FF6584"/>
<path d="M154.125 175.086C154.179 174.616 153.502 174.153 152.613 174.052C151.724 173.951 150.96 174.249 150.907 174.719C150.853 175.189 151.53 175.652 152.419 175.753C153.308 175.854 154.072 175.556 154.125 175.086Z" fill="#3F3D56"/>
<path d="M2.4759e-06 155.648C-0.000216613 155.722 0.0141065 155.795 0.0421427 155.863C0.0701789 155.931 0.111379 155.992 0.16337 156.044C0.215361 156.096 0.277115 156.138 0.345086 156.166C0.413057 156.194 0.4859 156.208 0.559424 156.208H397.441C397.589 156.208 397.731 156.149 397.836 156.044C397.941 155.939 398 155.797 398 155.648C398 155.5 397.941 155.358 397.836 155.253C397.731 155.148 397.589 155.089 397.441 155.089H0.559395C0.485874 155.089 0.413038 155.103 0.345072 155.131C0.277105 155.159 0.215351 155.2 0.163363 155.252C0.111376 155.304 0.070178 155.366 0.0421427 155.434C0.0141074 155.502 -0.000214099 155.575 2.4759e-06 155.648Z" fill="#CCCCCC"/>
<path d="M135.659 145.765C135.388 145.778 135.121 145.707 134.892 145.562C134.664 145.417 134.485 145.206 134.381 144.956C134.276 144.706 134.251 144.431 134.309 144.166C134.366 143.902 134.504 143.662 134.702 143.478L134.793 143.118C134.781 143.09 134.769 143.061 134.757 143.032C134.485 142.389 134.028 141.84 133.445 141.456C132.862 141.071 132.179 140.867 131.48 140.87C130.782 140.872 130.1 141.081 129.519 141.47C128.939 141.859 128.487 142.411 128.22 143.056C127.15 145.631 125.789 148.211 125.454 150.934C125.306 152.137 125.369 153.357 125.638 154.54C123.127 149.062 121.823 143.108 121.814 137.081C121.814 135.569 121.898 134.058 122.066 132.555C122.205 131.323 122.398 130.1 122.644 128.886C123.99 122.296 126.88 116.12 131.077 110.864C133.108 109.756 134.75 108.052 135.783 105.981C136.157 105.237 136.422 104.443 136.568 103.623C136.339 103.653 135.704 100.163 135.877 99.9492C135.558 99.4647 134.986 99.2239 134.637 98.7511C132.903 96.3997 130.514 96.8102 129.266 100.006C126.602 101.35 126.576 103.581 128.211 105.726C129.251 107.091 129.394 108.937 130.307 110.399C130.213 110.519 130.115 110.635 130.021 110.755C128.305 112.963 126.809 115.333 125.555 117.832C125.86 115.032 125.495 112.2 124.492 109.568C123.476 107.116 121.57 105.05 119.892 102.93C117.877 100.384 113.743 101.495 113.388 104.723C113.385 104.755 113.382 104.786 113.378 104.817C113.628 104.958 113.872 105.107 114.11 105.265C114.41 105.465 114.643 105.751 114.777 106.086C114.911 106.421 114.942 106.788 114.863 107.14C114.785 107.493 114.603 107.813 114.34 108.06C114.077 108.306 113.745 108.467 113.389 108.522L113.352 108.528C113.441 109.426 113.598 110.317 113.822 111.191C111.669 119.516 116.316 122.548 122.952 122.685C123.099 122.76 123.242 122.835 123.388 122.906C122.128 126.477 121.338 130.197 121.037 133.971C120.867 136.198 120.877 138.436 121.067 140.661L121.056 140.582C120.575 138.108 119.255 135.875 117.318 134.261C114.442 131.898 110.379 131.028 107.276 129.129C106.947 128.917 106.563 128.804 106.171 128.803C105.779 128.802 105.395 128.914 105.065 129.124C104.734 129.334 104.47 129.634 104.304 129.989C104.139 130.344 104.078 130.739 104.129 131.128C104.134 131.155 104.138 131.183 104.142 131.211C104.605 131.399 105.055 131.616 105.491 131.861C105.74 132.001 105.984 132.15 106.223 132.308C106.522 132.509 106.755 132.795 106.889 133.13C107.024 133.464 107.054 133.832 106.976 134.184C106.898 134.536 106.715 134.856 106.452 135.103C106.189 135.35 105.857 135.511 105.501 135.566L105.464 135.572C105.438 135.575 105.415 135.579 105.389 135.583C106.179 137.47 107.289 139.207 108.668 140.717C110.014 147.985 115.795 148.674 121.98 146.558H121.983C122.662 149.506 123.645 152.376 124.917 155.122H135.396C135.434 155.005 135.468 154.885 135.501 154.769C134.531 154.83 133.558 154.772 132.602 154.596C133.379 153.642 134.157 152.68 134.934 151.726C134.952 151.708 134.968 151.69 134.983 151.67C135.377 151.182 135.776 150.697 136.17 150.209L136.17 150.208C136.191 148.712 136.019 147.218 135.659 145.765Z" fill="#F2F2F2"/>
<path d="M83.3451 139.951C82.9068 139.971 82.473 139.856 82.1023 139.621C81.7316 139.387 81.442 139.044 81.2727 138.639C81.1035 138.234 81.0627 137.787 81.156 137.358C81.2493 136.93 81.4722 136.54 81.7943 136.242C81.8483 136.028 81.887 135.874 81.941 135.659C81.9217 135.612 81.9022 135.566 81.8827 135.519C81.4412 134.476 80.7013 133.587 79.7561 132.963C78.8108 132.34 77.7023 132.009 76.5698 132.013C75.4373 132.017 74.3312 132.356 73.3907 132.987C72.4501 133.618 71.7168 134.512 71.2831 135.559C69.5494 139.734 67.3422 143.916 66.7987 148.331C66.5594 150.283 66.6604 152.261 67.0972 154.178C63.0254 145.296 60.911 135.642 60.8974 125.871C60.8965 123.419 61.0327 120.969 61.3054 118.532C61.5307 116.535 61.8434 114.551 62.2433 112.582C64.4257 101.898 69.1115 91.8833 75.9157 83.3615C79.2089 81.5646 81.8722 78.8014 83.5466 75.4443C84.1532 74.2375 84.582 72.9493 84.8195 71.6197C84.448 71.6684 83.4187 66.0106 83.6989 65.6635C83.1812 64.8779 82.2546 64.4874 81.6892 63.7208C78.8771 59.9082 75.0028 60.5739 72.9802 65.7549C68.6596 67.9355 68.6177 71.552 71.2689 75.0302C72.9555 77.243 73.1873 80.2372 74.6672 82.6063C74.5149 82.8012 74.3566 82.99 74.2043 83.1849C71.4211 86.7638 68.9953 90.6068 66.9618 94.6588C67.4563 90.1193 66.8661 85.5273 65.2396 81.2604C63.5912 77.2839 60.5016 73.9348 57.7808 70.4971C54.5126 66.3678 47.811 68.1699 47.2352 73.4044C47.2296 73.4551 47.2242 73.5057 47.2189 73.5564C47.623 73.7844 48.0186 74.0263 48.4057 74.2823C48.8919 74.6072 49.2687 75.0714 49.4866 75.6141C49.7045 76.1567 49.7535 76.7526 49.627 77.3235C49.5005 77.8945 49.2045 78.4139 48.7777 78.8137C48.351 79.2136 47.8134 79.4752 47.2355 79.5643L47.1763 79.5734C47.3202 81.03 47.5747 82.4734 47.9375 83.8914C44.4471 97.3899 51.9827 102.306 62.7427 102.527C62.9802 102.649 63.2116 102.771 63.4492 102.887C61.4061 108.677 60.1245 114.708 59.6367 120.828C59.3606 124.439 59.3769 128.066 59.6855 131.675L59.6672 131.547C58.8876 127.534 56.7472 123.914 53.6074 121.297C48.9442 117.466 42.3558 116.056 37.325 112.977C34.9033 111.494 31.8 113.41 32.2227 116.217C32.2294 116.262 32.2363 116.307 32.2432 116.352C32.9932 116.657 33.7234 117.009 34.4296 117.405C34.8337 117.633 35.2293 117.875 35.6164 118.131C36.1026 118.456 36.4794 118.92 36.6973 119.463C36.9152 120.006 36.9642 120.602 36.8377 121.173C36.7112 121.744 36.4152 122.263 35.9884 122.663C35.5617 123.063 35.0241 123.324 34.4461 123.413L34.3869 123.423C34.3443 123.429 34.3077 123.435 34.2652 123.441C35.5466 126.5 37.345 129.317 39.5818 131.766C41.7643 143.55 51.1382 144.668 61.1653 141.236H61.1714C62.2716 146.017 63.8656 150.67 65.9278 155.122H82.9193C82.9803 154.933 83.035 154.738 83.0899 154.549C81.5171 154.648 79.9381 154.554 78.3882 154.269C79.6489 152.722 80.9096 151.163 82.1702 149.616C82.1984 149.587 82.2248 149.557 82.2494 149.525C82.8889 148.733 83.5344 147.948 84.1739 147.156L84.1742 147.155C84.2083 144.728 83.9298 142.307 83.3456 139.951L83.3451 139.951Z" fill="#F2F2F2"/>
<path d="M315.887 8.48045C314.746 -0.262874 294.578 0.294869 292.674 8.52091C291.664 7.88913 289.095 8.32643 288.136 9.05262C287.178 9.77881 286.564 10.8464 285.962 11.8827C285.141 13.322 284.29 14.8129 284.109 16.4633C283.919 18.1105 284.566 19.9765 286.06 20.7099C287.244 21.2944 289.851 20.8997 291.153 20.638C292.062 20.4574 292.825 20.2991 293.472 20.1439C293.69 19.1202 293.54 18.0525 293.049 17.1283C293.572 17.2322 294.066 17.4506 294.494 17.7678C294.923 18.0851 295.277 18.4933 295.529 18.9632C295.631 19.1601 299.326 46.973 299.326 46.973C300.336 47.0947 301.355 47.1202 302.37 47.049C303 43.626 303.114 40.1281 302.71 36.6713C303.78 38.6471 304.626 40.736 305.234 42.8994C305.582 44.1094 305.868 45.3363 306.09 46.5755C314.884 44.9312 326.77 39.2677 328.939 29.651C328.927 29.62 328.915 29.589 328.903 29.558C328.785 29.2641 328.772 28.9382 328.867 28.636C328.963 28.3337 329.16 28.0741 329.426 27.9015C329.692 27.7289 330.009 27.654 330.324 27.6898C330.639 27.7255 330.932 27.8696 331.152 28.0974C331.417 28.3702 331.653 28.6034 331.853 28.7841C331.082 22.6428 326.424 17.1164 315.887 8.48045Z" fill="#2F2E41"/>
<path d="M187.493 222.613L182.564 220.035L190.381 199.369L197.657 203.174L187.493 222.613Z" fill="#A0616A"/>
<path d="M167.601 222.364C167.296 222.949 167.236 223.63 167.433 224.26C167.63 224.889 168.068 225.415 168.652 225.721L178.455 230.845L181.967 228.234L180.802 232.07L184.499 234.006L189.975 221.002L188.727 220.254L183.642 217.191L181.999 216.206L180.155 219.734L169.499 221.048C169.1 221.097 168.719 221.243 168.388 221.472C168.058 221.701 167.788 222.007 167.601 222.364Z" fill="#2F2E41"/>
<path d="M182.443 146.533L178.857 142.28L193.922 126.117L199.214 132.394L182.443 146.533Z" fill="#A0616A"/>
<path d="M164.128 138.766C163.624 139.191 163.31 139.799 163.254 140.456C163.198 141.113 163.405 141.766 163.829 142.271L170.959 150.727L175.199 149.642L172.667 152.75L175.355 155.942L185.35 145.983L184.478 144.818L180.933 140.057L179.786 138.523L176.742 141.089L166.384 138.267C165.995 138.162 165.587 138.152 165.195 138.239C164.802 138.325 164.436 138.506 164.128 138.766Z" fill="#2F2E41"/>
<path d="M340.586 130.596C340.586 130.596 355.81 163.181 292.765 154.4C292.765 154.4 259.176 117.176 260.146 112.697C260.146 112.697 245.85 98.1708 246.55 97.9063C247.249 97.6419 247.681 97.0674 246.525 97.1196C245.369 97.1718 245.369 95.4511 245.369 95.4511C245.369 95.4511 219.533 123.469 197.779 137.372L190.257 128.911C190.257 128.911 193.191 119.735 194.601 119.735C196.011 119.735 196.497 120.074 196.724 118.26C196.951 116.445 195.828 114.887 197.33 114.726C198.832 114.565 229.954 78.1902 229.954 78.1902C229.954 78.1902 233.312 66.2094 243.571 68.5284C253.83 70.8475 307.14 114.189 307.14 114.189L340.586 130.596Z" fill="#2F2E41"/>
<path d="M314.913 155.456L231.624 154.765L195.428 212.115L185.199 206.7L187.467 205.743C187.467 205.743 186.78 197.772 187.621 195.754C188.462 193.736 190.964 194.343 190.964 194.343L212.067 145.677C213.522 141.357 216.382 137.648 220.189 135.142C223.996 132.635 228.533 131.475 233.077 131.846C250.538 129.299 278.884 131.334 308.332 133.833L314.913 155.456Z" fill="#2F2E41"/>
<path d="M266.691 57.8538C268.276 58.0968 269.704 58.9488 270.671 60.2286C271.638 61.5084 272.067 63.1149 271.867 64.7063C271.822 65.0291 271.749 65.3476 271.651 65.6585L288.765 78.64L285.234 89.6415L263.712 69.3239C262.454 68.8168 261.4 67.9076 260.713 66.7383C260.027 65.5689 259.747 64.2051 259.917 62.8597C260.021 62.0951 260.274 61.3585 260.663 60.6919C261.052 60.0254 261.568 59.4419 262.182 58.9748C262.797 58.5077 263.497 58.1662 264.243 57.9698C264.989 57.7733 265.767 57.7258 266.531 57.8298C266.585 57.8371 266.638 57.8451 266.691 57.8538Z" fill="#A0616A"/>
<path d="M342.191 58.6641L336.038 75.6997L311.975 109.705C311.975 109.705 311.777 109.62 311.42 109.47C309.352 108.577 301.84 105.296 294.775 101.568C288.142 98.066 281.895 94.169 280.926 91.4896C280.823 91.2075 280.729 90.9349 280.644 90.6717V90.6669C280.193 89.3025 279.911 87.8881 279.803 86.4551C279.723 85.3504 279.793 84.7581 279.643 84.6876C279.525 84.6359 279.281 84.8897 278.74 85.4632C278.703 85.5008 278.67 85.5384 278.632 85.5713C276.677 87.5316 274.275 87.2777 274.862 86.3469C275.464 85.3927 275.149 85.4115 274.265 84.4149C273.607 83.6722 271.468 80.7671 270.415 79.3334C270.053 78.8398 269.823 78.5202 269.823 78.5202L270.185 77.9514L271.186 76.3813L275.948 68.9165L276.211 68.5075C276.211 68.5075 285.998 70.7686 287.3 72.9169C288.607 75.0651 285.331 74.9946 288.607 75.0651C291.884 75.1356 295.226 70.6793 292.833 75.1121C290.441 79.5403 291.07 81.0868 294.032 80.3864C295.235 80.0996 297.139 81.0069 298.972 82.1821V82.1868C300.119 82.9316 301.225 83.7366 302.287 84.5982C303.419 85.5102 304.186 86.2012 304.186 86.2012L322.772 48.4916L324.831 44.3174C325.459 43.0472 326.333 41.9148 327.404 40.9866C328.474 40.0584 329.718 39.3529 331.065 38.9115L331.709 40.0349C335.718 45.9402 339.225 52.1718 342.191 58.6641Z" fill="#92DCE5"/>
<path d="M343.221 112.732C348.918 114.058 342.857 155.53 336.066 155.66C286.708 156.6 301.737 128.908 299.09 126.256C296.444 123.601 294.056 125.504 296.444 121.372C298.183 118.364 300.764 118.81 300.801 117.123C300.82 116.493 300.486 115.572 299.621 114.058C296.444 108.492 296.444 106.833 296.444 106.833C295.651 105.162 295.09 103.39 294.775 101.568C294.259 98.8582 294.196 96.0817 294.587 93.3511C295.184 89.3453 296.683 85.5277 298.973 82.1868V82.1821C299.212 81.8248 299.461 81.4629 299.725 81.1056C300.322 80.2924 303.631 80.4475 303.631 80.4475L310.682 50.8327L306.602 39.0243L325.927 29.9706L331.065 38.9115L331.709 40.035C335.718 45.9402 339.225 52.1719 342.191 58.6641C345.045 65.0149 347.39 72.066 347.475 78.2005C347.701 94.1972 344.941 98.9544 344.941 98.9544C344.941 98.9544 351.64 103.961 348.288 107.021C344.941 110.086 337.524 111.407 343.221 112.732Z" fill="#92DCE5"/>
<path d="M255.674 53.9576L252.521 56.3528C251.898 56.8291 251.489 57.5328 251.384 58.3098C251.279 59.0867 251.487 59.8737 251.961 60.4982L259.555 70.4796L264.039 76.3684C264.514 76.9903 265.217 77.3983 265.993 77.5032C266.768 77.608 267.554 77.4011 268.178 76.9278L271.334 74.5297C271.955 74.0521 272.361 73.3489 272.465 72.573C272.569 71.7972 272.363 71.0116 271.891 70.3873L271.425 69.7722L262.226 57.6855L259.813 54.5171C259.578 54.2084 259.284 53.9492 258.949 53.754C258.614 53.5589 258.244 53.4317 257.859 53.3797C257.475 53.3278 257.084 53.3521 256.709 53.4512C256.334 53.5504 255.982 53.7225 255.674 53.9576Z" fill="#3F3D56"/>
<path d="M257.323 53.7766L253.926 56.1461C253.627 56.342 253.372 56.5992 253.179 56.9006C252.986 57.2021 252.859 57.541 252.807 57.8951C252.755 58.2492 252.778 58.6103 252.875 58.9547C252.973 59.2991 253.142 59.6189 253.372 59.8931L257.818 65.2501L260.187 68.1039L261.768 70.0078L265.303 74.2673C265.803 74.8387 266.496 75.2063 267.249 75.3C268.003 75.3937 268.764 75.207 269.389 74.7754L271.934 73L272.781 72.4093C273.203 72.1278 273.533 71.7279 273.728 71.2597C273.924 70.7916 273.977 70.2761 273.88 69.778C273.795 69.3641 273.608 68.978 273.336 68.6546L262.89 56.0664L261.409 54.2848C260.909 53.7125 260.216 53.3444 259.463 53.2506C258.709 53.1569 257.947 53.3441 257.323 53.7766Z" fill="#92DCE5"/>
<path d="M259.493 67.0072C261.079 67.2502 262.507 68.1023 263.473 69.382C264.44 70.6618 264.869 72.2683 264.67 73.8597C264.624 74.1826 264.552 74.5011 264.453 74.812L281.568 87.7934L278.036 98.795L256.514 78.4774C255.257 77.9703 254.202 77.0611 253.516 75.8917C252.829 74.7223 252.549 73.3585 252.719 72.0132C252.823 71.2486 253.077 70.512 253.465 69.8454C253.854 69.1788 254.37 68.5953 254.985 68.1283C255.599 67.6612 256.299 67.3197 257.045 67.1232C257.791 66.9268 258.569 66.8792 259.334 66.9833C259.387 66.9905 259.44 66.9985 259.493 67.0072Z" fill="#A0616A"/>
<path d="M329.292 47.7551C330.788 48.0596 332.201 48.6828 333.435 49.5821C334.668 50.4815 335.694 51.636 336.441 52.967C337.189 54.2981 337.641 55.7746 337.767 57.296C337.893 58.8175 337.69 60.3482 337.171 61.7841L328.842 84.852L304.775 118.86C304.775 118.86 275.912 106.669 273.727 100.643C271.542 94.6169 273.515 92.5376 271.542 94.6169C269.569 96.6962 267.067 96.4497 267.666 95.4982C268.265 94.5466 267.949 94.5669 267.067 93.5701C266.185 92.5733 262.626 87.6751 262.626 87.6751L269.013 77.6619C269.013 77.6619 278.801 79.9213 280.105 82.0708C281.409 84.2204 278.131 84.1501 281.409 84.2204C284.686 84.2907 288.029 79.8327 285.635 84.2643C283.241 88.6959 283.873 90.2409 286.834 89.5386C289.796 88.8364 296.986 95.3555 296.986 95.3555L317.635 53.4718C318.674 51.3651 320.381 49.6617 322.49 48.6275C324.599 47.5932 326.991 47.2865 329.292 47.7551Z" fill="#92DCE5"/>
<path d="M316.977 33.8692C322.96 27.8861 322.96 18.1855 316.977 12.2024C310.994 6.21928 301.294 6.21928 295.31 12.2024C289.327 18.1855 289.327 27.8861 295.31 33.8692C301.294 39.8524 310.994 39.8524 316.977 33.8692Z" fill="#A0616A"/>
<path d="M324.059 6.34526C322.918 -2.39807 302.751 -1.84032 300.847 6.38572C299.837 5.75394 297.267 6.19124 296.309 6.91743C295.35 7.64361 294.736 8.71117 294.135 9.74748C293.314 11.1869 287.569 16.0565 286.708 14.6367C284.771 11.4416 280.972 18.4236 283.888 23.0981C284.587 24.219 298.098 22.4196 299.4 22.158C298.753 22.3131 300.309 21.9773 299.4 22.158C299.609 21.1439 301.72 15.9042 301.221 14.9931C301.744 15.097 302.238 15.3154 302.667 15.6326C303.096 15.9499 303.449 16.3581 303.701 16.828C303.804 17.0248 307.498 44.8378 307.498 44.8378C308.508 44.9595 309.528 44.9849 310.542 44.9137C311.172 41.4908 311.287 37.9929 310.882 34.5361C311.952 36.5119 312.799 38.6008 313.406 40.7642C313.754 41.9742 314.04 43.2011 314.263 44.4403C323.056 42.796 334.943 37.1325 337.112 27.5158C325.254 23.5682 334.596 14.9812 324.059 6.34526Z" fill="#2F2E41"/>
<path d="M189.954 50.2814C190.151 48.9309 188.736 47.6071 186.795 47.3246C184.853 47.0421 183.12 47.908 182.924 49.2585C182.727 50.609 184.142 51.9328 186.083 52.2153C188.025 52.4978 189.758 51.6319 189.954 50.2814Z" fill="#E6E6E6"/>
<path d="M213.069 48.0259C213.265 46.6754 211.851 45.3516 209.909 45.0691C207.968 44.7867 206.235 45.6525 206.038 47.003C205.842 48.3536 207.256 49.6774 209.198 49.9598C211.139 50.2423 212.872 49.3765 213.069 48.0259Z" fill="#3F3D56"/>
<path d="M183.625 31.5685C183.821 30.218 182.407 28.8941 180.465 28.6117C178.524 28.3292 176.791 29.1951 176.594 30.5456C176.398 31.8961 177.812 33.2199 179.754 33.5024C181.695 33.7849 183.428 32.919 183.625 31.5685Z" fill="#FF6584"/>
<path d="M173.581 23.9034C173.59 22.6636 172.899 21.6532 172.036 21.6467C171.174 21.6401 170.467 22.6399 170.458 23.8798C170.448 25.1196 171.14 26.13 172.002 26.1365C172.865 26.1431 173.572 25.1432 173.581 23.9034Z" fill="#E6E6E6"/>
<path d="M170.175 9.62643C170.184 8.38659 169.493 7.3762 168.63 7.36968C167.768 7.36316 167.061 8.36297 167.052 9.60281C167.042 10.8427 167.734 11.853 168.596 11.8596C169.459 11.8661 170.166 10.8663 170.175 9.62643Z" fill="#3F3D56"/>
<path d="M196.662 34.7529C196.671 33.5131 195.979 32.5027 195.117 32.4962C194.254 32.4897 193.548 33.4895 193.538 34.7293C193.529 35.9691 194.22 36.9795 195.083 36.9861C195.945 36.9926 196.652 35.9928 196.662 34.7529Z" fill="#E6E6E6"/>
<path d="M185.492 40.3299C185.501 39.0901 184.809 38.0797 183.947 38.0732C183.084 38.0667 182.378 39.0665 182.368 40.3063C182.359 41.5462 183.051 42.5565 183.913 42.563C184.776 42.5696 185.482 41.5698 185.492 40.3299Z" fill="#FF6584"/>
<path d="M201.041 50.6377C201.05 49.3978 200.358 48.3874 199.496 48.3809C198.633 48.3744 197.926 49.3742 197.917 50.614C197.908 51.8539 198.599 52.8643 199.462 52.8708C200.324 52.8773 201.031 51.8775 201.041 50.6377Z" fill="#3F3D56"/>
<path d="M254.401 63.8212C254.612 63.6702 254.478 63.1198 254.1 62.5918C253.723 62.0638 253.245 61.7581 253.034 61.9091C252.823 62.0601 252.958 62.6105 253.335 63.1385C253.713 63.6665 254.19 63.9721 254.401 63.8212Z" fill="#3F3D56"/>
<path d="M252.991 61.9409C253.202 61.7899 253.067 61.2395 252.69 60.7115C252.313 60.1834 251.835 59.8778 251.624 60.0288C251.413 60.1798 251.548 60.7302 251.925 61.2582C252.303 61.7862 252.78 62.0918 252.991 61.9409Z" fill="#3F3D56"/>
</g>
<defs>
<clipPath id="clip0_23_1275">
<rect width="398" height="234.006" fill="white"/>
</clipPath>
</defs>
</svg>
