<svg width="398" height="298" viewBox="0 0 398 298" fill="none" xmlns="http://www.w3.org/2000/svg">
<g clip-path="url(#clip0_2_106)">
<path d="M366.664 72.2236C321.491 9.05011 226.067 -16.5758 132.221 11.0239C82.6068 25.6151 34.7698 54.8506 11.063 111.46C-31.3155 212.655 57.6635 244.975 115.846 255.275C143.98 260.256 170.477 268.623 194.691 280.014C238.253 300.508 315.362 318.667 373.507 233.301C415.65 171.428 396.753 114.303 366.664 72.2236Z" fill="#F2F2F2"/>
<path d="M104.77 84.7222C104.644 83.7182 104.388 82.735 104.01 81.7971C103.962 81.6197 103.877 81.4544 103.762 81.3117C103.647 81.169 103.503 81.0519 103.34 80.968C103.123 80.9112 102.894 80.9086 102.676 80.9606L99.2635 81.4853C98.9779 81.4984 98.7044 81.6052 98.4849 81.7893C98.0405 82.259 98.4781 83.0153 98.4645 83.6634C98.4492 84.392 97.805 84.9835 97.1064 85.1792C96.3933 85.324 95.6577 85.3148 94.9484 85.1523L90.1773 84.4072C91.5824 83.9563 92.8332 83.1175 93.7867 81.9865C94.4146 81.2389 94.7486 79.8433 93.8412 79.4893C93.5716 79.415 93.2904 79.3923 93.0125 79.4225C90.8508 79.4393 89.1497 77.6255 87.1261 76.8615C85.8308 76.4042 84.4249 76.3701 83.1093 76.7643C81.7937 77.1585 80.6358 77.9606 79.8011 79.056L82.3428 79.1792C82.5819 79.1659 82.819 79.2295 83.0198 79.3607C83.5768 79.8206 82.8843 80.704 82.9628 81.4243C83.0647 82.36 84.301 82.5598 85.2329 82.6544C86.1647 82.749 87.347 83.5099 86.8987 84.3364C82.2149 85.9578 77.4487 81.167 72.5297 81.7567C71.2848 81.906 70.1092 82.3975 68.8937 82.7066C61.4686 84.5946 53.7924 79.5571 46.2073 80.624C44.521 80.9129 42.8637 81.3522 41.255 81.9366C40.2226 82.2773 39.1458 82.6454 38.3957 83.4355C37.6456 84.2255 37.3601 85.5767 38.0707 86.4028C36.1121 86.5649 34.1405 86.3765 32.2473 85.8464C32.7593 86.1324 33.1852 86.5517 33.4803 87.0601C33.7754 87.5686 33.9289 88.1475 33.9247 88.7361C30.8665 89.2373 27.8894 90.1496 25.0733 91.4485C25.5989 92.3269 26.2128 93.1488 26.9053 93.9012L23.0338 96.4009C24.3418 96.7321 25.018 98.5246 24.2574 99.6441C25.6136 99.0377 26.4542 97.4691 27.9044 97.1511C28.8545 96.9427 29.8213 97.3333 30.7226 97.7003C31.6239 98.0672 32.6146 98.423 33.5477 98.1476C34.4807 97.8722 35.1689 96.6563 34.576 95.8816C38.5642 94.7122 42.6859 94.065 46.8389 93.9562C47.1593 93.9157 47.4843 93.9777 47.7677 94.1333C48.3083 94.5102 48.166 95.3244 48.1369 95.9851C48.1078 96.6457 48.6201 97.5139 49.2076 97.2162C48.5164 97.8185 49.1073 98.9525 49.7704 99.586C50.4336 100.219 51.2329 101.093 50.8269 101.917C50.7209 102.132 50.5412 102.305 50.4392 102.522C50.1383 103.162 50.6161 103.909 51.1797 104.334C51.7433 104.759 52.4336 105.057 52.8251 105.646C53.2166 106.235 53.0388 107.266 52.3387 107.348L50.349 104.809C49.6692 105.518 49.2031 106.405 49.0048 107.369C51.1148 109.103 51.4322 112.631 49.6657 114.717C48.763 115.782 47.4793 116.43 46.3589 117.261C45.2385 118.093 44.2018 119.277 44.2046 120.676C44.2094 123.094 44.0128 125.341 44.9145 127.583C46.5771 131.717 48.4966 135.741 50.6617 139.633C51.2302 140.655 51.965 141.775 53.1168 141.951C51.6612 138.39 50.3508 134.773 49.1857 131.101C49.9446 131.104 50.8215 131.164 51.2664 131.782C51.6348 132.294 51.5556 132.99 51.6701 133.61C51.8157 134.212 52.0584 134.786 52.3887 135.308L59.3398 147.752C59.916 148.784 60.577 149.891 61.6783 150.309C62.3824 150.576 63.1971 150.526 63.8451 150.91C64.3531 151.212 64.6953 151.747 65.2131 152.031C66.6774 152.833 68.7136 151.294 70.0821 152.252C70.4733 152.526 70.7222 152.962 71.0828 153.275C72.3466 154.375 74.4199 153.64 75.8788 154.46C76.8191 154.989 77.3064 156.047 77.808 157.005C79.0642 159.406 81.097 161.758 83.7893 161.949C84.635 162.009 85.4988 161.848 86.3255 162.037C87.1522 162.226 87.966 162.951 87.8333 163.793C87.6058 165.235 88.3151 166.815 88.1246 168.263C87.7776 170.901 84.0546 172.06 83.7348 174.702C83.6648 175.28 83.7744 175.877 83.6373 176.443C83.4694 177.137 82.951 177.702 82.7667 178.391C82.4176 179.698 83.3492 180.999 84.3727 181.878C85.3961 182.757 86.6169 183.515 87.1765 184.746C87.7679 186.047 87.4774 187.564 87.6697 188.981C88.0896 192.075 90.7484 194.368 93.4847 195.847C94.3184 196.297 95.2135 196.734 95.7531 197.515C96.4574 198.535 96.3873 199.88 96.6224 201.099C97.1984 204.085 99.699 206.544 99.77 209.584C99.8205 211.745 98.6253 213.705 97.9114 215.744C97.2421 217.698 96.9999 219.773 97.2013 221.829C97.4027 223.885 98.0431 225.873 99.0786 227.658C99.6127 228.564 100.251 229.419 100.629 230.401C101.303 232.155 101.085 234.148 101.706 235.921C102.528 238.265 104.786 240.2 104.57 242.676C105.595 244.816 107.859 245.867 110.136 246.504L114.216 247.645C114.997 247.864 115.813 248.084 116.609 247.926C117.404 247.768 118.163 247.104 118.143 246.289C116.142 245.836 114.077 245.353 112.428 244.128C110.779 242.903 109.649 240.721 110.275 238.758C110.565 237.848 111.182 236.797 110.595 236.044C110.259 235.614 109.645 235.501 109.266 235.108C108.675 234.496 108.878 233.466 109.303 232.727C109.728 231.988 110.342 231.328 110.513 230.492C110.6 230.024 110.542 229.541 110.348 229.107C110.153 228.674 109.832 228.31 109.426 228.065C110.182 227.778 110.87 227.334 111.445 226.763C111.976 226.153 112.221 225.214 111.804 224.521C113.044 224.679 114.509 224.756 115.323 223.803C115.974 223.041 115.929 221.903 115.672 220.933C115.415 219.963 114.981 219.021 114.967 218.017C117.829 218.154 120.697 218.056 123.543 217.725C123.132 216.332 122.196 215.155 120.936 214.443C122.225 214.224 123.399 212.673 123.806 211.425C124.213 210.176 124.11 208.817 123.858 207.527C123.761 207.195 123.748 206.845 123.819 206.506C123.964 206.041 124.419 205.758 124.839 205.515L131.237 201.822C131.619 201.63 131.965 201.373 132.26 201.063C132.931 200.272 132.831 199.077 132.488 198.097C132.145 197.117 131.595 196.195 131.463 195.164C131.068 192.082 134.351 189.87 135.459 186.968C135.894 185.829 135.982 184.592 136.067 183.375C136.157 182.068 136.164 180.55 135.165 179.708C134.208 178.9 132.713 179.081 131.711 178.33C130.793 177.641 130.476 176.304 129.473 175.748C128.562 175.243 127.42 175.564 126.407 175.327C124.623 174.909 123.5 172.842 121.679 172.651C120.651 172.543 119.487 173.048 118.645 172.446C117.902 171.916 117.873 170.851 117.731 169.947C117.484 168.541 116.814 167.246 115.811 166.236C114.809 165.225 113.522 164.547 112.125 164.294C111.065 164.123 109.911 164.188 109.01 163.603C108.097 163.01 107.678 161.9 106.961 161.079C105.805 159.756 103.985 159.286 102.28 158.884L95.3434 157.245C94.1121 156.954 92.5249 156.8 91.8642 157.884C91.6686 158.296 91.5301 158.734 91.4526 159.184C91.205 159.999 90.7068 160.714 90.0294 161.227C89.3521 161.739 88.5306 162.022 87.6829 162.036C87.1016 161.04 86.1598 160.307 85.0541 159.992C84.3508 159.795 83.5979 159.773 82.9271 159.483C82.5618 159.304 82.2367 159.052 81.9717 158.742C81.7068 158.432 81.5075 158.071 81.3862 157.681C81.2648 157.291 81.2239 156.88 81.2659 156.474C81.308 156.068 81.4321 155.674 81.6307 155.318C82.0306 154.602 82.1851 153.774 82.0702 152.962C81.9553 152.149 81.5776 151.397 80.9952 150.822C79.8156 149.758 78.1093 149.5 76.5277 149.607C76.1134 148.699 76.806 147.674 77.5524 147.013C78.2988 146.353 79.2052 145.704 79.3677 144.718C79.6234 143.168 77.6547 141.99 76.1598 142.452C74.665 142.915 73.711 144.374 73.0803 145.812C72.7184 146.638 72.4108 147.507 71.84 148.203C71.2692 148.898 70.35 149.397 69.4806 149.173C68.2498 148.857 67.7744 147.388 67.502 146.14C67.1365 144.467 66.7689 142.771 66.8455 141.06C66.922 139.348 67.4961 137.591 68.7517 136.433C70.7977 134.545 73.9365 134.73 76.6979 135.031C76.0455 134.292 76.2067 133.047 76.9047 132.352C77.2732 132.023 77.716 131.789 78.1947 131.671C78.6733 131.553 79.1735 131.554 79.6517 131.674C80.4838 131.848 81.2334 132.298 81.7798 132.953C82.5645 133.914 82.7876 135.212 83.3807 136.304C83.9739 137.395 85.3075 138.326 86.3991 137.74C87.342 137.235 87.4916 135.921 87.257 134.873C87.0223 133.825 86.5239 132.806 86.6089 131.735C86.7711 129.692 88.8784 128.463 90.7379 127.621C92.5974 126.78 94.7266 125.648 95.0212 123.62C95.0313 123.223 95.1058 122.83 95.2419 122.458C95.4481 122.128 95.7347 121.857 96.0745 121.671C101.502 118.066 107.019 114.418 113.222 112.448C113.544 112.346 113.582 112.46 113.911 112.379C114.371 112.112 114.066 111.372 113.625 111.074C113.184 110.776 112.594 110.548 112.482 110.026C112.4 109.642 112.625 109.265 112.683 108.876C112.827 107.922 111.691 107.041 110.809 107.423C110.311 106.759 111.297 105.989 112.094 105.768C114.488 105.106 116.945 104.703 119.424 104.565C119.71 104.519 120.003 104.569 120.258 104.707C120.675 104.997 120.621 105.662 120.326 106.076C120.031 106.49 119.572 106.749 119.204 107.099C118.803 107.493 118.516 107.989 118.376 108.535C118.236 109.081 118.248 109.655 118.41 110.195C119.704 110.856 121.111 111.537 122.545 111.304C123.978 111.071 125.25 109.453 124.577 108.16C123.949 106.956 122.065 106.685 121.74 105.365C121.361 103.821 123.537 102.447 123.047 100.934C122.832 100.271 122.175 99.8813 121.671 99.4029C121.075 98.8163 120.67 98.0624 120.509 97.2402C120.347 96.418 120.437 95.566 120.766 94.796C119.945 94.9412 119.101 94.8864 118.305 94.6361C117.509 94.3857 116.784 93.9473 116.192 93.3574C115.098 92.2477 114.225 90.4972 112.671 90.5469C111.245 90.5924 110.017 92.2641 108.684 91.7541C108.356 91.6286 108.011 91.3732 107.693 91.5229C107.589 91.5908 107.501 91.6817 107.437 91.7886C107.373 91.8955 107.334 92.0156 107.323 92.1399C106.984 93.7677 107.567 95.6224 106.684 97.0291C105.723 98.5598 103.501 98.772 102.337 100.152C101.705 100.902 101.46 101.911 100.879 102.701C100.298 103.491 99.0643 103.993 98.367 103.305C98.7097 102.597 98.8033 101.793 98.6324 101.024C98.4616 100.256 98.0364 99.5684 97.4265 99.0742C96.779 98.6497 96.0811 98.3085 95.3491 98.0587C94.5312 97.7108 93.7531 97.2749 93.0284 96.7588C92.6654 96.5388 92.3704 96.2216 92.1764 95.8427C92.023 95.3683 92.0437 94.8543 92.2347 94.3939C92.5883 93.375 93.2121 92.4726 94.0388 91.784C94.8655 91.0954 95.8636 90.6468 96.9254 90.4866C97.8539 90.3597 98.9345 90.4044 99.549 89.6934C99.8741 89.3172 100.045 88.7484 100.517 88.5957C100.818 88.5347 101.132 88.5735 101.41 88.7062L104.876 89.9322C105.262 90.1076 105.688 90.1783 106.11 90.1374C106.32 90.109 106.511 90.0021 106.645 89.8382C106.779 89.6742 106.847 89.4653 106.834 89.2533C106.723 88.6749 105.838 88.3974 105.918 87.814C105.963 87.6249 106.064 87.4541 106.208 87.324C107.459 85.9861 108.988 84.9427 110.687 84.2685C112.386 83.5943 114.212 83.3059 116.035 83.424C116.473 84.1459 115.781 85.0009 115.205 85.6173C114.63 86.2336 114.167 87.3349 114.863 87.8093C115.148 87.9556 115.466 88.0274 115.786 88.0181C116.639 88.1342 117.468 88.387 118.242 88.7668C119.439 89.2906 120.614 89.8637 121.766 90.486C121.664 89.723 121.567 88.919 121.855 88.2055C122.142 87.492 122.96 86.9324 123.675 87.2102C124.363 87.478 124.716 88.3943 125.45 88.4782C126.429 88.5902 126.815 87.1374 126.406 86.2369C125.997 85.3364 125.188 84.5823 125.12 83.5949C125.075 82.9287 125.327 82.1025 124.798 81.6991C124.609 81.578 124.395 81.5027 124.173 81.479L110.952 79.034C110.167 78.8888 109.033 79.0001 108.998 79.8016C108.979 80.249 109.376 80.6915 109.2 81.1029C109.012 81.5419 108.395 81.5018 107.945 81.657C107.247 81.898 106.897 82.7308 106.964 83.4693C107.087 84.2031 107.37 84.9005 107.792 85.5115C106.932 85.1501 105.63 85.0837 104.77 84.7222Z" fill="#3F3D56"/>
<path d="M94.2215 73.4435C93.3879 73.1662 92.4895 73.1533 91.6483 73.4065C90.8071 73.6597 90.0637 74.1667 89.5189 74.8589C89.3012 75.1469 89.1184 75.544 89.3006 75.8559C89.5619 76.3031 90.2276 76.1265 90.7185 75.9665C91.4399 75.7075 92.2251 75.6887 92.958 75.9128C93.4189 76.0719 93.8312 76.3529 94.2941 76.5059C94.5194 76.6007 94.7662 76.6319 95.0078 76.5965C95.2495 76.561 95.477 76.46 95.666 76.3045C95.9837 75.9788 96.0036 75.4726 96.0042 75.0165C96.0262 74.864 96.014 74.7083 95.9686 74.5611C95.9232 74.4138 95.8456 74.2786 95.7415 74.1653C95.5562 74.0574 95.348 73.9955 95.1342 73.9847C94.6552 73.8956 94.2222 73.6413 93.9098 73.2658" fill="#3F3D56"/>
<path d="M98.9886 72.1096C98.802 72.0993 98.616 72.1375 98.4484 72.2205C98.2807 72.3034 98.1372 72.4283 98.0314 72.5831C97.9257 72.738 97.8614 72.9175 97.8447 73.1045C97.828 73.2916 97.8594 73.4798 97.936 73.651C98.509 73.8081 99.1076 73.8473 99.696 73.7664C99.9895 73.7206 100.263 73.5885 100.482 73.3868C100.701 73.1851 100.855 72.9228 100.926 72.6329C100.233 72.7596 99.5185 72.6224 98.9209 72.248" fill="#3F3D56"/>
<path d="M114.983 69.8818C113.423 70.215 111.908 70.7322 110.47 71.4226C111.148 71.6846 111.724 72.1587 112.114 72.7749C112.504 73.3911 112.687 74.117 112.635 74.8454C112.574 75.125 112.581 75.4153 112.656 75.6917C112.822 76.0955 113.302 76.247 113.724 76.3507C114.483 76.5827 115.275 76.6843 116.067 76.6512C116.464 76.6304 116.848 76.5106 117.187 76.3026C117.526 76.0946 117.807 75.8051 118.007 75.4601C118.122 75.1327 118.256 74.8127 118.41 74.5019C119.422 72.9527 122.429 74.8259 123.516 73.3286C123.899 72.8012 123.864 72.0072 124.363 71.5893C124.621 71.4072 124.92 71.2925 125.233 71.2554C127.418 70.819 129.626 70.5031 131.846 70.3089C132.897 70.217 134.268 69.8374 134.277 68.7765C130.315 67.9946 126.208 68.5499 122.593 70.3562C121.29 71.0118 119.568 72.3909 118.313 71.5217C117.844 71.1962 117.867 70.3199 117.22 69.954C116.559 69.5798 115.684 69.732 114.983 69.8818Z" fill="#3F3D56"/>
<path d="M127.938 72.3166L129.797 72.6757C129.455 72.6604 129.113 72.7187 128.795 72.8467C128.477 72.9746 128.19 73.1693 127.953 73.4177C127.715 73.666 127.533 73.9624 127.419 74.287C127.305 74.6117 127.261 74.957 127.29 75.3001C129.031 75.8848 130.93 75.3159 132.764 75.3936C134.598 75.4713 136.733 76.7882 136.419 78.6063C136.325 79.1561 136.009 79.7055 136.173 80.2384C136.288 80.6119 136.616 80.8769 136.801 81.221C137.187 81.9378 136.878 82.8445 136.392 83.4962C135.905 84.1478 135.251 84.6678 134.823 85.3603C133.76 87.0827 134.364 89.3094 134.997 91.2336C135.18 91.9607 135.518 92.6391 135.988 93.2219C136.926 94.2242 138.455 94.3114 139.823 94.3314C140.82 94.3461 141.961 94.2966 142.591 93.5208C143.414 92.5079 142.839 90.9276 143.38 89.7389C143.872 88.6593 145.125 88.1962 146.26 87.8677C148.34 87.2659 150.46 86.7542 152.427 85.8452C154.868 84.7165 157.15 82.9574 159.834 82.8121C160.587 82.7714 161.359 82.8607 162.084 82.6534C162.809 82.446 163.498 81.8158 163.443 81.06C163.397 80.4143 162.853 79.9401 162.428 79.4533C162.003 78.9665 161.67 78.2179 162.06 77.7028L169.095 76.3823C168.596 75.0166 168.208 73.2178 169.354 72.3289C169.767 72.0081 170.32 71.8799 170.672 71.4921C171.272 70.8312 170.971 69.6928 170.278 69.1307C169.586 68.5687 168.649 68.4382 167.762 68.3641C164.678 68.1067 161.575 68.2768 158.485 68.447C152.444 68.7798 146.402 69.1127 140.361 69.4455C139.145 69.5124 137.741 69.4101 136.625 69.8271C135.681 70.1801 135.01 70.8281 133.93 71.0558C131.936 71.4761 129.742 71.1917 127.938 72.3166Z" fill="#3F3D56"/>
<path d="M161.251 87.0886C161.062 87.0585 160.868 87.1027 160.71 87.212C160.605 87.3276 160.543 87.4756 160.534 87.6315C160.414 88.3195 160.557 89.0277 160.934 89.6142C161.126 89.9019 161.392 90.1327 161.703 90.2825C162.014 90.4324 162.359 90.4958 162.703 90.4663C163.54 90.359 164.157 89.6411 164.927 89.2907C166.113 88.7513 171.152 87.9104 167.666 86.0179C166.465 85.3657 165.689 85.9415 164.742 86.371C163.665 86.9248 162.458 87.1729 161.251 87.0886Z" fill="#3F3D56"/>
<path d="M191.779 71.2482C191.372 71.4153 191.032 71.7132 190.811 72.0953C190.709 72.2893 190.686 72.5152 190.745 72.7262C190.804 72.9372 190.942 73.1172 191.13 73.229C191.282 73.2844 191.443 73.3101 191.605 73.3047L193.259 73.3544C193.962 73.3755 194.841 73.526 195.03 74.2068C195.17 74.7124 194.856 75.362 195.235 75.7233C195.397 75.8498 195.593 75.9265 195.798 75.944C196.343 76.0847 196.912 76.1032 197.465 75.9981C198.669 75.6735 198.036 74.9349 198.416 74.2773C198.996 73.2711 198.895 73.8802 199.918 73.3035C200.673 72.8776 201.648 72.1051 201.018 71.0196C199.922 69.132 193.396 70.4373 191.779 71.2482Z" fill="#3F3D56"/>
<path d="M224.441 70.2992L223.48 70.4281C221.314 70.7187 219.134 71.012 217.047 71.666C217.951 72.0249 218.899 72.2587 219.865 72.3607C220.397 72.3869 220.925 72.4624 221.443 72.5862C222.365 72.862 223.294 73.5741 224.184 73.2093C224.736 72.9831 224.916 72.4053 225.374 72.0991C225.69 71.8876 226.888 71.5454 227.022 71.332C228.104 69.6066 225.274 70.1876 224.441 70.2992Z" fill="#3F3D56"/>
<path d="M228.661 74.6884C227.377 75.4097 226.186 76.2862 225.115 77.2983C224.663 77.7248 224.202 78.2553 224.243 78.8767C224.297 79.7025 225.173 80.1816 225.931 80.5043L229.003 81.8114C229.376 81.2835 229.035 80.5548 228.65 80.0361C228.264 79.5173 227.807 78.9172 227.977 78.293C228.171 77.5806 229.035 77.3379 229.76 77.2151C230.941 77.0152 234.126 77.0312 233.743 75.1187C233.292 72.8653 229.846 74.0225 228.661 74.6884Z" fill="#3F3D56"/>
<path d="M228.043 202.214C227.751 203.065 227.723 204.067 228.229 204.81C228.796 205.644 229.932 205.954 230.915 205.743C231.894 205.481 232.766 204.918 233.409 204.131C233.998 203.473 234.481 202.727 234.844 201.92C235.35 200.663 235.707 199.351 235.907 198.01L236.861 192.977C237.074 191.853 237.066 188.404 235.009 189.528C234.447 189.835 233.146 192.258 232.557 192.945C231.496 194.184 231.355 195.385 230.796 196.886C230.097 198.765 228.69 200.332 228.043 202.214Z" fill="#3F3D56"/>
<path d="M336.686 227.968C336.013 227.704 335.36 227.391 334.732 227.033C334.102 228.773 333.767 230.608 333.741 232.46L338.347 229.841C339.04 229.447 339.825 228.899 339.81 228.099C339.816 228.001 339.796 227.902 339.751 227.814C339.706 227.726 339.639 227.651 339.555 227.598C339.453 227.557 339.341 227.544 339.232 227.56C338.549 227.618 337.927 227.955 337.282 228.19C336.638 228.425 335.885 228.549 335.294 228.201" fill="#3F3D56"/>
<path d="M360.983 229.523C360.477 229.661 359.983 229.839 359.506 230.056C358.449 230.596 357.73 231.623 356.779 232.335C355.868 233.016 354.773 233.39 353.697 233.753C353.381 234.034 353.526 234.601 353.87 234.847C354.239 235.059 354.662 235.154 355.086 235.122C356.203 235.147 357.381 235.158 358.359 234.615C358.911 234.256 359.427 233.844 359.901 233.386C361.045 232.426 362.419 231.793 363.78 231.182C364.275 230.994 364.733 230.719 365.132 230.369C365.986 229.523 366.046 228.217 364.814 227.929C363.818 227.696 361.931 229.215 360.983 229.523Z" fill="#3F3D56"/>
<path d="M371.718 222.476C371.773 221.893 371.696 221.306 371.492 220.758C371.289 220.21 370.964 219.715 370.542 219.312C370.53 220.477 370.494 221.718 369.842 222.682C369.378 223.368 368.649 223.832 368.14 224.486C367.631 225.14 367.405 226.177 368.002 226.751C368.384 227.042 368.849 227.203 369.328 227.21C370.517 227.35 371.893 227.429 372.726 226.566C373.181 226.095 373.402 225.397 373.957 225.051C374.164 224.963 374.349 224.831 374.498 224.662C374.727 224.296 374.363 223.814 373.953 223.682C373.543 223.55 373.091 223.612 372.68 223.487C372.268 223.361 371.89 222.896 372.101 222.519" fill="#3F3D56"/>
<path d="M352.638 179.753C352.015 179.906 351.369 179.944 350.732 179.866C349.674 179.671 348.85 178.869 347.996 178.212C345.965 176.658 343.496 175.791 340.944 175.736C338.623 175.692 336.28 176.324 334 175.883C334.149 176.716 334.858 177.34 335.615 177.711C336.371 178.083 337.206 178.269 337.966 178.633C339.183 179.221 340.149 180.231 340.685 181.476C340.93 182.051 341.084 182.675 341.455 183.177C342.213 184.202 343.649 184.427 344.917 184.343C346.57 184.234 348.297 183.756 349.834 184.375C351.011 184.848 351.853 185.883 352.835 186.688C353.817 187.492 355.201 188.09 356.329 187.509C355.157 187.128 354.138 186.38 353.419 185.375C352.7 184.371 352.319 183.161 352.333 181.924C353.439 182.026 356.625 181.986 356.454 180.097C356.308 178.496 353.588 179.581 352.638 179.753Z" fill="#3F3D56"/>
<path d="M338.166 192.779C338.363 191.697 339.437 190.741 339.102 189.693C338.871 188.968 338.035 188.61 337.278 188.592C336.521 188.574 335.777 188.801 335.02 188.822C334.527 188.796 334.033 188.803 333.541 188.844C332.039 189.092 331.112 190.675 329.696 191.238C328.835 191.58 327.868 191.514 326.972 191.751C324.939 192.288 323.653 194.219 322.232 195.775C319.936 198.279 316.944 200.032 313.645 200.808C312.49 201.077 311.247 201.249 310.328 202.003C309.112 203.002 308.812 204.715 308.541 206.27C307.794 210.566 306.651 214.783 305.127 218.866L309.955 219.485C310.872 219.603 311.823 219.718 312.708 219.445C313.35 219.202 313.959 218.876 314.518 218.476C316.668 217.134 319.074 216.262 321.581 215.914C322.845 215.739 324.17 215.707 325.357 216.18C326.543 216.652 327.561 217.723 327.66 219.001C328.173 218.841 328.72 218.823 329.242 218.951C329.764 219.078 330.242 219.346 330.624 219.725C331.38 220.499 331.875 221.493 332.039 222.564C332.166 223.228 332.293 224.023 332.906 224.302C333.406 224.529 333.98 224.284 334.527 224.24C336.382 224.091 337.922 226.266 339.747 225.891C341.703 225.49 342.183 222.545 344.092 221.955C345.188 221.617 346.725 222.029 347.25 221.004C347.713 220.101 346.79 219.058 346.885 218.047C347.002 216.802 348.464 216.273 349.591 215.742C353.475 213.91 355.319 208.655 353.436 204.78C352.321 202.484 350.127 200.677 349.721 198.154C349.409 196.213 350.171 193.95 348.939 192.423C348.313 191.646 347.253 191.217 346.88 190.289C346.645 189.706 346.74 189.044 346.613 188.427C346.487 187.81 345.952 187.166 345.346 187.325C343.588 187.789 343.026 193.249 342.085 194.575C340.654 196.592 337.715 195.264 338.166 192.779Z" fill="#3F3D56"/>
<path d="M305.661 181.816C305.06 181.647 304.404 181.48 303.828 181.722C303.252 181.964 302.916 182.814 303.378 183.235C306.994 183.094 310.631 182.953 314.216 183.447C318.346 184.015 322.434 185.423 326.582 185.009C324.213 184.307 321.804 183.745 319.369 183.327L315.307 182.547C314.218 182.318 313.117 182.147 312.01 182.035C309.693 181.843 307.939 182.458 305.661 181.816Z" fill="#3F3D56"/>
<path d="M309.281 169.161C308.981 169.136 308.609 169.114 308.454 169.374C308.305 169.621 308.475 169.949 308.395 170.227C308.286 170.606 307.792 170.703 307.402 170.652C307.012 170.6 306.591 170.476 306.245 170.665C306.07 170.785 305.939 170.959 305.87 171.161C305.802 171.363 305.8 171.581 305.866 171.784C306.007 172.186 306.236 172.552 306.535 172.855C307.045 173.502 307.627 174.088 308.269 174.604C309.512 175.525 311.195 175.97 311.978 177.308C312.088 177.567 312.258 177.797 312.473 177.978C312.849 178.217 313.339 178.035 313.744 177.849L315.162 177.198C315.417 177.106 315.645 176.95 315.824 176.745C316.148 176.303 315.949 175.675 315.678 175.199C315.406 174.723 315.058 174.231 315.116 173.685C315.22 172.712 316.465 172.34 316.976 171.508C317.492 170.669 317.156 169.588 317.216 168.603C317.285 167.452 318.005 165.954 316.847 165.094C315.863 164.363 314.922 165.039 314.215 165.846C312.725 167.548 312.02 169.391 309.281 169.161Z" fill="#3F3D56"/>
<path d="M317.888 151.958C318.372 152.89 319.381 153.446 319.909 154.353C320.481 155.337 320.416 156.607 321.037 157.56C321.674 158.538 322.956 159.057 323.313 160.169C323.703 161.384 322.818 162.86 323.523 163.921C323.655 164.094 323.821 164.238 324.011 164.344C324.2 164.449 324.41 164.514 324.626 164.534C324.842 164.554 325.06 164.529 325.266 164.46C325.471 164.391 325.661 164.279 325.822 164.133C326.119 163.807 326.278 163.378 326.265 162.937C326.252 162.495 326.068 162.076 325.752 161.769C325.334 161.386 324.735 161.221 324.386 160.774C324.205 160.516 324.084 160.22 324.032 159.908C323.842 159.009 323.873 158.077 324.121 157.192C324.214 156.968 324.238 156.72 324.189 156.482C324.032 156.024 323.414 155.991 322.981 155.778C321.996 155.295 322.02 153.899 322.192 152.811C322.077 153.535 319.511 152.303 319.242 151.893C318.708 151.079 318.999 149.507 318.893 148.606C317.741 149.165 317.296 150.819 317.888 151.958Z" fill="#3F3D56"/>
<path d="M292.032 166.292C291.559 165.759 290.845 165.201 290.21 165.522C289.726 165.768 289.592 166.441 289.782 166.952C290.014 167.448 290.37 167.875 290.816 168.19C292.139 169.287 293.564 170.277 294.719 171.552C296.785 173.834 297.88 176.914 300.127 179.016C300.578 179.503 301.176 179.829 301.829 179.942C302.484 180.003 303.219 179.582 303.295 178.926C303.357 178.385 302.981 177.901 302.615 177.5C301.742 176.546 300.786 175.668 299.962 174.671C299.582 174.288 299.343 173.786 299.284 173.247C299.28 172.711 299.767 172.149 300.285 172.282C299.655 172.12 299.189 171.066 298.265 170.868C297.493 170.702 297.306 171.183 296.387 170.787C294.635 170.031 293.26 167.672 292.032 166.292Z" fill="#3F3D56"/>
<path d="M333.21 114.399C332.707 114.249 332.213 114.071 331.729 113.867C330.428 113.475 328.706 114.436 328.88 115.79C328.995 116.69 329.828 117.296 330.288 118.077C330.971 119.234 330.789 120.702 330.43 121.998C330.342 122.399 330.175 122.779 329.938 123.114C329.607 123.468 329.211 123.754 328.772 123.957C327.015 124.947 325.465 126.27 324.209 127.853C324.072 127.999 323.977 128.179 323.933 128.375C323.871 128.832 324.329 129.165 324.587 129.546C325.161 130.394 324.746 131.533 324.803 132.557C324.794 132.701 324.823 132.846 324.885 132.977C324.947 133.107 325.042 133.22 325.16 133.303C325.506 133.48 325.916 133.18 326.104 132.838C326.726 131.705 326.257 129.885 327.425 129.339C327.646 129.235 327.914 129.192 328.062 128.996C328.295 128.687 328.07 128.229 328.188 127.859C328.366 127.304 329.122 127.279 329.702 127.303C330.701 127.345 331.7 127.212 332.653 126.909C333.027 126.819 333.367 126.622 333.63 126.34C333.979 125.902 333.948 125.279 333.878 124.723C333.529 121.947 332.654 119.264 331.301 116.819C332.327 116.951 333.443 117.065 334.329 116.527C334.824 116.226 335.419 115.327 335.173 114.714C334.784 113.746 334.082 114.561 333.21 114.399Z" fill="#3F3D56"/>
<path d="M201.677 129.665C201.8 130.327 201.921 131.024 201.705 131.661C201.489 132.298 200.81 132.831 200.169 132.636C199.672 132.484 199.384 131.981 199.031 131.598C197.066 129.466 192.634 130.701 191.42 128.063C190.925 126.987 191.261 125.698 190.923 124.561C190.71 123.905 190.286 123.338 189.718 122.95C189.149 122.562 188.468 122.374 187.783 122.417C187.157 122.508 186.548 122.691 185.975 122.959C182.138 124.504 178.109 125.516 174 125.969C173.219 126.017 172.447 126.158 171.699 126.39C170.012 127.005 168.859 128.577 168.039 130.181C167.219 131.785 166.613 133.522 165.513 134.947C164.357 136.445 162.737 137.494 161.226 138.628C160.644 139.005 160.159 139.516 159.812 140.118C159.484 140.793 159.503 141.58 159.528 142.331L159.837 151.457C159.877 152.63 159.927 153.846 160.45 154.896C161.102 156.208 162.392 157.067 163.286 158.226C164.199 159.417 164.675 160.888 164.632 162.391C164.613 162.995 164.554 163.709 165.022 164.089C165.307 164.274 165.64 164.371 165.979 164.365L178.262 165.376C180.423 165.553 182.817 165.846 184.228 167.5C184.894 168.281 185.428 169.404 186.448 169.487C186.886 169.523 187.311 169.343 187.749 169.308C188.852 169.22 189.822 170.062 190.434 170.989C191.36 172.403 191.781 174.091 191.626 175.776C191.526 176.834 191.199 177.862 191.129 178.923C190.861 182.957 194.265 186.462 194.33 190.505C194.369 192.883 193.246 195.105 192.151 197.214C193.918 199.905 192.471 203.488 193.175 206.634C193.842 209.619 196.319 211.955 196.936 214.951C197.218 216.322 197.234 218.01 198.438 218.716C198.966 218.975 199.551 219.093 200.137 219.058C203.674 219.101 207.171 218.301 210.341 216.724C211.829 215.982 213.371 214.874 213.631 213.225C213.84 211.896 213.169 210.408 213.852 209.25C214.657 207.885 216.718 207.993 217.902 206.944C219.823 205.241 218.325 201.994 219.104 199.542C219.803 197.338 222.211 196.167 223.405 194.188C223.875 193.338 224.212 192.419 224.405 191.466C224.951 189.187 225.292 186.862 225.422 184.522C225.453 183.1 225.558 181.68 225.734 180.268C227.021 172.233 234.926 166.852 237.492 159.132C237.737 158.395 237.852 157.413 237.2 156.996C236.813 156.81 236.374 156.764 235.957 156.865L230.295 157.582C229.592 157.672 228.846 157.755 228.2 157.461C227.555 157.168 227.092 156.347 227.434 155.723C228.396 153.972 226.418 151.76 225.539 149.966C223.172 145.135 220.353 140.541 217.121 136.247C216.914 136.026 216.785 135.743 216.752 135.441L218.359 135.495C217.817 133.539 216.922 131.398 215.031 130.683C213.965 130.279 212.785 130.419 211.648 130.481C208.391 130.66 204.9 130.166 201.677 129.665Z" fill="#3F3D56"/>
<path d="M211.651 85.5813C212.503 86.4908 213.458 87.4551 214.691 87.6136C216.868 87.8936 218.434 85.6304 219.431 83.6645C219.468 84.1657 219.698 84.6326 220.072 84.966C220.446 85.2994 220.935 85.4729 221.435 85.4496C221.972 85.3587 222.485 85.1572 222.942 84.8575C227.256 82.4878 232.089 81.2322 237.006 81.2036C236.959 80.8292 237.051 80.4506 237.265 80.1407C237.48 79.8308 237.8 79.6116 238.166 79.5254C239.166 79.3262 240.066 80.1949 240.548 81.0972C241.031 81.9995 241.331 83.0454 242.098 83.7208C242.864 84.3962 244.347 84.3668 244.65 83.3887C244.94 82.4498 243.967 81.649 243.158 81.0954C242.35 80.5418 241.497 79.5172 242.042 78.7003C246.173 77.7812 250.33 76.8586 254.557 76.676C255.277 76.7011 255.994 76.577 256.664 76.3112C257.309 75.9933 257.821 75.2716 257.648 74.5712C256.725 74.7891 255.759 74.726 254.873 74.3899C253.986 74.0538 253.219 73.4599 252.669 72.6839C258.535 72.1974 264.774 71.7828 269.972 74.5567C270.596 75.9026 267.417 77.0223 268.268 78.2362C268.539 78.6234 269.083 78.6688 269.554 78.6776C273.166 78.745 276.799 78.8111 280.371 78.263C281.676 78.0627 282.995 77.7799 284.305 77.9423C286.488 78.2129 288.355 79.6765 290.502 80.1537C291.376 80.3479 292.356 80.3545 293.093 79.8436C293.83 79.3327 294.146 78.1694 293.542 77.5053C295.564 75.5138 298.92 76.0074 301.587 76.9608C304.255 77.9142 306.781 79.4518 309.604 79.6643C311.629 79.8167 313.681 79.2695 315.682 79.6173C316.939 79.8359 318.109 80.3979 319.337 80.7432C321.661 81.3962 324.119 81.2584 326.531 81.2898C332.687 81.3732 338.775 82.589 344.495 84.8772C345.239 85.1206 345.921 85.5254 346.492 86.0629C347.024 86.6357 347.296 87.5257 346.938 88.2221L341.028 87.3542C341.585 88.4559 343.025 88.6437 344.195 89.0238C345.365 89.4038 346.578 90.7023 345.875 91.716C344.607 91.3104 343.459 92.5841 342.818 93.7561C342.178 94.928 341.398 96.3316 340.069 96.403C338.88 96.4669 337.441 95.4489 336.665 96.3578C337.737 97.716 338.654 99.1899 339.4 100.752C340.166 102.356 340.712 104.377 339.677 105.82C339.514 106.078 339.267 106.27 338.978 106.365C338.132 106.58 337.583 105.54 336.976 104.91C336.212 104.116 335.057 103.891 334.022 103.519C332.987 103.146 331.897 102.414 331.816 101.312C331.765 100.627 332.125 99.9895 332.391 99.356C332.837 98.2882 333.031 97.1315 332.96 95.9757C332.902 95.0458 332.643 94.0785 331.979 93.4289C331.314 92.7792 330.167 92.5731 329.454 93.1681C329.121 93.4458 328.854 93.8899 328.422 93.9065C327.658 93.9359 327.072 92.5977 326.457 93.0545C326.529 93.5412 326.429 94.0379 326.173 94.4578C324.34 96.0604 321.523 95.3824 319.159 95.9486C318.035 96.2719 316.959 96.7442 315.959 97.3531C315.585 97.5138 315.267 97.7824 315.044 98.1247C314.749 98.701 315.075 99.4391 315.595 99.8222C316.146 100.162 316.766 100.375 317.409 100.445C320.291 100.993 323.215 101.842 325.49 103.703C327.765 105.563 329.257 108.638 328.537 111.496L322.854 106.038C323.07 108.33 323.193 110.627 323.222 112.931C323.258 113.381 323.197 113.834 323.042 114.257C322.636 115.157 321.538 115.459 320.576 115.658C320.309 115.709 320.055 115.816 319.831 115.973C319.608 116.13 319.42 116.332 319.28 116.567C319.14 116.802 319.051 117.064 319.019 117.336C318.987 117.608 319.012 117.883 319.094 118.145C319.436 119.264 320.288 120.138 321.068 121.008C321.849 121.878 322.617 122.866 322.719 124.033C322.821 125.2 321.945 126.516 320.783 126.434C319.901 126.373 319.247 125.58 318.871 124.776C318.495 123.973 318.271 123.077 317.707 122.395C315.997 120.328 312.156 121.213 310.624 119.01C310.234 119.455 309.963 119.993 309.838 120.573C309.712 121.153 309.736 121.755 309.908 122.323C310.62 121.875 311.596 122.291 312.131 122.943C312.667 123.594 312.919 124.429 313.34 125.161C313.907 126.148 314.81 127.024 314.889 128.161C314.868 128.591 314.876 129.022 314.911 129.451C315.052 130.141 315.631 130.635 316.033 131.211C316.968 132.552 316.922 134.393 316.319 135.914C315.717 137.435 314.634 138.705 313.561 139.937C311.688 142.089 309.777 144.229 307.556 146.016C306.922 146.526 306.246 147.027 305.851 147.74C305.457 148.453 305.437 149.453 306.043 149.996C305.609 150.018 304.831 150.232 304.397 150.254C304.244 148.504 304.211 146.746 304.298 144.992C302.585 144.166 300.741 146.379 300.962 148.275C301.183 150.172 302.548 151.693 303.52 153.334C304.23 154.533 304.758 155.932 304.521 157.308C304.284 158.684 303.062 159.953 301.678 159.831C299.477 159.638 298.556 156.462 296.376 156.099C296.184 156.053 295.982 156.074 295.802 156.156C295.479 156.335 295.422 156.77 295.404 157.14C295.315 158.959 295.238 160.849 295.944 162.526C296.978 164.979 299.647 167.039 299.087 169.642C296.07 168.233 294.502 164.833 293.79 161.567C293.078 158.302 292.959 154.873 291.683 151.786C290.713 153.035 288.676 152.003 287.79 150.693C286.951 149.451 286.434 148.014 285.619 146.756C284.805 145.497 283.557 144.37 282.065 144.301C280.5 144.229 279.143 145.308 277.95 146.327C276.968 147.166 275.961 148.037 275.387 149.196C274.553 150.883 274.771 152.871 274.731 154.754C274.687 156.79 274.258 158.938 272.877 160.428C271.497 161.918 268.948 162.438 267.425 161.094C266.63 160.393 266.245 159.345 265.903 158.34C264.25 153.492 262.873 148.553 261.78 143.548C261.524 144.69 260.526 146.163 259.572 145.49C259.358 145.309 259.185 145.085 259.064 144.831C257.285 141.802 253.991 139.984 250.663 138.895C247.335 137.805 243.833 137.297 240.542 136.099C238.698 135.428 236.936 134.546 235.292 133.471C234.873 134.09 234.628 134.811 234.584 135.559C234.539 136.306 234.697 137.051 235.04 137.716C235.77 139.015 237.422 139.767 238.836 139.313C239.567 139.078 240.184 138.568 240.909 138.316C241.634 138.064 242.607 138.188 242.924 138.89C243.228 139.562 242.769 140.375 242.997 141.077C243.343 142.146 244.947 142.228 245.508 143.201C245.925 143.924 245.582 144.885 244.986 145.469C244.39 146.053 243.595 146.373 242.868 146.779C240.508 148.098 238.83 150.349 236.768 152.101C234.706 153.852 231.796 155.131 229.338 154.008C229.924 151.026 226.39 148.837 225.74 145.869C225.526 144.893 225.637 143.855 225.332 142.903C224.889 141.525 223.673 140.577 222.674 139.532C221.464 138.252 220.52 136.74 219.9 135.087C219.28 133.434 218.996 131.673 219.064 129.908C219.118 128.682 219.342 127.435 219.064 126.239C218.786 125.044 217.801 123.887 216.581 123.941C213.793 124.065 210.281 124.273 208.819 121.885C208.297 121.032 208.07 119.784 208.824 119.131C209.357 118.67 210.143 118.714 210.842 118.783L217.123 119.404C218.592 119.549 220.18 119.669 221.44 118.897C222.701 118.125 223.247 116.076 222.08 115.168C221.227 114.505 219.699 114.541 219.451 113.486C219.244 112.607 220.212 111.61 219.689 110.876C219.315 110.35 218.472 110.496 217.962 110.89C217.451 111.285 217.081 111.862 216.51 112.161C215.507 112.685 214.31 112.186 213.232 111.847C212.153 111.508 210.708 111.48 210.185 112.486C209.6 113.612 210.703 115.087 210.123 116.215C209.355 117.706 206.756 116.857 205.679 118.14C204.442 119.612 206.52 121.807 206.103 123.687C205.571 123.952 204.979 124.074 204.385 124.04C203.792 124.007 203.218 123.819 202.718 123.496C202.227 123.16 201.835 122.696 201.585 122.155C201.335 121.613 201.235 121.013 201.297 120.419C201.4 119.573 201.839 118.71 201.545 117.91C201.307 117.264 200.662 116.879 200.062 116.546L193.958 113.156C193.391 114.213 194.108 115.522 195.004 116.316C195.9 117.109 197.022 117.707 197.61 118.751C197.983 119.475 198.066 120.314 197.844 121.097C197.621 121.881 197.11 122.549 196.414 122.966C196.326 123.027 196.227 123.067 196.123 123.086C196.018 123.104 195.911 123.099 195.808 123.072C195.711 123.015 195.626 122.938 195.559 122.847C195.491 122.756 195.443 122.652 195.416 122.542C194.339 119.772 192.722 117.041 190.137 115.594C187.552 114.148 183.838 114.445 182.143 116.882C181.74 117.461 181.47 118.121 181.119 118.733C179.256 121.985 175.261 123.525 171.528 123.424C171.163 123.445 170.8 123.359 170.482 123.177C169.879 122.758 169.906 121.87 169.998 121.139L170.39 118.037C170.469 117.414 170.583 116.726 171.073 116.337C171.765 115.789 172.762 116.135 173.643 116.122C174.31 116.091 174.951 115.854 175.48 115.444C176.009 115.034 176.399 114.47 176.598 113.83C176.776 113.183 176.775 112.499 176.595 111.853C176.415 111.207 176.063 110.622 175.577 110.162C175.173 109.781 174.631 109.302 174.844 108.789C174.93 108.647 175.045 108.525 175.181 108.432C175.318 108.34 175.474 108.278 175.637 108.253C177.218 107.791 178.89 107.67 180.445 107.125C182 106.581 183.509 105.466 183.877 103.853C183.99 103.358 184.041 102.759 184.483 102.514C184.705 102.42 184.943 102.371 185.184 102.37C186.027 102.25 186.795 101.816 187.336 101.155C187.877 100.494 188.152 99.6538 188.108 98.799C188.853 98.2756 189.897 98.6606 190.619 99.2174C191.34 99.7741 191.976 100.51 192.854 100.75C194.489 101.197 196.069 99.7419 197.764 99.7352C198.477 99.7324 199.214 99.9856 199.885 99.7428C200.564 99.4966 200.97 98.8167 201.492 98.3143C202.014 97.812 202.929 97.5056 203.411 98.0467L203 94.9933C203.827 95.203 204.688 95.2327 205.526 95.0803C206.365 94.928 207.161 94.5972 207.861 94.11L202.56 92.3099C202.376 92.2635 202.205 92.172 202.065 92.0435C201.679 91.6264 202.062 90.9764 202.375 90.5023C203.125 89.3681 203.251 87.4997 202.018 86.9351C201.176 86.5496 200.21 87.0123 199.403 87.4649L195.534 89.6331C195.411 90.3723 196.31 90.7912 196.867 91.2891C197.204 91.5903 197.443 91.987 197.552 92.427C197.661 92.8671 197.634 93.3299 197.477 93.7547C197.319 94.1795 197.037 94.5463 196.668 94.8072C196.299 95.068 195.86 95.2106 195.409 95.2161C195.664 95.549 195.841 95.9353 195.927 96.3463C196.013 96.7572 196.006 97.1824 195.907 97.5903L193.303 97.7785C193.011 97.8376 192.708 97.778 192.459 97.6129C192.18 97.3644 192.218 96.9289 192.154 96.5603C191.998 95.6706 191.131 95.0471 190.247 94.8872C189.362 94.7274 188.457 94.9323 187.581 95.1346C187.209 95.2692 186.801 95.2597 186.435 95.1081C186.226 94.9713 186.067 94.7693 185.982 94.5331C185.598 93.5973 185.957 92.4973 186.574 91.697C187.19 90.8967 188.035 90.3117 188.793 89.6455C190.607 88.0464 191.939 85.9695 192.64 83.6495C194.073 83.0461 195.556 82.2261 196.99 81.6227C199.199 80.4984 201.677 80.0159 204.144 80.2295L208.998 80.3227C210.435 80.3503 211.91 80.3856 213.239 80.9361C214.568 81.4867 215.735 82.6775 215.827 84.1189C215.855 84.2821 215.841 84.4497 215.786 84.6059C215.732 84.7621 215.639 84.9019 215.516 85.0121C215.328 85.115 215.116 85.1632 214.902 85.1511C213.562 85.1984 212.991 85.534 211.651 85.5813Z" fill="#3F3D56"/>
<path d="M172.966 100.868C173.156 100.688 173.292 100.458 173.36 100.205C173.429 99.9519 173.426 99.6846 173.353 99.4327C172.892 99.2537 172.39 99.2078 171.904 99.3C171.418 99.3922 170.967 99.619 170.602 99.9547C170.315 100.247 170.067 100.576 169.866 100.934C169.228 101.979 168.664 103.229 169.033 104.397C169.063 104.525 169.119 104.645 169.196 104.751C169.272 104.857 169.37 104.946 169.481 105.013C169.647 105.08 169.826 105.108 170.004 105.096C170.706 105.095 171.408 105.051 172.105 104.966C172.534 104.913 173.031 104.791 173.197 104.391C173.414 103.865 172.888 103.269 173.041 102.72C173.142 102.475 173.295 102.254 173.49 102.075C173.586 101.984 173.66 101.872 173.706 101.748C173.752 101.624 173.768 101.49 173.754 101.358C173.692 101.101 173.3 100.955 173.159 101.178" fill="#3F3D56"/>
<path d="M176.609 96.1213C175.985 95.9772 175.342 95.9366 174.704 96.0011C174.563 95.9968 174.424 96.0287 174.299 96.0937C174.177 96.1837 174.089 96.3118 174.048 96.4577C173.914 96.8918 173.947 97.3609 174.141 97.7716C174.335 98.1823 174.676 98.5044 175.096 98.6738C175.325 98.7266 175.544 98.8151 175.746 98.9361C176.284 99.3562 175.941 100.215 176.043 100.892C176.157 101.653 176.89 102.292 176.756 103.049C176.65 103.646 176.016 104.118 176.118 104.716C176.225 105.342 177.015 105.53 177.645 105.58C178.01 105.644 178.385 105.601 178.726 105.455C179.068 105.22 179.311 104.866 179.409 104.462C179.667 103.691 179.775 102.877 179.728 102.065C179.725 101.695 179.633 101.332 179.459 101.006C179.269 100.749 179.059 100.507 178.83 100.283C177.624 98.8725 178.894 96.7685 176.609 96.1213Z" fill="#3F3D56"/>
<path opacity="0.8" d="M335.274 206.618C335.274 206.618 242.861 153.306 203.076 163.407C203.076 163.407 118.759 172.526 108.987 192.589C108.987 192.589 82.1845 108.411 72.4127 105.605" stroke="#6C63FF" stroke-width="2" stroke-miterlimit="10"/>
<path opacity="0.8" d="M108.987 192.589C124.483 151.061 264.08 105.044 264.08 105.044C244.257 110.095 203.076 163.407 203.076 163.407C203.076 163.407 115.967 99.7129 72.4127 105.605C72.4127 105.605 264.219 111.919 335.274 206.618" stroke="#6C63FF" stroke-width="2" stroke-miterlimit="10"/>
<path d="M72.4127 109.674C74.6486 109.674 76.4611 107.852 76.4611 105.605C76.4611 103.358 74.6486 101.537 72.4127 101.537C70.1769 101.537 68.3644 103.358 68.3644 105.605C68.3644 107.852 70.1769 109.674 72.4127 109.674Z" fill="#92DCE5"/>
<path d="M108.987 196.657C111.223 196.657 113.036 194.836 113.036 192.588C113.036 190.341 111.223 188.52 108.987 188.52C106.751 188.52 104.939 190.341 104.939 192.588C104.939 194.836 106.751 196.657 108.987 196.657Z" fill="#92DCE5"/>
<path d="M264.08 109.113C266.316 109.113 268.128 107.291 268.128 105.044C268.128 102.797 266.316 100.976 264.08 100.976C261.844 100.976 260.031 102.797 260.031 105.044C260.031 107.291 261.844 109.113 264.08 109.113Z" fill="#92DCE5"/>
<path d="M335.274 210.687C337.51 210.687 339.323 208.865 339.323 206.618C339.323 204.371 337.51 202.549 335.274 202.549C333.039 202.549 331.226 204.371 331.226 206.618C331.226 208.865 333.039 210.687 335.274 210.687Z" fill="#92DCE5"/>
<path d="M203.076 167.476C205.312 167.476 207.124 165.654 207.124 163.407C207.124 161.16 205.312 159.338 203.076 159.338C200.84 159.338 199.027 161.16 199.027 163.407C199.027 165.654 200.84 167.476 203.076 167.476Z" fill="#92DCE5"/>
</g>
<defs>
<clipPath id="clip0_2_106">
<rect width="398" height="297.112" fill="white"/>
</clipPath>
</defs>
</svg>
