<svg width="398" height="313" viewBox="0 0 398 313" fill="none" xmlns="http://www.w3.org/2000/svg">
<g clip-path="url(#clip0_13_780)">
<path d="M362.284 285.261C354.654 293.429 345.912 300.482 336.315 306.212C336.095 306.347 335.871 306.474 335.646 306.606L320.109 292.854C320.272 292.703 320.453 292.532 320.648 292.345C332.225 281.353 389.697 204.493 393.526 185.777C393.262 187.336 396.982 248.485 362.284 285.261Z" fill="#F0F0F0"/>
<path d="M339.313 308.865C339.019 308.936 338.72 309.001 338.42 309.061L326.764 298.744C326.992 298.665 327.258 298.57 327.562 298.465C332.564 296.695 347.459 291.349 362.283 285.26C378.211 278.714 394.063 271.318 397.472 266.581C396.741 267.682 374.214 301.061 339.313 308.865Z" fill="#F0F0F0"/>
<path d="M362.069 81.8374H360.409V36.3633C360.409 32.907 359.728 29.4846 358.405 26.2914C357.083 23.0982 355.144 20.1968 352.7 17.7528C350.256 15.3089 347.355 13.3702 344.161 12.0476C340.968 10.7249 337.546 10.0441 334.089 10.0441H237.746C234.29 10.0441 230.868 10.7249 227.674 12.0475C224.481 13.3702 221.58 15.3088 219.136 17.7528C216.692 20.1968 214.753 23.0981 213.431 26.2913C212.108 29.4845 211.427 32.907 211.427 36.3632V285.838C211.427 289.294 212.108 292.716 213.431 295.91C214.753 299.103 216.692 302.004 219.136 304.448C221.58 306.892 224.481 308.831 227.674 310.153C230.868 311.476 234.29 312.157 237.746 312.157H334.089C337.546 312.157 340.968 311.476 344.161 310.154C347.354 308.831 350.256 306.892 352.7 304.448C355.144 302.004 357.082 299.103 358.405 295.91C359.728 292.717 360.409 289.294 360.409 285.838V114.207H362.069V81.8374Z" fill="#3F3D56"/>
<path d="M354.806 36.5441V285.655C354.806 288.237 354.298 290.793 353.31 293.177C352.322 295.562 350.874 297.728 349.048 299.553C347.223 301.378 345.055 302.825 342.67 303.812C340.286 304.8 337.729 305.307 335.148 305.306H238.341C235.761 305.306 233.205 304.798 230.821 303.811C228.437 302.823 226.271 301.376 224.446 299.551C222.621 297.726 221.173 295.56 220.186 293.176C219.198 290.791 218.69 288.236 218.69 285.655V36.5441C218.69 33.9635 219.198 31.4081 220.186 29.0238C221.173 26.6396 222.621 24.4732 224.446 22.6484C226.271 20.8236 228.437 19.3762 230.821 18.3887C233.205 17.4012 235.761 16.8931 238.341 16.8933H250.089C249.513 18.3112 249.293 19.8492 249.45 21.3718C249.608 22.8944 250.137 24.3551 250.991 25.6254C251.845 26.8957 252.998 27.9367 254.349 28.6568C255.699 29.3768 257.206 29.754 258.737 29.755H313.93C315.461 29.7565 316.97 29.3809 318.322 28.6615C319.674 27.9421 320.828 26.901 321.683 25.6299C322.537 24.3589 323.066 22.8971 323.222 21.3734C323.378 19.8498 323.157 18.3111 322.578 16.8933H335.148C337.729 16.8923 340.286 17.3999 342.67 18.3871C345.055 19.3742 347.223 20.8215 349.048 22.6464C350.874 24.4712 352.322 26.6378 353.31 29.0224C354.298 31.407 354.806 33.9629 354.806 36.5441Z" fill="white"/>
<path d="M324.693 165.996H239.603C238.112 165.994 236.683 165.401 235.63 164.347C234.576 163.293 233.983 161.865 233.981 160.374V157.576C233.983 156.086 234.576 154.657 235.63 153.603C236.683 152.549 238.112 151.956 239.603 151.955H324.693C326.183 151.956 327.612 152.549 328.666 153.603C329.72 154.657 330.313 156.086 330.314 157.576V160.374C330.313 161.865 329.72 163.293 328.666 164.347C327.612 165.401 326.183 165.994 324.693 165.996Z" fill="#F0F0F0"/>
<path d="M324.693 190.116H239.603C238.112 190.114 236.683 189.521 235.63 188.468C234.576 187.414 233.983 185.985 233.981 184.494V181.696C233.983 180.206 234.576 178.777 235.63 177.723C236.683 176.669 238.112 176.076 239.603 176.075H324.693C326.183 176.076 327.612 176.669 328.666 177.723C329.72 178.777 330.313 180.206 330.314 181.696V184.494C330.313 185.985 329.72 187.414 328.666 188.468C327.612 189.521 326.183 190.114 324.693 190.116Z" fill="#F0F0F0"/>
<path d="M328.949 160.601H243.859C242.294 160.599 240.794 159.977 239.687 158.87C238.581 157.764 237.958 156.264 237.957 154.699V151.901C237.958 150.336 238.581 148.835 239.687 147.729C240.794 146.622 242.294 146 243.859 145.998H328.949C330.514 146 332.015 146.622 333.121 147.729C334.228 148.835 334.85 150.336 334.852 151.901V154.699C334.85 156.264 334.228 157.764 333.121 158.87C332.015 159.977 330.514 160.599 328.949 160.601ZM243.859 147.122C242.592 147.124 241.378 147.628 240.482 148.523C239.586 149.419 239.082 150.634 239.081 151.901V154.699C239.082 155.966 239.586 157.18 240.482 158.076C241.378 158.972 242.592 159.476 243.859 159.477H328.949C330.216 159.476 331.431 158.972 332.327 158.076C333.222 157.18 333.726 155.966 333.728 154.699V151.901C333.726 150.634 333.222 149.419 332.327 148.523C331.431 147.628 330.216 147.124 328.949 147.122H243.859Z" fill="#3F3D56"/>
<path d="M328.949 184.721H243.859C242.294 184.72 240.794 184.097 239.687 182.991C238.581 181.884 237.958 180.384 237.957 178.819V176.021C237.958 174.456 238.581 172.956 239.687 171.849C240.794 170.742 242.294 170.12 243.859 170.118H328.949C330.514 170.12 332.015 170.742 333.121 171.849C334.228 172.956 334.85 174.456 334.852 176.021V178.819C334.85 180.384 334.228 181.884 333.121 182.991C332.015 184.097 330.514 184.72 328.949 184.721ZM243.859 171.242C242.592 171.244 241.378 171.748 240.482 172.644C239.586 173.539 239.082 174.754 239.081 176.021V178.819C239.082 180.086 239.586 181.3 240.482 182.196C241.378 183.092 242.592 183.596 243.859 183.597H328.949C330.216 183.596 331.431 183.092 332.327 182.196C333.222 181.3 333.726 180.086 333.728 178.819V176.021C333.726 174.754 333.222 173.539 332.327 172.644C331.431 171.748 330.216 171.244 328.949 171.242H243.859Z" fill="#3F3D56"/>
<path d="M354.806 36.5441V90.7293C346.196 92.9944 337.182 93.2543 328.456 91.4889C319.73 89.7236 311.525 85.98 304.473 80.5463C297.421 75.1125 291.709 68.1334 287.777 60.1459C283.845 52.1584 281.798 43.3754 281.793 34.4726C281.793 32.8835 281.857 31.311 281.985 29.755H313.93C315.461 29.7565 316.97 29.3809 318.322 28.6615C319.674 27.9421 320.828 26.901 321.683 25.6299C322.537 24.3589 323.066 22.8971 323.222 21.3734C323.378 19.8498 323.157 18.3111 322.578 16.8933H335.148C337.729 16.8923 340.286 17.3999 342.67 18.3871C345.055 19.3742 347.223 20.8215 349.048 22.6464C350.874 24.4712 352.322 26.6378 353.31 29.0224C354.298 31.407 354.806 33.9629 354.806 36.5441Z" fill="#F0F0F0"/>
<path d="M267.605 301.922C267.605 303.064 267.562 304.192 267.47 305.306H238.341C235.761 305.306 233.205 304.798 230.821 303.811C228.437 302.823 226.271 301.376 224.446 299.551C222.621 297.726 221.173 295.56 220.186 293.176C219.198 290.791 218.69 288.236 218.69 285.655V259.01C224.796 258.216 231.001 258.732 236.892 260.525C242.782 262.317 248.223 265.345 252.851 269.405C257.48 273.466 261.19 278.466 263.734 284.073C266.278 289.68 267.597 295.765 267.605 301.922Z" fill="#92DCE5"/>
<path d="M32.6727 255.169C33.4912 255.529 34.4191 255.55 35.2528 255.226C36.0865 254.903 36.7579 254.263 37.1199 253.445L63.3605 193.973C63.9611 192.612 64.1446 191.104 63.8879 189.638C63.6311 188.173 62.9455 186.817 61.9179 185.741C60.8903 184.666 59.5669 183.919 58.1148 183.595C56.6628 183.272 55.1475 183.386 53.7605 183.924C52.1581 184.536 50.8171 185.684 49.9659 187.174C49.8305 187.409 49.7077 187.652 49.598 187.9L23.3574 247.372C23.1785 247.777 23.0813 248.214 23.0711 248.657C23.061 249.1 23.1382 249.54 23.2983 249.953C23.4584 250.366 23.6984 250.744 24.0044 251.064C24.3103 251.384 24.6764 251.641 25.0817 251.82L32.6727 255.169Z" fill="#92DCE5"/>
<path d="M62.2832 218.389L36.3279 212.621L42.7521 195.626C43.8466 191.472 46.3935 187.848 49.9309 185.411C53.4684 182.975 57.7621 181.886 62.0332 182.344L62.2833 182.372L62.2832 218.389Z" fill="#2F2E41"/>
<path d="M114.709 256.02C113.945 256.018 113.199 255.796 112.559 255.379C111.919 254.963 111.414 254.369 111.104 253.672L84.8639 194.2C84.0294 192.308 83.9518 190.168 84.6471 188.22C85.3424 186.272 86.7578 184.665 88.602 183.729C90.4461 182.793 92.5789 182.6 94.5614 183.188C96.544 183.777 98.2255 185.103 99.2601 186.894C99.4056 187.147 99.5374 187.407 99.6551 187.674L125.896 247.146C126.317 248.1 126.342 249.183 125.964 250.156C125.587 251.13 124.839 251.913 123.884 252.334L116.036 255.797L116.032 255.788C115.607 255.941 115.16 256.019 114.709 256.02Z" fill="#92DCE5"/>
<path d="M78.4113 235.597C77.5171 235.598 76.6598 235.954 76.0274 236.586C75.3951 237.219 75.0395 238.076 75.0385 238.97V308.122C75.0395 309.016 75.3951 309.874 76.0274 310.506C76.6598 311.138 77.5171 311.494 78.4113 311.495H86.7084C87.6026 311.494 88.4599 311.138 89.0922 310.506C89.7246 309.874 90.0802 309.016 90.0812 308.122V238.97C90.0802 238.076 89.7246 237.219 89.0922 236.586C88.4599 235.954 87.6026 235.598 86.7084 235.597H78.4113Z" fill="#92DCE5"/>
<path d="M62.0009 235.597C61.1067 235.598 60.2494 235.954 59.617 236.586C58.9847 237.219 58.6291 238.076 58.6281 238.97V308.122C58.6291 309.016 58.9847 309.874 59.617 310.506C60.2494 311.138 61.1067 311.494 62.0009 311.495H70.2981C71.1923 311.494 72.0496 311.138 72.682 310.506C73.3143 309.874 73.67 309.016 73.671 308.122V238.97C73.67 238.076 73.3143 237.219 72.682 236.586C72.0496 235.954 71.1923 235.598 70.2981 235.597H62.0009Z" fill="#92DCE5"/>
<path d="M74.1067 163.149C89.9405 163.149 102.776 150.313 102.776 134.479C102.776 118.645 89.9405 105.81 74.1067 105.81C58.273 105.81 45.4373 118.645 45.4373 134.479C45.4373 150.313 58.273 163.149 74.1067 163.149Z" fill="#92DCE5"/>
<path d="M83.6474 146.514C85.5058 146.462 87.8187 146.398 89.6006 145.096C90.1311 144.693 90.5671 144.178 90.8778 143.588C91.1886 142.999 91.3666 142.348 91.3995 141.683C91.4317 141.209 91.3541 140.735 91.1726 140.297C90.9912 139.859 90.7109 139.469 90.3537 139.157C89.423 138.37 88.0641 138.186 86.5995 138.616L88.1169 127.528L87.003 127.375L85.2192 140.411L86.1494 139.984C87.2278 139.49 88.7081 139.238 89.6279 140.015C89.8538 140.219 90.0298 140.471 90.1422 140.753C90.2546 141.036 90.3003 141.34 90.2759 141.643C90.2487 142.138 90.115 142.622 89.884 143.062C89.653 143.501 89.3301 143.885 88.9373 144.188C87.5507 145.201 85.7071 145.332 83.6161 145.39L83.6474 146.514Z" fill="#2F2E41"/>
<path d="M99.6807 128.484H93.6255V129.608H99.6807V128.484Z" fill="#2F2E41"/>
<path d="M80.5677 128.484H74.5125V129.608H80.5677V128.484Z" fill="#2F2E41"/>
<path d="M102.514 256.369L92.1953 181.041C92.0846 180.233 91.6852 179.493 91.0708 178.957C90.4564 178.421 89.6687 178.126 88.8534 178.126H81.0647C81.0971 177.94 81.114 177.752 81.1152 177.564V174.753C81.1151 173.859 80.7598 173.001 80.1272 172.368C79.4947 171.736 78.6368 171.38 77.7423 171.38H70.9965C70.102 171.38 69.2441 171.736 68.6115 172.368C67.979 173.001 67.6237 173.859 67.6236 174.753V177.564C67.6248 177.752 67.6417 177.94 67.6741 178.126H59.8853C59.0701 178.126 58.2824 178.421 57.668 178.957C57.0537 179.493 56.6542 180.233 56.5435 181.041L46.2247 256.369C46.1593 256.846 46.1969 257.332 46.3349 257.793C46.4729 258.254 46.7081 258.681 47.0246 259.044C47.3412 259.407 47.7319 259.698 48.1703 259.897C48.6087 260.096 49.0847 260.199 49.5663 260.199H99.1724C99.654 260.199 100.13 260.096 100.568 259.897C101.007 259.698 101.398 259.407 101.714 259.044C102.031 258.681 102.266 258.254 102.404 257.793C102.542 257.332 102.579 256.846 102.514 256.369Z" fill="#2F2E41"/>
<path d="M86.4556 218.389V182.372L86.7056 182.344C90.982 181.887 95.2805 182.979 98.8202 185.421C102.36 187.864 104.906 191.495 105.996 195.656L112.411 212.621L86.4556 218.389Z" fill="#2F2E41"/>
<path d="M72.6631 164.043L52.8331 156.346C49.5905 155.088 46.3297 153.867 43.1043 152.565C41.7227 152.084 40.45 151.334 39.3595 150.358C38.4102 149.353 37.7632 148.101 37.4926 146.746C36.8048 143.838 36.9292 140.66 36.9782 137.694C37.0163 134.448 37.2834 131.21 37.7775 128.002C38.6434 121.974 40.6771 116.173 43.7645 110.924C49.3256 101.799 58.9071 94.934 69.9284 95.4819C75.0309 95.7355 80.1626 97.5665 83.9536 101.055C84.3491 101.528 84.7928 101.958 85.2775 102.338C85.6145 102.464 85.9811 102.489 86.3319 102.409C86.7945 102.379 87.2575 102.356 87.7209 102.341C89.3288 102.273 90.9395 102.34 92.536 102.543C95.4455 102.857 98.203 104.002 100.479 105.841C102.374 107.471 103.915 109.771 104.074 112.328C104.151 113.502 103.956 114.677 103.507 115.764C103.057 116.851 102.364 117.82 101.48 118.596C99.1143 120.59 95.7388 119.889 92.9009 119.739L82.5047 119.188L77.2373 118.909C76.1527 118.852 76.1559 120.538 77.2373 120.596L91.2375 121.337C93.4874 121.457 95.8061 121.749 98.0577 121.614C99.7879 121.535 101.44 120.871 102.742 119.729C103.932 118.637 104.818 117.254 105.314 115.717C105.81 114.18 105.9 112.541 105.574 110.959C104.852 107.509 102.284 104.655 99.2738 102.957C95.1779 100.647 90.2862 100.425 85.7031 100.767L86.2994 101.014C81.1151 95.4496 73.174 93.1003 65.719 93.9224C57.8477 94.7905 50.8468 99.1818 45.8167 105.186C40.2085 111.881 37.1524 120.229 35.9642 128.813C35.346 133.448 35.1424 138.129 35.356 142.799C35.3472 144.859 35.6996 146.905 36.3972 148.843C37.1932 150.729 38.6324 152.272 40.4588 153.198C42.5528 154.208 44.7055 155.093 46.9054 155.846L54.2112 158.681L68.5619 164.252L72.2148 165.669C73.2271 166.062 73.6657 164.432 72.6631 164.043Z" fill="white"/>
<path d="M41.4838 106.733C39.7605 106.733 38.0758 106.222 36.6429 105.265C35.2101 104.308 34.0933 102.947 33.4338 101.355C32.7743 99.7624 32.6017 98.0104 32.9379 96.3202C33.2741 94.63 34.104 93.0775 35.3226 91.8589C36.5411 90.6403 38.0937 89.8105 39.7839 89.4742C41.4741 89.138 43.2261 89.3106 44.8182 89.9701C46.4104 90.6296 47.7712 91.7464 48.7286 93.1793C49.686 94.6122 50.1971 96.2968 50.1971 98.0201C50.1945 100.33 49.2756 102.545 47.6421 104.178C46.0086 105.812 43.7939 106.731 41.4838 106.733ZM41.4838 90.9933C40.094 90.9933 38.7354 91.4054 37.5799 92.1775C36.4243 92.9496 35.5237 94.0471 34.9918 95.3311C34.46 96.615 34.3208 98.0279 34.592 99.391C34.8631 100.754 35.5323 102.006 36.5151 102.989C37.4978 103.972 38.7499 104.641 40.1129 104.912C41.476 105.183 42.8889 105.044 44.1728 104.512C45.4568 103.98 46.5543 103.08 47.3264 101.924C48.0985 100.768 48.5106 99.4099 48.5106 98.0201C48.5085 96.1571 47.7675 94.371 46.4502 93.0537C45.1329 91.7364 43.3468 90.9954 41.4838 90.9933Z" fill="white"/>
<path d="M187.138 160.73L168.279 146.306L153.855 165.166L172.714 179.59L187.138 160.73Z" fill="#F0F0F0"/>
<path d="M80.553 31.9679C83.5328 31.9655 86.4717 32.661 89.1345 33.9985C91.7972 35.3361 94.1097 37.2786 95.8869 39.6705L106.899 25.2718L73.8569 0L48.5853 33.0424L62.8264 43.9345C64.2515 40.4 66.7007 37.3722 69.8594 35.2399C73.018 33.1076 76.742 31.9681 80.553 31.9679Z" fill="#F0F0F0"/>
<path d="M397.438 312.479H0.562147C0.413056 312.479 0.270072 312.42 0.164649 312.314C0.0592256 312.209 0 312.066 0 311.917C0 311.768 0.0592256 311.625 0.164649 311.52C0.270072 311.414 0.413056 311.355 0.562147 311.355H397.438C397.587 311.355 397.73 311.414 397.835 311.52C397.941 311.625 398 311.768 398 311.917C398 312.066 397.941 312.209 397.835 312.314C397.73 312.42 397.587 312.479 397.438 312.479Z" fill="#3F3D56"/>
<path d="M300.573 219.202H260.176C258.685 219.2 257.257 218.607 256.203 217.553C255.149 216.5 254.556 215.071 254.554 213.58V210.782C254.556 209.292 255.149 207.863 256.203 206.809C257.257 205.755 258.685 205.162 260.176 205.161H300.573C302.063 205.162 303.492 205.755 304.546 206.809C305.6 207.863 306.193 209.292 306.194 210.782V213.58C306.193 215.071 305.6 216.5 304.546 217.553C303.492 218.607 302.063 219.2 300.573 219.202Z" fill="#92DCE5"/>
<path d="M304.829 213.808H264.432C262.867 213.806 261.367 213.183 260.26 212.077C259.154 210.97 258.532 209.47 258.53 207.905V205.107C258.532 203.542 259.154 202.042 260.26 200.935C261.367 199.829 262.867 199.206 264.432 199.204H304.829C306.394 199.206 307.895 199.829 309.001 200.935C310.108 202.042 310.73 203.542 310.732 205.107V207.905C310.73 209.47 310.108 210.97 309.001 212.077C307.895 213.183 306.394 213.806 304.829 213.808ZM264.432 200.329C263.165 200.33 261.951 200.834 261.055 201.73C260.159 202.626 259.655 203.84 259.654 205.107V207.905C259.655 209.172 260.159 210.386 261.055 211.282C261.951 212.178 263.165 212.682 264.432 212.683H304.829C306.096 212.682 307.311 212.178 308.207 211.282C309.102 210.386 309.606 209.172 309.608 207.905V205.107C309.606 203.84 309.102 202.626 308.207 201.73C307.311 200.834 306.096 200.33 304.829 200.329H264.432Z" fill="#3F3D56"/>
</g>
<defs>
<clipPath id="clip0_13_780">
<rect width="398" height="312.479" fill="white"/>
</clipPath>
</defs>
</svg>
