<svg width="398" height="238" viewBox="0 0 398 238" fill="none" xmlns="http://www.w3.org/2000/svg">
<g clip-path="url(#clip0_23_345)">
<path d="M304.718 235.258C299.623 230.952 296.528 224.15 297.339 217.529C298.151 210.908 303.178 204.82 309.699 203.414C316.221 202.008 323.654 205.901 325.635 212.271C326.725 199.989 327.981 187.193 334.511 176.734C340.423 167.264 350.663 160.488 361.762 159.276C372.86 158.063 384.545 162.642 391.467 171.402C398.388 180.161 400.083 192.896 395.235 202.953C391.664 210.362 385.085 215.875 378.191 220.361C355.916 234.733 329.2 240.578 302.958 236.819L304.718 235.258Z" fill="#F2F2F2"/>
<path d="M380.492 162.896C371.334 170.355 362.933 178.697 355.41 187.802C343.637 202.002 334.109 217.923 327.16 235.01C326.652 236.256 328.676 236.799 329.179 235.566C340.549 207.796 358.7 183.32 381.972 164.376C383.017 163.525 381.528 162.052 380.492 162.896Z" fill="white"/>
<path d="M128.123 234.088C135.121 228.174 139.372 218.832 138.258 209.737C137.143 200.643 130.238 192.282 121.281 190.351C112.324 188.42 102.114 193.766 99.3936 202.515C97.8964 185.647 96.1711 168.071 87.2027 153.706C79.082 140.699 65.0169 131.392 49.7734 129.727C34.53 128.061 18.4806 134.35 8.97379 146.382C-0.532998 158.413 -2.86069 175.904 3.79761 189.718C8.70255 199.893 17.7392 207.466 27.2073 213.627C57.4139 233.282 94.8852 241.48 130.54 236.233" fill="#F2F2F2"/>
<path d="M24.0478 134.699C36.6255 144.944 48.1643 156.401 58.4971 168.907C68.8316 181.399 77.93 194.865 85.6646 209.114C89.9878 217.108 93.8715 225.331 97.2982 233.747C97.9969 235.46 95.2167 236.205 94.5258 234.512C88.4562 219.673 80.9469 205.465 72.1056 192.092C63.3073 178.767 53.2371 166.326 42.0366 154.946C35.7015 148.512 29.0175 142.432 22.0148 136.732C20.5794 135.563 22.6243 133.54 24.0478 134.699Z" fill="white"/>
<path d="M285.691 237.428H118.714V66.1046C118.714 29.6543 148.368 0 184.818 0H219.586C256.036 0 285.691 29.6543 285.691 66.1046V237.428Z" fill="#F2F2F2"/>
<path d="M250.923 237.428H118.714V66.1046C118.677 52.1377 123.1 38.5238 131.338 27.245C131.642 26.8311 131.945 26.4225 132.257 26.0184C136.242 20.7923 140.984 16.1898 146.326 12.3627C146.628 12.1431 146.931 11.9273 147.238 11.7115C151.709 8.61784 156.545 6.08881 161.636 4.182C161.938 4.06741 162.246 3.95259 162.554 3.84247C167.159 2.19926 171.932 1.07368 176.785 0.486493C177.086 0.44539 177.395 0.413225 177.704 0.381061C182.434 -0.12466 187.204 -0.12466 191.934 0.381061C192.242 0.413225 192.551 0.445386 192.855 0.486933C197.708 1.07416 202.479 2.19961 207.083 3.84249C207.391 3.95262 207.699 4.06742 208.002 4.18224C213.03 6.06499 217.809 8.55628 222.232 11.6005C222.539 11.8116 222.847 12.0274 223.15 12.2432C226.145 14.3808 228.957 16.7623 231.56 19.3632C233.647 21.4495 235.591 23.6733 237.381 26.0198C237.692 26.4226 237.995 26.8311 238.298 27.2443C246.537 38.5232 250.96 52.1374 250.923 66.1046V237.428Z" fill="#CCCCCC"/>
<path d="M240.172 160.801C244.215 160.801 247.492 157.524 247.492 153.482C247.492 149.439 244.215 146.162 240.172 146.162C236.13 146.162 232.853 149.439 232.853 153.482C232.853 157.524 236.13 160.801 240.172 160.801Z" fill="#92DCE5"/>
<path d="M272.012 232.296H266.403L263.735 210.663L272.013 210.664L272.012 232.296Z" fill="#FFB8B8"/>
<path d="M262.397 230.694H273.213V237.504H255.587C255.587 236.61 255.763 235.724 256.105 234.898C256.447 234.071 256.949 233.321 257.581 232.688C258.214 232.056 258.965 231.554 259.791 231.212C260.617 230.87 261.503 230.694 262.397 230.694Z" fill="#2F2E41"/>
<path d="M299.918 232.296H294.309L291.641 210.663L299.919 210.664L299.918 232.296Z" fill="#FFB8B8"/>
<path d="M290.303 230.694H301.119V237.504H283.493C283.493 236.61 283.669 235.724 284.011 234.898C284.353 234.071 284.855 233.321 285.487 232.688C286.12 232.056 286.87 231.554 287.697 231.212C288.523 230.87 289.409 230.694 290.303 230.694Z" fill="#2F2E41"/>
<path d="M243.877 154.932C243.473 154.337 243.205 153.661 243.091 152.952C242.977 152.243 243.02 151.517 243.217 150.826C243.413 150.135 243.759 149.496 244.23 148.953C244.7 148.41 245.284 147.977 245.94 147.684L265.006 95.1357L274.387 100.255L252.619 150.472C253.037 151.607 253.025 152.856 252.585 153.983C252.144 155.109 251.306 156.035 250.228 156.585C249.151 157.134 247.909 157.27 246.738 156.965C245.568 156.66 244.55 155.937 243.877 154.932Z" fill="#FFB8B8"/>
<path d="M297.053 164.806C296.429 164.448 295.892 163.959 295.479 163.371C295.065 162.784 294.785 162.113 294.659 161.405C294.533 160.698 294.563 159.972 294.748 159.277C294.933 158.583 295.268 157.938 295.729 157.387L289.823 101.8L300.499 102.288L302.954 156.965C303.828 157.801 304.365 158.929 304.463 160.135C304.561 161.34 304.213 162.54 303.486 163.506C302.759 164.473 301.702 165.139 300.516 165.378C299.331 165.618 298.098 165.414 297.053 164.806Z" fill="#FFB8B8"/>
<path d="M280.021 85.4023C286.226 85.4023 291.257 80.3718 291.257 74.1664C291.257 67.9609 286.226 62.9304 280.021 62.9304C273.815 62.9304 268.785 67.9609 268.785 74.1664C268.785 80.3718 273.815 85.4023 280.021 85.4023Z" fill="#FFB8B8"/>
<path d="M296.981 152.163H263.107L263.147 151.9C263.208 151.506 269.185 112.357 264.777 99.5487C264.335 98.2901 264.373 96.9123 264.886 95.6806C265.399 94.4489 266.349 93.4504 267.553 92.8772C273.854 89.9103 285.947 86.257 296.155 95.123C297.657 96.4491 298.83 98.1065 299.581 99.9641C300.332 101.822 300.64 103.829 300.482 105.826L296.981 152.163Z" fill="#92DCE5"/>
<path d="M269.613 118.142L254.362 115.048L261.511 98.1082C261.939 96.4674 263 95.0633 264.461 94.2039C265.923 93.3445 267.666 93.0998 269.308 93.5237C270.949 93.9475 272.356 95.0052 273.219 96.4648C274.082 97.9243 274.331 99.6666 273.911 101.309L269.613 118.142Z" fill="#92DCE5"/>
<path d="M289.145 123.887L288.228 102.87C287.533 98.9192 289.795 95.1844 293.273 94.5739C296.752 93.9657 300.149 96.7058 300.848 100.686L304.294 120.324L289.145 123.887Z" fill="#92DCE5"/>
<path d="M295.854 149.647C301.305 170.406 301.899 196.799 300.429 225.588L293.109 224.673L279.843 169.776L272.523 225.588L264.288 225.13C261.828 194.923 259.433 168.991 263.374 151.935L295.854 149.647Z" fill="#2F2E41"/>
<path d="M287.424 82.8499C285.328 85.0827 281.435 83.8841 281.162 80.8337C281.141 80.5969 281.142 80.3586 281.167 80.1221C281.308 78.7709 282.088 77.5442 281.901 76.1175C281.859 75.7625 281.727 75.4241 281.517 75.1345C279.847 72.8977 275.926 76.1349 274.349 74.1101C273.383 72.8685 274.519 70.9136 273.777 69.526C272.798 67.6944 269.898 68.5979 268.08 67.5949C266.057 66.4789 266.178 63.3746 267.51 61.4864C269.134 59.1837 271.982 57.955 274.794 57.7779C277.606 57.6008 280.399 58.361 283.025 59.3843C286.008 60.5469 288.966 62.1536 290.802 64.7767C293.035 67.9668 293.25 72.2554 292.133 75.9856C291.454 78.2547 289.136 81.0266 287.424 82.8499Z" fill="#2F2E41"/>
<path d="M384.268 237.722H46.5192C46.375 237.722 46.2369 237.664 46.1351 237.562C46.0333 237.46 45.9761 237.321 45.9761 237.177C45.9761 237.033 46.0333 236.895 46.1351 236.793C46.2369 236.691 46.375 236.633 46.5192 236.633H384.268C384.412 236.633 384.55 236.691 384.652 236.793C384.753 236.895 384.811 237.033 384.811 237.177C384.811 237.321 384.753 237.46 384.652 237.562C384.55 237.664 384.412 237.722 384.268 237.722Z" fill="#3F3D56"/>
<path d="M214.554 187.792H155.083C154.299 187.796 153.547 187.49 152.989 186.939C152.432 186.389 152.115 185.64 152.109 184.857V52.113C152.115 51.3298 152.432 50.5809 152.989 50.0307C153.547 49.4805 154.299 49.1739 155.083 49.1781H214.554C215.337 49.1739 216.09 49.4805 216.648 50.0307C217.205 50.5809 217.521 51.3298 217.528 52.113V184.857C217.521 185.64 217.205 186.389 216.648 186.939C216.09 187.49 215.337 187.796 214.554 187.792Z" fill="white"/>
<path d="M217.528 92.13H152.109V93.0449H217.528V92.13Z" fill="#CCCCCC"/>
<path d="M217.756 144.332H152.338V145.247H217.756V144.332Z" fill="#CCCCCC"/>
<path d="M173.61 49.1782H172.695V188.249H173.61V49.1782Z" fill="#CCCCCC"/>
<path d="M196.484 49.1782H195.569V188.249H196.484V49.1782Z" fill="#CCCCCC"/>
</g>
<defs>
<clipPath id="clip0_23_345">
<rect width="398" height="237.948" fill="white"/>
</clipPath>
</defs>
</svg>
