<svg width="398" height="286" viewBox="0 0 398 286" fill="none" xmlns="http://www.w3.org/2000/svg">
<g clip-path="url(#clip0_23_1323)">
<path d="M10.5381 285.024C10.5381 285.374 10.8188 285.654 11.1683 285.654H397.37C397.719 285.654 398 285.374 398 285.024C398 284.675 397.719 284.394 397.37 284.394H11.1683C10.8188 284.394 10.5381 284.675 10.5381 285.024Z" fill="#3F3D58"/>
<path d="M134.206 50.3874H10.3422C5.61852 50.3874 1.77393 46.5429 1.77393 41.8192C1.77393 37.0955 5.61852 33.2509 10.3422 33.2509H134.206C138.929 33.2509 142.774 37.0955 142.774 41.8192C142.774 46.5429 138.929 50.3874 134.206 50.3874ZM10.3422 34.3101C6.20103 34.3101 2.83304 37.6781 2.83304 41.8192C2.83304 45.9603 6.20103 49.3283 10.3422 49.3283H134.206C138.347 49.3283 141.715 45.9603 141.715 41.8192C141.715 37.6781 138.347 34.3101 134.206 34.3101H10.3422Z" fill="#E2E3E4"/>
<path d="M134.206 150.659H10.3423C5.76161 150.659 2.03882 146.936 2.03882 142.356C2.03882 137.775 5.76161 134.052 10.3423 134.052H134.206C138.787 134.052 142.509 137.775 142.509 142.356C142.509 146.936 138.787 150.659 134.206 150.659Z" fill="#92DCE5"/>
<path d="M93.6153 16.6069H8.30347C3.72279 16.6069 0 12.8841 0 8.30347C0 3.72279 3.72279 0 8.30347 0H93.6153C98.196 0 101.919 3.72279 101.919 8.30347C101.919 12.8841 98.196 16.6069 93.6153 16.6069Z" fill="#E2E3E4"/>
<path d="M134.206 83.8979H10.3422C5.61852 83.8979 1.77393 80.0533 1.77393 75.3296C1.77393 70.606 5.61852 66.7614 10.3422 66.7614H134.206C138.929 66.7614 142.774 70.606 142.774 75.3296C142.774 80.0533 138.929 83.8979 134.206 83.8979ZM10.3422 67.8205C6.20103 67.8205 2.83304 71.1885 2.83304 75.3296C2.83304 79.4708 6.20103 82.8388 10.3422 82.8388H134.206C138.347 82.8388 141.715 79.4708 141.715 75.3296C141.715 71.1885 138.347 67.8205 134.206 67.8205H10.3422Z" fill="#E2E3E4"/>
<path d="M134.206 117.414H10.3422C5.61852 117.414 1.77393 113.569 1.77393 108.845C1.77393 104.122 5.61852 100.277 10.3422 100.277H134.206C138.929 100.277 142.774 104.122 142.774 108.845C142.774 113.569 138.929 117.414 134.206 117.414ZM10.3422 101.336C6.20103 101.336 2.83304 104.704 2.83304 108.845C2.83304 112.987 6.20103 116.355 10.3422 116.355H134.206C138.347 116.355 141.715 112.987 141.715 108.845C141.715 104.704 138.347 101.336 134.206 101.336H10.3422Z" fill="#E2E3E4"/>
<path d="M6.08473 27.0975H38.5466C39.3198 27.0975 39.95 27.7224 39.95 28.5008C39.95 29.274 39.3198 29.9041 38.5466 29.9041H6.08473C5.31157 29.9041 4.6814 29.2793 4.6814 28.5008C4.6814 27.7277 5.31157 27.0975 6.08473 27.0975Z" fill="#E2E3E4"/>
<path d="M6.08473 61.4023H38.5466C39.3198 61.4023 39.95 62.0271 39.95 62.8003C39.95 63.5734 39.3198 64.2036 38.5466 64.2036H6.08473C5.31157 64.2036 4.6814 63.5787 4.6814 62.8056C4.6814 62.0324 5.31157 61.4023 6.08473 61.4023Z" fill="#E2E3E4"/>
<path d="M6.08473 95.7123H38.5466C39.3198 95.7123 39.95 96.3372 39.95 97.1157C39.95 97.8888 39.3198 98.5137 38.5466 98.5137H6.08473C5.31157 98.5137 4.6814 97.8888 4.6814 97.1104C4.6814 96.3372 5.31157 95.7123 6.08473 95.7123Z" fill="#E2E3E4"/>
<path d="M236.755 70.0394L224.914 73.9369V56.8904H235.659L236.755 70.0394Z" fill="#9F616A"/>
<path d="M226.381 61.6088C232.897 61.6088 238.179 56.3264 238.179 49.8102C238.179 43.2941 232.897 38.0117 226.381 38.0117C219.865 38.0117 214.582 43.2941 214.582 49.8102C214.582 56.3264 219.865 61.6088 226.381 61.6088Z" fill="#9F616A"/>
<path d="M229.622 48.6399C227.647 48.5817 226.349 46.5852 225.581 44.7635C224.813 42.9419 224.024 40.8501 222.192 40.0981C220.693 39.4839 218.051 43.6409 216.87 42.5341C215.636 41.3797 216.838 35.4539 218.146 34.3895C219.454 33.3251 221.244 33.1186 222.928 33.0391C227.038 32.8485 231.173 33.1821 235.203 34.0241C237.698 34.5431 240.261 35.3268 242.061 37.1273C244.338 39.415 244.921 42.8624 245.085 46.0874C245.254 49.3866 245.064 52.8393 243.459 55.7254C241.855 58.6115 238.497 60.7403 235.278 60.0042C234.954 58.2567 235.283 56.4615 235.41 54.6822C235.532 52.9082 235.405 50.9912 234.319 49.5772C233.239 48.1633 230.919 47.602 229.659 48.857" fill="#2F2E43"/>
<path d="M244.137 52.7281C245.318 51.8649 246.732 51.1394 248.183 51.3195C249.75 51.5101 251.079 52.8023 251.482 54.3327C251.884 55.8631 251.434 57.5471 250.46 58.7969C249.491 60.0466 248.045 60.8727 246.52 61.2858C245.636 61.5241 244.666 61.6247 243.824 61.2646C242.585 60.7297 241.913 59.1464 242.4 57.886" fill="#2F2E43"/>
<path d="M198.987 163.739C198.198 167.616 199.643 171.158 202.206 171.651C204.77 172.143 207.486 169.395 208.27 165.519C208.604 163.972 208.551 162.373 208.116 160.848L217.876 100.081L205.67 97.7829L200.957 159.476C199.956 160.726 199.283 162.188 198.987 163.745V163.739Z" fill="#9F616A"/>
<path d="M224.787 66.1153H216.457C210.568 67.0103 208.969 70.1506 207.629 75.9545C205.585 84.8087 202.974 96.5967 203.493 96.7715C204.325 97.0468 218.506 103.719 225.735 102.194L224.787 66.1153Z" fill="#E2E3E4"/>
<path d="M232.841 259.674H221.752V275.407H232.841V259.674Z" fill="#9F616A"/>
<path d="M210.955 284.929C209.79 284.929 208.752 284.902 207.968 284.828C205.024 284.558 202.212 282.382 200.798 281.111C200.162 280.539 199.961 279.628 200.289 278.844C200.528 278.283 200.999 277.859 201.587 277.695L209.371 275.471L221.975 266.966L222.118 267.22C222.171 267.316 223.41 269.545 223.823 271.049C223.982 271.621 223.939 272.098 223.701 272.468C223.537 272.722 223.304 272.871 223.119 272.955C223.346 273.194 224.061 273.681 226.264 274.03C229.479 274.539 230.157 271.208 230.183 271.07L230.204 270.959L230.299 270.895C231.83 269.91 232.773 269.46 233.096 269.556C233.297 269.614 233.636 269.72 234.552 278.791C234.642 279.077 235.283 281.164 234.848 283.16C234.377 285.331 224.887 284.585 222.986 284.415C222.933 284.42 215.827 284.929 210.96 284.929H210.955Z" fill="#2F2E43"/>
<path d="M264.417 247.313L255.008 253.181L263.333 266.531L272.743 260.663L264.417 247.313Z" fill="#9F616A"/>
<path d="M251.921 282.773C250.619 282.773 249.422 282.615 248.569 282.466C247.733 282.318 247.076 281.651 246.938 280.814C246.843 280.21 247.018 279.601 247.431 279.151L252.859 273.146L259.055 259.261L259.309 259.399C259.404 259.452 261.633 260.686 262.783 261.745C263.222 262.147 263.439 262.576 263.429 263.016C263.423 263.323 263.307 263.566 263.19 263.741C263.508 263.826 264.371 263.858 266.426 262.989C269.423 261.724 268.237 258.536 268.184 258.403L268.142 258.297L268.189 258.197C268.968 256.55 269.524 255.671 269.852 255.581C270.059 255.522 270.398 255.432 275.974 262.65C276.202 262.841 277.849 264.276 278.537 266.198C279.284 268.29 270.837 272.68 269.137 273.538C269.084 273.58 260.246 280.004 256.613 281.831C255.173 282.556 253.468 282.779 251.916 282.779L251.921 282.773Z" fill="#2F2E43"/>
<path d="M241.007 128.105H209.959L207.142 156.988L219.47 263.704H235.32L228.981 202.069L254.691 257.715L268.777 247.854L248.702 195.905C248.702 195.905 255.872 150.649 250.238 139.374C244.603 128.105 241.007 128.105 241.007 128.105Z" fill="#2F2E43"/>
<path d="M256.455 129.864H207.142L221.938 66.1153H243.422L256.455 129.864Z" fill="#E2E3E4"/>
<path d="M260.892 163.739C261.681 167.616 260.235 171.158 257.672 171.651C255.109 172.143 252.393 169.395 251.609 165.519C251.275 163.972 251.328 162.373 251.762 160.848L242.003 100.081L254.209 97.7829L258.922 159.476C259.923 160.726 260.595 162.188 260.892 163.745V163.739Z" fill="#9F616A"/>
<path d="M235.092 66.1153H243.422C249.311 67.0103 250.91 70.1506 252.25 75.9545C254.294 84.8087 256.904 96.5967 256.385 96.7715C255.554 97.0468 241.373 103.719 234.144 102.194L235.092 66.1153Z" fill="#E2E3E4"/>
</g>
<defs>
<clipPath id="clip0_23_1323">
<rect width="398" height="285.654" fill="white"/>
</clipPath>
</defs>
</svg>
