<svg width="205" height="32" viewBox="0 0 205 32" fill="none" xmlns="http://www.w3.org/2000/svg">
<path fill-rule="evenodd" clip-rule="evenodd" d="M46.2625 32L46.3833 32C52.5317 31.9263 57.4959 26.235 57.4959 19.2258C57.4959 12.1708 52.4665 6.45162 46.2625 6.45162C43.7363 6.45162 41.4049 7.39981 39.5285 9.00029C37.9492 3.78183 33.2871 0 27.7816 0C21.7739 0 16.7705 4.50335 15.6812 10.4627C14.3172 9.87435 12.8134 9.54839 11.2334 9.54839C5.02939 9.54839 0 14.5743 0 20.7742C0 26.3576 4.07903 30.989 9.4216 31.8547V32L11.2334 32L46.2625 32ZM10.0256 21.9355C10.6259 21.9355 11.1127 21.4156 11.1127 20.7742C11.1127 20.1328 10.6259 19.6129 10.0256 19.6129C9.42516 19.6129 8.93845 20.1328 8.93845 20.7742C8.93845 21.4156 9.42516 21.9355 10.0256 21.9355ZM46.6248 20.7742C46.6248 21.4156 46.1381 21.9355 45.5377 21.9355C44.9373 21.9355 44.4506 21.4156 44.4506 20.7742C44.4506 20.1328 44.9373 19.6129 45.5377 19.6129C46.1381 19.6129 46.6248 20.1328 46.6248 20.7742ZM16.0895 20.8995C15.5163 20.591 14.8034 20.8047 14.4974 21.3768C14.1913 21.949 14.408 22.6629 14.9812 22.9715C18.9677 25.1169 29.5994 28.1946 41.0766 23.8886C41.6843 23.6606 41.99 22.9823 41.7596 22.3736C41.5291 21.7648 40.8498 21.4562 40.2421 21.6841C29.5238 25.7054 19.6042 22.791 16.0895 20.8995Z" fill="#92DCE5"/>
<path d="M67.4845 25.4071C66.0785 25.4071 64.7312 25.223 63.4424 24.8548C62.1537 24.4698 61.116 23.9761 60.3293 23.3735L61.7101 20.3106C62.4633 20.8462 63.3504 21.2897 64.3714 21.6412C65.4091 21.976 66.4551 22.1433 67.5096 22.1433C68.313 22.1433 68.9573 22.068 69.4427 21.9174C69.9448 21.75 70.3131 21.5241 70.5474 21.2395C70.7817 20.955 70.8989 20.6286 70.8989 20.2604C70.8989 19.7918 70.7148 19.4235 70.3465 19.1558C69.9783 18.8712 69.4929 18.6453 68.8904 18.4779C68.2879 18.2938 67.6184 18.1264 66.8819 17.9758C66.1622 17.8084 65.4342 17.6076 64.6977 17.3732C63.978 17.1389 63.3169 16.8376 62.7144 16.4694C62.1118 16.1012 61.6181 15.6158 61.2331 15.0133C60.8649 14.4107 60.6808 13.6408 60.6808 12.7036C60.6808 11.6993 60.9486 10.7871 61.4842 9.96701C62.0365 9.13015 62.8566 8.46903 63.9445 7.98365C65.0492 7.48154 66.43 7.23048 68.087 7.23048C69.1917 7.23048 70.2796 7.36438 71.3508 7.63217C72.422 7.88323 73.3676 8.26819 74.1877 8.78704L72.9324 11.8751C72.1123 11.4064 71.2922 11.0633 70.4721 10.8457C69.6519 10.6114 68.8485 10.4942 68.0619 10.4942C67.2753 10.4942 66.6309 10.5863 66.1288 10.7704C65.6266 10.9545 65.2668 11.1972 65.0492 11.4985C64.8316 11.783 64.7228 12.1177 64.7228 12.5027C64.7228 12.9546 64.9069 13.3228 65.2752 13.6074C65.6434 13.8752 66.1288 14.0927 66.7313 14.2601C67.3338 14.4275 67.995 14.5949 68.7147 14.7622C69.4511 14.9296 70.1792 15.1221 70.8989 15.3397C71.6353 15.5572 72.3048 15.8501 72.9073 16.2184C73.5099 16.5866 73.9952 17.072 74.3635 17.6745C74.7484 18.277 74.9409 19.0386 74.9409 19.9591C74.9409 20.9466 74.6647 21.8504 74.1124 22.6706C73.5601 23.4907 72.7316 24.1518 71.6269 24.6539C70.539 25.156 69.1582 25.4071 67.4845 25.4071Z" fill="#92DCE5"/>
<path d="M80.6825 22.3442L80.7829 17.5741L87.0845 11.5989H91.7542L85.7037 17.7498L83.6701 19.4068L80.6825 22.3442ZM77.4438 25.1058V6.4773H81.3603V25.1058H77.4438ZM87.5113 25.1058L82.942 19.4319L85.4024 16.3941L92.2563 25.1058H87.5113Z" fill="#92DCE5"/>
<path d="M94.9157 30.1772C94.2128 30.1772 93.5182 30.0684 92.8319 29.8508C92.1457 29.6332 91.585 29.332 91.1498 28.947L92.5809 26.1603C92.8821 26.4281 93.2253 26.6373 93.6102 26.7879C94.0119 26.9386 94.4052 27.0139 94.7902 27.0139C95.3425 27.0139 95.7777 26.88 96.0957 26.6122C96.4304 26.3611 96.7317 25.9343 96.9995 25.3318L97.7025 23.6748L98.0037 23.248L102.849 11.5989H106.615L100.514 25.9343C100.079 27.0222 99.577 27.8758 99.008 28.4951C98.4557 29.1144 97.8364 29.5496 97.1501 29.8006C96.4807 30.0517 95.7359 30.1772 94.9157 30.1772ZM97.2255 25.6331L91.2001 11.5989H95.2421L99.9118 22.8965L97.2255 25.6331Z" fill="#92DCE5"/>
<path d="M116.826 25.4071C115.471 25.4071 114.207 25.1895 113.035 24.7543C111.88 24.3024 110.876 23.6664 110.023 22.8463C109.169 22.0262 108.499 21.0638 108.014 19.9591C107.545 18.8545 107.311 17.641 107.311 16.3188C107.311 14.9965 107.545 13.7831 108.014 12.6784C108.499 11.5738 109.169 10.6114 110.023 9.79127C110.893 8.97115 111.906 8.3435 113.06 7.90834C114.215 7.45643 115.479 7.23048 116.851 7.23048C118.374 7.23048 119.747 7.49827 120.969 8.03387C122.207 8.55272 123.245 9.32263 124.082 10.3436L121.471 12.7538C120.868 12.0675 120.199 11.557 119.462 11.2223C118.726 10.8708 117.923 10.6951 117.052 10.6951C116.232 10.6951 115.479 10.829 114.793 11.0968C114.106 11.3646 113.512 11.7495 113.01 12.2516C112.508 12.7538 112.115 13.3479 111.83 14.0342C111.562 14.7204 111.428 15.4819 111.428 16.3188C111.428 17.1557 111.562 17.9172 111.83 18.6034C112.115 19.2896 112.508 19.8838 113.01 20.3859C113.512 20.8881 114.106 21.273 114.793 21.5408C115.479 21.8086 116.232 21.9425 117.052 21.9425C117.923 21.9425 118.726 21.7751 119.462 21.4404C120.199 21.0889 120.868 20.5617 121.471 19.8587L124.082 22.2689C123.245 23.2898 122.207 24.0681 120.969 24.6037C119.747 25.1393 118.366 25.4071 116.826 25.4071Z" fill="#92DCE5"/>
<path d="M134.762 11.398C135.833 11.398 136.787 11.6156 137.624 12.0508C138.477 12.4692 139.147 13.122 139.632 14.0091C140.118 14.8794 140.36 16.0008 140.36 17.3732V25.1058H136.444V17.9758C136.444 16.8879 136.201 16.0845 135.716 15.5656C135.247 15.0468 134.578 14.7873 133.707 14.7873C133.088 14.7873 132.527 14.9212 132.025 15.189C131.54 15.4401 131.155 15.8334 130.87 16.369C130.603 16.9046 130.469 17.5908 130.469 18.4277V25.1058H126.552V6.4773H130.469V15.3397L129.59 14.2099C130.075 13.3061 130.77 12.6115 131.674 12.1261C132.578 11.6407 133.607 11.398 134.762 11.398Z" fill="#92DCE5"/>
<path d="M152.195 25.1058V22.4697L151.944 21.8923V17.1724C151.944 16.3355 151.685 15.6828 151.166 15.2141C150.664 14.7455 149.886 14.5112 148.831 14.5112C148.112 14.5112 147.4 14.6283 146.697 14.8627C146.011 15.0802 145.425 15.3815 144.94 15.7665L143.534 13.0299C144.27 12.5111 145.157 12.1094 146.195 11.8248C147.233 11.5403 148.287 11.398 149.359 11.398C151.417 11.398 153.016 11.8834 154.154 12.8542C155.292 13.8249 155.861 15.3397 155.861 17.3983V25.1058H152.195ZM148.078 25.3067C147.024 25.3067 146.12 25.1309 145.367 24.7795C144.613 24.4112 144.036 23.9175 143.634 23.2982C143.233 22.6789 143.032 21.9843 143.032 21.2144C143.032 20.411 143.224 19.7081 143.609 19.1055C144.011 18.503 144.639 18.0344 145.492 17.6996C146.346 17.3481 147.459 17.1724 148.831 17.1724H152.421V19.457H149.258C148.338 19.457 147.702 19.6077 147.35 19.9089C147.015 20.2102 146.848 20.5868 146.848 21.0387C146.848 21.5408 147.04 21.9425 147.425 22.2438C147.827 22.5283 148.371 22.6706 149.057 22.6706C149.71 22.6706 150.296 22.5199 150.815 22.2187C151.333 21.9007 151.71 21.4404 151.944 20.8378L152.547 22.6455C152.262 23.5158 151.744 24.1769 150.99 24.6288C150.237 25.0807 149.266 25.3067 148.078 25.3067Z" fill="#92DCE5"/>
<path d="M164.929 25.3067C163.339 25.3067 162.1 24.905 161.213 24.1016C160.326 23.2815 159.883 22.068 159.883 20.4613V8.6113H163.799V20.411C163.799 20.9801 163.95 21.4236 164.251 21.7416C164.552 22.0429 164.962 22.1936 165.481 22.1936C166.1 22.1936 166.628 22.0262 167.063 21.6914L168.117 24.4531C167.716 24.7376 167.23 24.9552 166.661 25.1058C166.109 25.2397 165.531 25.3067 164.929 25.3067ZM157.799 14.9129V11.9002H167.163V14.9129H157.799Z" fill="#92DCE5"/>
<path d="M175.545 25.3067C173.955 25.3067 172.716 24.905 171.829 24.1016C170.942 23.2815 170.499 22.068 170.499 20.4613V8.6113H174.415V20.411C174.415 20.9801 174.566 21.4236 174.867 21.7416C175.168 22.0429 175.578 22.1936 176.097 22.1936C176.716 22.1936 177.244 22.0262 177.679 21.6914L178.733 24.4531C178.332 24.7376 177.846 24.9552 177.277 25.1058C176.725 25.2397 176.147 25.3067 175.545 25.3067ZM168.415 14.9129V11.9002H177.779V14.9129H168.415Z" fill="#92DCE5"/>
<path d="M187.218 25.3067C185.678 25.3067 184.323 25.0054 183.151 24.4029C181.996 23.8003 181.101 22.9802 180.465 21.9425C179.829 20.8881 179.511 19.6913 179.511 18.3524C179.511 16.9966 179.82 15.7999 180.44 14.7622C181.076 13.7078 181.938 12.8877 183.026 12.3019C184.114 11.6993 185.344 11.398 186.716 11.398C188.038 11.398 189.227 11.6826 190.281 12.2516C191.352 12.804 192.198 13.6074 192.817 14.6618C193.436 15.6995 193.746 16.9464 193.746 18.4026C193.746 18.5532 193.737 18.729 193.721 18.9298C193.704 19.1139 193.687 19.2896 193.67 19.457H182.699V17.1724H191.612L190.105 17.8502C190.105 17.1473 189.963 16.5364 189.679 16.0175C189.394 15.4987 189.001 15.097 188.499 14.8124C187.997 14.5112 187.411 14.3605 186.741 14.3605C186.072 14.3605 185.478 14.5112 184.959 14.8124C184.457 15.097 184.063 15.507 183.779 16.0426C183.494 16.5615 183.352 17.1808 183.352 17.9005V18.503C183.352 19.2394 183.511 19.8922 183.829 20.4613C184.164 21.0136 184.624 21.4404 185.21 21.7416C185.812 22.0262 186.515 22.1684 187.319 22.1684C188.038 22.1684 188.666 22.0597 189.202 21.8421C189.754 21.6245 190.256 21.2981 190.708 20.8629L192.792 23.1225C192.173 23.8254 191.394 24.3694 190.457 24.7543C189.52 25.1226 188.44 25.3067 187.218 25.3067Z" fill="#92DCE5"/>
<path d="M196.353 25.1058V11.5989H200.094V15.415L199.567 14.3103C199.969 13.3563 200.613 12.6366 201.5 12.1512C202.387 11.6491 203.467 11.398 204.739 11.398V15.0133C204.571 14.9965 204.421 14.9882 204.287 14.9882C204.153 14.9714 204.011 14.9631 203.86 14.9631C202.789 14.9631 201.918 15.2727 201.249 15.892C200.596 16.4945 200.27 17.4402 200.27 18.729V25.1058H196.353Z" fill="#92DCE5"/>
</svg>
